{"glyphs":{"0":{"ha":906,"x_min":0,"x_max":0,"o":"m 450 -8 b 39 506 190 -8 39 197 b 456 1014 39 829 207 1014 b 864 503 714 1014 864 810 b 450 -8 864 175 696 -8 m 450 222 b 588 493 567 222 588 338 b 454 786 588 749 526 786 b 315 515 335 786 315 665 b 450 222 315 267 375 222 "},"1":{"ha":660,"x_min":0,"x_max":0,"o":"m 25 821 l 71 821 b 317 1001 206 821 306 893 l 565 1001 l 565 0 l 300 0 l 300 619 l 25 619 "},"2":{"ha":838,"x_min":0,"x_max":0,"o":"m 806 232 l 806 0 l 31 0 l 31 33 b 524 681 31 408 524 494 b 417 788 524 749 481 788 b 296 658 340 788 292 742 l 39 658 b 425 1014 29 876 189 1014 b 799 700 638 1014 799 901 b 381 217 799 446 504 343 b 564 232 442 229 506 232 "},"3":{"ha":882,"x_min":0,"x_max":0,"o":"m 435 -14 b 35 313 186 -14 40 117 l 297 313 b 436 211 299 251 356 211 b 571 318 518 211 571 253 b 456 418 571 386 525 418 l 318 418 l 318 597 l 432 597 b 557 693 517 597 557 638 b 436 789 557 756 508 789 b 308 693 364 789 313 756 l 40 693 b 449 1014 49 889 207 1014 b 828 738 671 1014 828 907 b 688 522 828 638 772 554 l 688 513 b 842 292 789 485 842 397 b 435 -14 842 108 675 -14 "},"4":{"ha":904,"x_min":0,"x_max":0,"o":"m 879 468 l 879 253 l 768 253 l 768 0 l 503 0 l 503 253 l 35 253 l 35 449 l 407 1001 l 768 1001 l 768 468 m 503 468 l 503 763 l 303 468 "},"5":{"ha":876,"x_min":0,"x_max":0,"o":"m 490 681 b 839 342 707 681 839 538 b 435 -14 839 129 686 -14 b 35 318 190 -14 35 122 l 303 318 b 436 217 304 257 356 217 b 572 335 518 217 572 268 b 432 461 572 406 518 461 b 307 385 364 461 321 428 l 54 385 l 83 1001 l 760 1001 l 760 771 l 317 771 l 311 649 l 322 644 b 490 681 357 667 428 681 "},"6":{"ha":894,"x_min":0,"x_max":0,"o":"m 460 -12 b 40 497 189 -12 40 163 b 471 1014 40 856 211 1014 b 839 744 682 1014 811 906 l 575 744 b 464 794 561 778 514 794 b 310 607 360 794 303 722 l 322 607 b 526 685 357 651 428 685 b 860 349 724 685 860 550 b 460 -12 860 132 703 -12 m 464 217 b 596 343 544 217 596 267 b 464 472 596 418 544 472 b 333 342 385 472 333 421 b 464 217 333 263 386 217 "},"7":{"ha":857,"x_min":0,"x_max":0,"o":"m 19 1001 l 838 1001 l 838 808 b 478 0 624 569 478 394 l 193 0 b 522 771 193 301 314 553 l 231 771 l 231 618 l 19 618 "},"8":{"ha":878,"x_min":0,"x_max":0,"o":"m 38 269 b 185 496 38 374 90 456 l 185 507 b 38 732 90 549 38 629 b 442 1014 38 901 199 1014 b 842 733 682 1014 842 901 b 696 507 842 631 789 549 l 696 496 b 842 268 789 456 842 374 b 439 -14 842 99 681 -14 b 38 269 200 -14 38 100 m 310 696 b 439 608 310 640 363 608 b 569 696 522 608 569 643 b 439 788 569 754 517 788 b 310 696 357 788 310 751 m 310 304 b 439 214 310 246 363 214 b 569 304 522 214 569 250 b 439 394 569 361 517 394 b 310 304 357 394 310 358 "},"9":{"ha":888,"x_min":0,"x_max":0,"o":"m 414 -12 b 51 257 211 -12 76 96 l 314 257 b 429 207 328 224 374 207 b 578 394 535 207 586 282 l 567 394 b 367 317 531 347 456 317 b 29 653 164 317 29 451 b 425 1014 29 869 186 1014 b 849 492 700 1014 849 826 b 414 -12 849 175 713 -12 m 424 529 b 556 660 504 529 556 581 b 424 785 556 739 503 785 b 292 658 344 785 292 735 b 424 529 292 583 344 529 "},"\r":{"ha":242,"x_min":0,"x_max":0,"o":""}," ":{"ha":222,"x_min":0,"x_max":0,"o":""},"A":{"ha":1069,"x_min":0,"x_max":0,"o":"m 354 1013 l 697 1013 l 1075 0 l 765 0 l 717 139 l 339 139 l 288 0 l -3 0 m 651 353 l 536 686 l 526 686 l 407 353 "},"Á":{"ha":1069,"x_min":0,"x_max":0,"o":"m 843 1299 l 608 1064 l 442 1064 l 571 1299 m 354 1013 l 697 1013 l 1075 0 l 765 0 l 717 139 l 339 139 l 288 0 l -3 0 m 651 353 l 536 686 l 526 686 l 407 353 "},"Ă":{"ha":1069,"x_min":0,"x_max":0,"o":"m 771 1299 b 525 1064 779 1154 676 1064 b 282 1299 374 1064 272 1154 l 436 1299 b 525 1206 436 1229 475 1206 b 617 1299 588 1206 617 1240 l 771 1299 m 354 1013 l 697 1013 l 1075 0 l 765 0 l 717 139 l 339 139 l 288 0 l -3 0 m 651 353 l 536 686 l 526 686 l 407 353 "},"Â":{"ha":1069,"x_min":0,"x_max":0,"o":"m 442 1299 l 610 1299 l 838 1064 l 611 1064 l 525 1167 l 439 1064 l 213 1064 m 354 1013 l 697 1013 l 1075 0 l 765 0 l 717 139 l 339 139 l 288 0 l -3 0 m 651 353 l 536 686 l 526 686 l 407 353 "},"Ä":{"ha":1069,"x_min":0,"x_max":0,"o":"m 258 1299 l 483 1299 l 483 1064 l 258 1064 m 565 1299 l 790 1299 l 790 1064 l 565 1064 m 354 1013 l 697 1013 l 1075 0 l 765 0 l 717 139 l 339 139 l 288 0 l -3 0 m 651 353 l 536 686 l 526 686 l 407 353 "},"À":{"ha":1069,"x_min":0,"x_max":0,"o":"m 608 1064 l 442 1064 l 207 1299 l 479 1299 m 354 1013 l 697 1013 l 1075 0 l 765 0 l 717 139 l 339 139 l 288 0 l -3 0 m 651 353 l 536 686 l 526 686 l 407 353 "},"Ā":{"ha":1069,"x_min":0,"x_max":0,"o":"m 283 1310 l 765 1310 l 765 1121 l 283 1121 m 354 1013 l 697 1013 l 1075 0 l 765 0 l 717 139 l 339 139 l 288 0 l -3 0 m 651 353 l 536 686 l 526 686 l 407 353 "},"Ą":{"ha":1069,"x_min":0,"x_max":0,"o":"m 1026 -189 b 1113 -174 1054 -189 1086 -183 l 1113 -306 b 985 -328 1082 -319 1032 -328 b 782 -151 863 -328 782 -257 b 858 0 782 -92 810 -39 l 765 0 l 717 139 l 339 139 l 288 0 l -3 0 l 354 1013 l 697 1013 l 1075 0 l 1074 0 b 935 -118 979 -22 935 -68 b 1026 -189 935 -162 968 -189 m 651 353 l 536 686 l 526 686 l 407 353 "},"Å":{"ha":1069,"x_min":0,"x_max":0,"o":"m 679 1213 b 525 1069 679 1128 615 1069 b 369 1213 435 1069 369 1128 b 525 1356 369 1299 435 1356 b 679 1213 615 1356 679 1299 m 572 1213 b 525 1260 572 1242 553 1260 b 478 1213 497 1260 478 1242 b 525 1167 478 1186 497 1167 b 572 1213 553 1167 572 1186 m 354 1013 l 697 1013 l 1075 0 l 765 0 l 717 139 l 339 139 l 288 0 l -3 0 m 651 353 l 536 686 l 526 686 l 407 353 "},"Ã":{"ha":1069,"x_min":0,"x_max":0,"o":"m 765 1219 b 607 1085 740 1126 679 1083 b 447 1133 536 1085 507 1133 b 364 1085 415 1133 388 1118 l 282 1158 b 446 1292 311 1250 372 1292 b 608 1244 522 1290 543 1244 b 686 1293 643 1244 667 1264 l 765 1219 m 354 1013 l 697 1013 l 1075 0 l 765 0 l 717 139 l 339 139 l 288 0 l -3 0 m 651 353 l 536 686 l 526 686 l 407 353 "},"Æ":{"ha":1449,"x_min":0,"x_max":0,"o":"m 929 774 l 929 614 l 1324 614 l 1324 392 l 929 392 l 929 239 l 1400 239 l 1400 0 l 647 0 l 647 200 l 347 200 l 288 0 l -3 0 l 324 1013 l 1400 1013 l 1400 774 m 647 774 l 519 774 l 413 414 l 647 414 "},"Ǽ":{"ha":1449,"x_min":0,"x_max":0,"o":"m 910 1064 l 743 1064 l 872 1299 l 1144 1299 m 929 774 l 929 614 l 1324 614 l 1324 392 l 929 392 l 929 239 l 1400 239 l 1400 0 l 647 0 l 647 200 l 347 200 l 288 0 l -3 0 l 324 1013 l 1400 1013 l 1400 774 m 647 774 l 519 774 l 413 414 l 647 414 "},"B":{"ha":1019,"x_min":0,"x_max":0,"o":"m 75 1013 l 640 1013 b 958 754 829 1013 958 911 b 807 532 958 647 901 567 l 807 519 b 988 282 931 489 988 397 b 642 0 988 114 851 0 l 75 0 m 550 617 b 668 718 617 617 668 650 b 550 810 668 778 621 810 l 349 810 l 349 617 m 557 203 b 692 311 608 203 692 218 b 557 418 692 401 611 418 l 349 418 l 349 203 "},"C":{"ha":1092,"x_min":0,"x_max":0,"o":"m 1067 360 b 571 -14 1043 136 835 -14 b 33 503 239 -14 33 193 b 571 1025 33 818 247 1025 b 1067 654 846 1025 1042 876 l 775 654 b 569 781 749 735 667 781 b 331 501 418 781 331 679 b 563 231 331 318 421 231 b 775 360 669 231 753 282 l 1067 360 "},"Ć":{"ha":1092,"x_min":0,"x_max":0,"o":"m 889 1299 l 654 1064 l 488 1064 l 617 1299 m 1067 360 b 571 -14 1043 136 835 -14 b 33 503 239 -14 33 193 b 571 1025 33 818 247 1025 b 1067 654 846 1025 1042 876 l 775 654 b 569 781 749 735 667 781 b 331 501 418 781 331 679 b 563 231 331 318 421 231 b 775 360 669 231 753 282 l 1067 360 "},"Č":{"ha":1092,"x_min":0,"x_max":0,"o":"m 483 1299 l 569 1196 l 656 1299 l 882 1299 l 654 1064 l 486 1064 l 257 1299 m 1067 360 b 571 -14 1043 136 835 -14 b 33 503 239 -14 33 193 b 571 1025 33 818 247 1025 b 1067 654 846 1025 1042 876 l 775 654 b 569 781 749 735 667 781 b 331 501 418 781 331 679 b 563 231 331 318 421 231 b 775 360 669 231 753 282 l 1067 360 "},"Ç":{"ha":1092,"x_min":0,"x_max":0,"o":"m 563 231 b 775 360 669 231 753 282 l 1067 360 b 606 -12 1044 146 853 0 l 569 -58 l 574 -58 b 718 -190 660 -58 718 -106 b 517 -343 718 -293 619 -343 b 382 -312 469 -343 422 -333 l 382 -192 b 482 -222 415 -214 450 -222 b 556 -165 532 -222 556 -199 b 492 -115 556 -135 531 -115 b 438 -128 474 -115 454 -119 l 438 -68 l 481 -8 b 33 503 203 25 33 222 b 571 1025 33 818 247 1025 b 1067 654 846 1025 1042 876 l 775 654 b 569 781 749 735 667 781 b 331 501 418 781 331 679 b 563 231 331 318 421 231 "},"Ċ":{"ha":1092,"x_min":0,"x_max":0,"o":"m 438 1299 l 703 1299 l 703 1064 l 438 1064 m 1067 360 b 571 -14 1043 136 835 -14 b 33 503 239 -14 33 193 b 571 1025 33 818 247 1025 b 1067 654 846 1025 1042 876 l 775 654 b 569 781 749 735 667 781 b 331 501 418 781 331 679 b 563 231 331 318 421 231 b 775 360 669 231 753 282 l 1067 360 "},"D":{"ha":1110,"x_min":0,"x_max":0,"o":"m 75 1013 l 581 1013 b 1078 506 907 1013 1078 807 b 581 0 1078 204 906 0 l 75 0 m 532 239 b 783 511 658 239 783 264 b 532 774 783 743 663 774 l 357 774 l 357 239 "},"Ð":{"ha":1110,"x_min":0,"x_max":0,"o":"m 581 1013 b 1078 506 907 1013 1078 807 b 581 0 1078 204 906 0 l 75 0 l 75 422 l -28 422 l -28 603 l 75 603 l 75 1013 l 581 1013 m 532 239 b 783 511 658 239 783 264 b 532 774 783 743 663 774 l 357 774 l 357 603 l 507 603 l 507 422 l 357 422 l 357 239 l 532 239 "},"Ď":{"ha":1110,"x_min":0,"x_max":0,"o":"m 413 1299 l 499 1196 l 585 1299 l 811 1299 l 583 1064 l 415 1064 l 186 1299 m 75 1013 l 581 1013 b 1078 506 907 1013 1078 807 b 581 0 1078 204 906 0 l 75 0 m 532 239 b 783 511 658 239 783 264 b 532 774 783 743 663 774 l 357 774 l 357 239 "},"Đ":{"ha":1110,"x_min":0,"x_max":0,"o":"m 581 1013 b 1078 506 907 1013 1078 807 b 581 0 1078 204 906 0 l 75 0 l 75 422 l -28 422 l -28 603 l 75 603 l 75 1013 l 581 1013 m 532 239 b 783 511 658 239 783 264 b 532 774 783 743 663 774 l 357 774 l 357 603 l 507 603 l 507 422 l 357 422 l 357 239 l 532 239 "},"E":{"ha":911,"x_min":0,"x_max":0,"o":"m 75 1013 l 863 1013 l 863 774 l 357 774 l 357 638 l 785 638 l 785 414 l 357 414 l 357 239 l 863 239 l 863 0 l 75 0 "},"É":{"ha":911,"x_min":0,"x_max":0,"o":"m 778 1299 l 543 1064 l 376 1064 l 506 1299 m 75 1013 l 863 1013 l 863 774 l 357 774 l 357 638 l 785 638 l 785 414 l 357 414 l 357 239 l 863 239 l 863 0 l 75 0 "},"Ě":{"ha":911,"x_min":0,"x_max":0,"o":"m 372 1299 l 458 1196 l 544 1299 l 771 1299 l 543 1064 l 375 1064 l 146 1299 m 75 1013 l 863 1013 l 863 774 l 357 774 l 357 638 l 785 638 l 785 414 l 357 414 l 357 239 l 863 239 l 863 0 l 75 0 "},"Ê":{"ha":911,"x_min":0,"x_max":0,"o":"m 376 1299 l 544 1299 l 772 1064 l 546 1064 l 460 1167 l 374 1064 l 147 1064 m 75 1013 l 863 1013 l 863 774 l 357 774 l 357 638 l 785 638 l 785 414 l 357 414 l 357 239 l 863 239 l 863 0 l 75 0 "},"Ë":{"ha":911,"x_min":0,"x_max":0,"o":"m 193 1299 l 418 1299 l 418 1064 l 193 1064 m 500 1299 l 725 1299 l 725 1064 l 500 1064 m 75 1013 l 863 1013 l 863 774 l 357 774 l 357 638 l 785 638 l 785 414 l 357 414 l 357 239 l 863 239 l 863 0 l 75 0 "},"Ė":{"ha":911,"x_min":0,"x_max":0,"o":"m 326 1299 l 592 1299 l 592 1064 l 326 1064 m 75 1013 l 863 1013 l 863 774 l 357 774 l 357 638 l 785 638 l 785 414 l 357 414 l 357 239 l 863 239 l 863 0 l 75 0 "},"È":{"ha":911,"x_min":0,"x_max":0,"o":"m 543 1064 l 376 1064 l 142 1299 l 414 1299 m 75 1013 l 863 1013 l 863 774 l 357 774 l 357 638 l 785 638 l 785 414 l 357 414 l 357 239 l 863 239 l 863 0 l 75 0 "},"Ē":{"ha":911,"x_min":0,"x_max":0,"o":"m 218 1310 l 700 1310 l 700 1121 l 218 1121 m 75 1013 l 863 1013 l 863 774 l 357 774 l 357 638 l 785 638 l 785 414 l 357 414 l 357 239 l 863 239 l 863 0 l 75 0 "},"Ę":{"ha":911,"x_min":0,"x_max":0,"o":"m 801 -189 b 888 -174 829 -189 861 -183 l 888 -306 b 760 -328 857 -319 807 -328 b 557 -151 638 -328 557 -257 b 633 0 557 -92 585 -39 l 75 0 l 75 1013 l 863 1013 l 863 774 l 357 774 l 357 638 l 785 638 l 785 414 l 357 414 l 357 239 l 863 239 l 863 0 l 849 0 b 710 -118 754 -22 710 -68 b 801 -189 710 -162 743 -189 "},"F":{"ha":892,"x_min":0,"x_max":0,"o":"m 75 1013 l 868 1013 l 868 774 l 357 774 l 357 589 l 810 589 l 810 363 l 357 363 l 357 0 l 75 0 "},"G":{"ha":1165,"x_min":0,"x_max":0,"o":"m 1108 568 l 1108 0 l 879 0 l 868 111 l 858 111 b 533 -14 807 40 685 -14 b 33 507 243 -14 33 188 b 585 1025 33 832 242 1025 b 1097 647 888 1025 1082 878 l 804 647 b 588 781 788 733 701 781 b 331 500 417 781 331 674 b 576 222 331 315 428 222 b 801 350 689 222 778 275 l 506 350 l 506 568 "},"Ğ":{"ha":1165,"x_min":0,"x_max":0,"o":"m 560 1064 b 317 1299 408 1064 307 1154 l 471 1299 b 560 1206 471 1229 510 1206 b 651 1299 622 1206 651 1240 l 806 1299 b 560 1064 814 1154 711 1064 m 1108 568 l 1108 0 l 879 0 l 868 111 l 858 111 b 533 -14 807 40 685 -14 b 33 507 243 -14 33 188 b 585 1025 33 832 242 1025 b 1097 647 888 1025 1082 878 l 804 647 b 588 781 788 733 701 781 b 331 500 417 781 331 674 b 576 222 331 315 428 222 b 801 350 689 222 778 275 l 506 350 l 506 568 "},"Ģ":{"ha":1165,"x_min":0,"x_max":0,"o":"m 1108 568 l 1108 0 l 879 0 l 868 111 l 858 111 b 533 -14 807 40 685 -14 b 33 507 243 -14 33 188 b 585 1025 33 832 242 1025 b 1097 647 888 1025 1082 878 l 804 647 b 588 781 788 733 701 781 b 331 500 417 781 331 674 b 576 222 331 315 428 222 b 801 350 689 222 778 275 l 506 350 l 506 568 m 457 -68 l 663 -68 l 663 -287 b 471 -449 663 -403 593 -449 l 471 -376 b 551 -307 532 -376 551 -349 l 551 -272 l 457 -272 "},"Ġ":{"ha":1165,"x_min":0,"x_max":0,"o":"m 692 1064 l 426 1064 l 426 1299 l 692 1299 m 1108 568 l 1108 0 l 879 0 l 868 111 l 858 111 b 533 -14 807 40 685 -14 b 33 507 243 -14 33 188 b 585 1025 33 832 242 1025 b 1097 647 888 1025 1082 878 l 804 647 b 588 781 788 733 701 781 b 331 500 417 781 331 674 b 576 222 331 315 428 222 b 801 350 689 222 778 275 l 506 350 l 506 568 "},"H":{"ha":1108,"x_min":0,"x_max":0,"o":"m 75 1013 l 357 1013 l 357 636 l 753 636 l 753 1013 l 1033 1013 l 1033 0 l 753 0 l 753 390 l 357 390 l 357 0 l 75 0 "},"Ħ":{"ha":1108,"x_min":0,"x_max":0,"o":"m 1119 744 l 1033 744 l 1033 0 l 753 0 l 753 390 l 357 390 l 357 0 l 75 0 l 75 744 l 15 744 l 15 897 l 75 897 l 75 1013 l 357 1013 l 357 897 l 753 897 l 753 1013 l 1033 1013 l 1033 897 l 1119 897 m 753 744 l 357 744 l 357 636 l 753 636 "},"I":{"ha":432,"x_min":0,"x_max":0,"o":"m 75 0 l 75 1013 l 357 1013 l 357 0 "},"Í":{"ha":432,"x_min":0,"x_max":0,"o":"m 535 1299 l 300 1064 l 133 1064 l 263 1299 m 75 0 l 75 1013 l 357 1013 l 357 0 "},"Î":{"ha":432,"x_min":0,"x_max":0,"o":"m 133 1299 l 301 1299 l 529 1064 l 303 1064 l 217 1167 l 131 1064 l -96 1064 m 75 0 l 75 1013 l 357 1013 l 357 0 "},"Ï":{"ha":432,"x_min":0,"x_max":0,"o":"m -50 1299 l 175 1299 l 175 1064 l -50 1064 m 257 1299 l 482 1299 l 482 1064 l 257 1064 m 75 0 l 75 1013 l 357 1013 l 357 0 "},"İ":{"ha":432,"x_min":0,"x_max":0,"o":"m 83 1299 l 349 1299 l 349 1064 l 83 1064 m 75 0 l 75 1013 l 357 1013 l 357 0 "},"Ì":{"ha":432,"x_min":0,"x_max":0,"o":"m 300 1064 l 133 1064 l -101 1299 l 171 1299 m 75 0 l 75 1013 l 357 1013 l 357 0 "},"Ī":{"ha":432,"x_min":0,"x_max":0,"o":"m -25 1310 l 457 1310 l 457 1121 l -25 1121 m 75 0 l 75 1013 l 357 1013 l 357 0 "},"Į":{"ha":432,"x_min":0,"x_max":0,"o":"m 281 -189 b 367 -174 308 -189 340 -183 l 367 -306 b 239 -328 336 -319 286 -328 b 36 -151 117 -328 36 -257 b 113 0 36 -92 64 -39 l 75 0 l 75 1013 l 357 1013 l 357 0 l 328 0 b 189 -118 233 -22 189 -68 b 281 -189 189 -162 222 -189 "},"J":{"ha":601,"x_min":0,"x_max":0,"o":"m 532 329 b 167 -12 532 93 399 -12 b 17 0 117 -12 57 -8 l 17 224 b 103 217 38 219 74 217 b 251 367 232 217 251 294 l 251 1013 l 532 1013 l 532 329 "},"Ĵ":{"ha":601,"x_min":0,"x_max":0,"o":"m 308 1299 l 476 1299 l 704 1064 l 478 1064 l 392 1167 l 306 1064 l 79 1064 m 532 329 b 167 -12 532 93 399 -12 b 17 0 117 -12 57 -8 l 17 224 b 103 217 38 219 74 217 b 251 367 232 217 251 294 l 251 1013 l 532 1013 l 532 329 "},"K":{"ha":1068,"x_min":0,"x_max":0,"o":"m 75 1013 l 357 1013 l 357 590 l 703 1013 l 1050 1013 l 669 576 l 1064 0 l 718 0 l 469 375 l 357 246 l 357 0 l 75 0 "},"Ķ":{"ha":1068,"x_min":0,"x_max":0,"o":"m 75 1013 l 357 1013 l 357 590 l 703 1013 l 1050 1013 l 669 576 l 1064 0 l 718 0 l 469 375 l 357 246 l 357 0 l 75 0 m 469 -376 b 550 -307 531 -376 550 -349 l 550 -272 l 456 -272 l 456 -68 l 661 -68 l 661 -287 b 469 -449 661 -403 592 -449 "},"L":{"ha":815,"x_min":0,"x_max":0,"o":"m 75 1013 l 357 1013 l 357 249 l 774 249 l 774 0 l 75 0 "},"Ĺ":{"ha":815,"x_min":0,"x_max":0,"o":"m 535 1299 l 300 1064 l 133 1064 l 263 1299 m 75 1013 l 357 1013 l 357 249 l 774 249 l 774 0 l 75 0 "},"Ľ":{"ha":807,"x_min":0,"x_max":0,"o":"m 64 1013 l 346 1013 l 346 249 l 763 249 l 763 0 l 64 0 m 404 732 b 515 821 486 732 515 767 l 515 824 l 425 824 l 425 1011 l 613 1011 l 613 831 b 404 664 613 724 529 664 "},"Ļ":{"ha":815,"x_min":0,"x_max":0,"o":"m 75 1013 l 357 1013 l 357 249 l 774 249 l 774 0 l 75 0 m 329 -376 b 410 -307 390 -376 410 -349 l 410 -272 l 315 -272 l 315 -68 l 521 -68 l 521 -287 b 329 -449 521 -403 451 -449 "},"Ŀ":{"ha":806,"x_min":0,"x_max":0,"o":"m 75 1013 l 357 1013 l 357 249 l 774 249 l 774 0 l 75 0 m 428 529 b 553 657 428 600 485 657 b 679 529 622 657 679 600 b 553 404 679 461 622 404 b 428 529 485 404 428 460 "},"Ł":{"ha":814,"x_min":0,"x_max":0,"o":"m 772 249 l 772 0 l 74 0 l 74 357 l 3 333 l 3 556 l 74 579 l 74 1013 l 356 1013 l 356 676 l 589 756 l 589 533 l 356 454 l 356 249 "},"M":{"ha":1299,"x_min":0,"x_max":0,"o":"m 75 1013 l 421 1013 l 646 544 l 657 544 l 878 1013 l 1224 1013 l 1224 0 l 951 0 l 951 354 l 965 622 l 956 622 l 651 14 l 347 622 l 335 622 l 350 351 l 350 0 l 75 0 "},"N":{"ha":1128,"x_min":0,"x_max":0,"o":"m 75 1013 l 396 1013 l 778 406 l 789 406 l 774 686 l 774 1013 l 1053 1013 l 1053 0 l 732 0 l 353 599 l 342 599 l 357 328 l 357 0 l 75 0 "},"Ń":{"ha":1128,"x_min":0,"x_max":0,"o":"m 864 1299 l 629 1064 l 463 1064 l 592 1299 m 75 1013 l 396 1013 l 778 406 l 789 406 l 774 686 l 774 1013 l 1053 1013 l 1053 0 l 732 0 l 353 599 l 342 599 l 357 328 l 357 0 l 75 0 "},"Ň":{"ha":1128,"x_min":0,"x_max":0,"o":"m 458 1299 l 544 1196 l 631 1299 l 857 1299 l 629 1064 l 461 1064 l 232 1299 m 75 1013 l 396 1013 l 778 406 l 789 406 l 774 686 l 774 1013 l 1053 1013 l 1053 0 l 732 0 l 353 599 l 342 599 l 357 328 l 357 0 l 75 0 "},"Ņ":{"ha":1128,"x_min":0,"x_max":0,"o":"m 75 1013 l 396 1013 l 778 406 l 789 406 l 774 686 l 774 1013 l 1053 1013 l 1053 0 l 732 0 l 353 599 l 342 599 l 357 328 l 357 0 l 75 0 m 457 -376 b 538 -307 518 -376 538 -349 l 538 -272 l 443 -272 l 443 -68 l 649 -68 l 649 -287 b 457 -449 649 -403 579 -449 "},"Ŋ":{"ha":1128,"x_min":0,"x_max":0,"o":"m 1053 1013 l 1053 0 b 753 -281 1053 -203 932 -281 b 643 -267 710 -281 683 -278 l 643 -111 b 683 -114 654 -112 668 -114 b 772 -25 743 -114 772 -72 l 772 0 l 732 0 l 353 599 l 342 599 l 357 328 l 357 0 l 75 0 l 75 1013 l 396 1013 l 778 406 l 789 406 l 774 686 l 774 1013 "},"Ñ":{"ha":1128,"x_min":0,"x_max":0,"o":"m 786 1219 b 628 1085 761 1126 700 1083 b 468 1133 557 1085 528 1133 b 385 1085 436 1133 408 1118 l 303 1158 b 467 1292 332 1250 393 1292 b 629 1244 543 1290 564 1244 b 707 1293 664 1244 688 1264 l 786 1219 m 75 1013 l 396 1013 l 778 406 l 789 406 l 774 686 l 774 1013 l 1053 1013 l 1053 0 l 732 0 l 353 599 l 342 599 l 357 328 l 357 0 l 75 0 "},"O":{"ha":1143,"x_min":0,"x_max":0,"o":"m 32 507 b 571 1025 32 839 247 1025 b 1111 507 917 1025 1111 818 b 571 -14 1111 174 894 -14 b 32 507 226 -14 32 194 m 329 507 b 571 238 329 331 426 238 b 815 507 731 238 815 349 b 571 774 815 676 718 774 b 329 507 414 774 329 664 "},"Ó":{"ha":1143,"x_min":0,"x_max":0,"o":"m 889 1299 l 654 1064 l 488 1064 l 617 1299 m 32 507 b 571 1025 32 839 247 1025 b 1111 507 917 1025 1111 818 b 571 -14 1111 174 894 -14 b 32 507 226 -14 32 194 m 329 507 b 571 238 329 331 426 238 b 815 507 731 238 815 349 b 571 774 815 676 718 774 b 329 507 414 774 329 664 "},"Ô":{"ha":1143,"x_min":0,"x_max":0,"o":"m 488 1299 l 656 1299 l 883 1064 l 657 1064 l 571 1167 l 485 1064 l 258 1064 m 32 507 b 571 1025 32 839 247 1025 b 1111 507 917 1025 1111 818 b 571 -14 1111 174 894 -14 b 32 507 226 -14 32 194 m 329 507 b 571 238 329 331 426 238 b 815 507 731 238 815 349 b 571 774 815 676 718 774 b 329 507 414 774 329 664 "},"Ö":{"ha":1143,"x_min":0,"x_max":0,"o":"m 304 1299 l 529 1299 l 529 1064 l 304 1064 m 611 1299 l 836 1299 l 836 1064 l 611 1064 m 32 507 b 571 1025 32 839 247 1025 b 1111 507 917 1025 1111 818 b 571 -14 1111 174 894 -14 b 32 507 226 -14 32 194 m 329 507 b 571 238 329 331 426 238 b 815 507 731 238 815 349 b 571 774 815 676 718 774 b 329 507 414 774 329 664 "},"Ò":{"ha":1143,"x_min":0,"x_max":0,"o":"m 654 1064 l 488 1064 l 253 1299 l 525 1299 m 32 507 b 571 1025 32 839 247 1025 b 1111 507 917 1025 1111 818 b 571 -14 1111 174 894 -14 b 32 507 226 -14 32 194 m 329 507 b 571 238 329 331 426 238 b 815 507 731 238 815 349 b 571 774 815 676 718 774 b 329 507 414 774 329 664 "},"Ő":{"ha":1143,"x_min":0,"x_max":0,"o":"m 689 1299 l 521 1064 l 363 1064 l 444 1299 m 1078 1299 l 803 1064 l 628 1064 l 806 1299 m 32 507 b 571 1025 32 839 247 1025 b 1111 507 917 1025 1111 818 b 571 -14 1111 174 894 -14 b 32 507 226 -14 32 194 m 329 507 b 571 238 329 331 426 238 b 815 507 731 238 815 349 b 571 774 815 676 718 774 b 329 507 414 774 329 664 "},"Ō":{"ha":1143,"x_min":0,"x_max":0,"o":"m 329 1310 l 811 1310 l 811 1121 l 329 1121 m 32 507 b 571 1025 32 839 247 1025 b 1111 507 917 1025 1111 818 b 571 -14 1111 174 894 -14 b 32 507 226 -14 32 194 m 329 507 b 571 238 329 331 426 238 b 815 507 731 238 815 349 b 571 774 815 676 718 774 b 329 507 414 774 329 664 "},"Ø":{"ha":1150,"x_min":0,"x_max":0,"o":"m 1049 783 b 1114 507 1092 706 1114 613 b 574 -14 1114 174 897 -14 b 149 158 383 -14 240 49 l 57 94 l 6 164 l 100 229 b 35 507 57 307 35 401 b 574 1025 35 839 250 1025 b 1000 854 764 1025 908 963 l 1092 918 l 1143 849 m 332 507 b 346 400 332 467 338 432 l 763 690 b 574 774 721 744 654 774 b 332 507 417 774 332 664 m 818 507 b 803 613 818 546 813 582 l 385 322 b 574 238 428 267 493 238 b 818 507 733 238 818 349 "},"Ǿ":{"ha":1150,"x_min":0,"x_max":0,"o":"m 658 1064 l 492 1064 l 621 1299 l 893 1299 m 1049 783 b 1114 507 1092 706 1114 613 b 574 -14 1114 174 897 -14 b 149 158 383 -14 240 49 l 57 94 l 6 164 l 100 229 b 35 507 57 307 35 401 b 574 1025 35 839 250 1025 b 1000 854 764 1025 908 963 l 1092 918 l 1143 849 m 332 507 b 346 400 332 467 338 432 l 763 690 b 574 774 721 744 654 774 b 332 507 417 774 332 664 m 818 507 b 803 613 818 546 813 582 l 385 322 b 574 238 428 267 493 238 b 818 507 733 238 818 349 "},"Õ":{"ha":1143,"x_min":0,"x_max":0,"o":"m 811 1219 b 653 1085 786 1126 725 1083 b 493 1133 582 1085 553 1133 b 410 1085 461 1133 433 1118 l 328 1158 b 492 1292 357 1250 418 1292 b 654 1244 568 1290 589 1244 b 732 1293 689 1244 713 1264 l 811 1219 m 32 507 b 571 1025 32 839 247 1025 b 1111 507 917 1025 1111 818 b 571 -14 1111 174 894 -14 b 32 507 226 -14 32 194 m 329 507 b 571 238 329 331 426 238 b 815 507 731 238 815 349 b 571 774 815 676 718 774 b 329 507 414 774 329 664 "},"Œ":{"ha":1344,"x_min":0,"x_max":0,"o":"m 32 507 b 549 1011 32 806 239 1011 l 1296 1011 l 1296 774 l 868 774 l 868 614 l 1163 614 l 1163 392 l 868 392 l 868 239 l 1296 239 l 1296 1 l 550 1 b 32 507 240 1 32 208 m 329 507 b 550 239 329 350 417 239 l 588 239 l 588 771 l 550 771 b 329 507 417 771 329 661 "},"P":{"ha":969,"x_min":0,"x_max":0,"o":"m 550 1013 b 949 654 790 1013 949 869 b 550 294 949 440 789 294 l 357 294 l 357 0 l 75 0 l 75 1013 l 550 1013 m 511 533 b 650 650 614 533 650 582 b 511 764 650 736 589 764 l 357 764 l 357 533 l 511 533 "},"Þ":{"ha":939,"x_min":0,"x_max":0,"o":"m 57 1042 l 339 1042 l 339 879 l 525 879 b 918 525 790 879 918 738 b 528 164 918 279 760 164 l 339 164 l 339 0 l 57 0 m 483 401 b 617 519 574 401 617 449 b 483 632 617 596 563 632 l 339 632 l 339 401 "},"Q":{"ha":1143,"x_min":0,"x_max":0,"o":"m 1111 507 b 821 32 1111 269 1001 107 l 1001 0 l 1001 -246 l 956 -246 l 544 -14 b 32 507 217 -3 32 203 b 571 1025 32 839 247 1025 b 1111 507 917 1025 1111 818 m 329 507 b 571 238 329 331 426 238 b 815 507 731 238 815 349 b 571 774 815 676 718 774 b 329 507 414 774 329 664 "},"R":{"ha":1078,"x_min":0,"x_max":0,"o":"m 75 1013 l 669 1013 b 1010 713 888 1013 1010 893 b 826 454 1010 589 936 486 l 826 443 b 996 239 940 424 996 363 l 996 128 b 1014 0 996 86 996 42 l 724 0 b 707 125 713 24 707 64 l 707 201 b 571 335 707 278 683 335 l 357 335 l 357 0 l 75 0 m 576 558 b 710 667 665 558 710 601 b 576 774 710 758 642 774 l 357 774 l 357 558 "},"Ŕ":{"ha":1078,"x_min":0,"x_max":0,"o":"m 896 1299 l 661 1064 l 494 1064 l 624 1299 m 75 1013 l 669 1013 b 1010 713 888 1013 1010 893 b 826 454 1010 589 936 486 l 826 443 b 996 239 940 424 996 363 l 996 128 b 1014 0 996 86 996 42 l 724 0 b 707 125 713 24 707 64 l 707 201 b 571 335 707 278 683 335 l 357 335 l 357 0 l 75 0 m 576 558 b 710 667 665 558 710 601 b 576 774 710 758 642 774 l 357 774 l 357 558 "},"Ř":{"ha":1078,"x_min":0,"x_max":0,"o":"m 490 1299 l 576 1196 l 663 1299 l 889 1299 l 661 1064 l 493 1064 l 264 1299 m 75 1013 l 669 1013 b 1010 713 888 1013 1010 893 b 826 454 1010 589 936 486 l 826 443 b 996 239 940 424 996 363 l 996 128 b 1014 0 996 86 996 42 l 724 0 b 707 125 713 24 707 64 l 707 201 b 571 335 707 278 683 335 l 357 335 l 357 0 l 75 0 m 576 558 b 710 667 665 558 710 601 b 576 774 710 758 642 774 l 357 774 l 357 558 "},"Ŗ":{"ha":1078,"x_min":0,"x_max":0,"o":"m 75 1013 l 669 1013 b 1010 713 888 1013 1010 893 b 826 454 1010 589 936 486 l 826 443 b 996 239 940 424 996 363 l 996 128 b 1014 0 996 86 996 42 l 724 0 b 707 125 713 24 707 64 l 707 201 b 571 335 707 278 683 335 l 357 335 l 357 0 l 75 0 m 576 558 b 710 667 665 558 710 601 b 576 774 710 758 642 774 l 357 774 l 357 558 m 483 -376 b 564 -307 544 -376 564 -349 l 564 -272 l 469 -272 l 469 -68 l 675 -68 l 675 -287 b 483 -449 675 -403 606 -449 "},"S":{"ha":971,"x_min":0,"x_max":0,"o":"m 321 321 b 489 208 321 250 385 208 b 624 289 575 208 624 236 b 518 369 624 357 543 365 l 403 389 b 47 694 283 408 47 454 b 481 1025 47 894 211 1025 b 901 719 733 1025 901 903 l 613 719 b 469 808 608 786 542 808 b 346 731 392 808 346 783 b 469 653 346 678 413 663 l 625 628 b 938 332 847 592 938 485 b 478 -14 938 115 756 -14 b 29 321 210 -14 31 119 l 321 321 "},"Ś":{"ha":971,"x_min":0,"x_max":0,"o":"m 793 1299 l 558 1064 l 392 1064 l 521 1299 m 321 321 b 489 208 321 250 385 208 b 624 289 575 208 624 236 b 518 369 624 357 543 365 l 403 389 b 47 694 283 408 47 454 b 481 1025 47 894 211 1025 b 901 719 733 1025 901 903 l 613 719 b 469 808 608 786 542 808 b 346 731 392 808 346 783 b 469 653 346 678 413 663 l 625 628 b 938 332 847 592 938 485 b 478 -14 938 115 756 -14 b 29 321 210 -14 31 119 l 321 321 "},"Š":{"ha":971,"x_min":0,"x_max":0,"o":"m 388 1299 l 474 1196 l 560 1299 l 786 1299 l 558 1064 l 390 1064 l 161 1299 m 321 321 b 489 208 321 250 385 208 b 624 289 575 208 624 236 b 518 369 624 357 543 365 l 403 389 b 47 694 283 408 47 454 b 481 1025 47 894 211 1025 b 901 719 733 1025 901 903 l 613 719 b 469 808 608 786 542 808 b 346 731 392 808 346 783 b 469 653 346 678 413 663 l 625 628 b 938 332 847 592 938 485 b 478 -14 938 115 756 -14 b 29 321 210 -14 31 119 l 321 321 "},"Ş":{"ha":971,"x_min":0,"x_max":0,"o":"m 938 332 b 526 -12 938 128 776 1 l 492 -56 l 496 -56 b 640 -187 582 -56 640 -103 b 439 -340 640 -290 542 -340 b 304 -310 392 -340 344 -331 l 304 -189 b 404 -219 338 -211 372 -219 b 478 -162 454 -219 478 -196 b 414 -112 478 -132 453 -112 b 360 -125 396 -112 376 -117 l 360 -65 l 400 -10 b 29 321 176 14 31 139 l 321 321 b 489 208 321 250 385 208 b 624 289 575 208 624 236 b 518 369 624 357 543 365 l 403 389 b 47 694 283 408 47 454 b 481 1025 47 894 211 1025 b 901 719 733 1025 901 903 l 613 719 b 469 808 608 786 542 808 b 346 731 392 808 346 783 b 469 653 346 678 413 663 l 625 628 b 938 332 847 592 938 485 "},"Ș":{"ha":971,"x_min":0,"x_max":0,"o":"m 321 321 b 489 208 321 250 385 208 b 624 289 575 208 624 236 b 518 369 624 357 543 365 l 403 389 b 47 694 283 408 47 454 b 481 1025 47 894 211 1025 b 901 719 733 1025 901 903 l 613 719 b 469 808 608 786 542 808 b 346 731 392 808 346 783 b 469 653 346 678 413 663 l 625 628 b 938 332 847 592 938 485 b 478 -14 938 115 756 -14 b 29 321 210 -14 31 119 l 321 321 m 404 -376 b 485 -307 465 -376 485 -349 l 485 -272 l 390 -272 l 390 -68 l 596 -68 l 596 -287 b 404 -449 596 -403 526 -449 "},"Ə":{"ha":1031,"x_min":0,"x_max":0,"o":"m 515 1026 b 999 517 815 1026 999 843 b 508 -14 999 196 818 -14 b 32 488 213 -14 32 176 b 40 582 32 526 35 564 l 699 582 b 504 781 699 717 624 781 b 324 668 408 781 347 738 l 40 668 b 515 1026 89 899 267 1026 m 508 224 b 694 371 611 224 676 279 l 336 371 b 508 224 346 249 433 224 "},"T":{"ha":843,"x_min":0,"x_max":0,"o":"m 836 771 l 558 771 l 558 0 l 276 0 l 276 771 l 7 771 l 7 1013 l 836 1013 "},"Ŧ":{"ha":843,"x_min":0,"x_max":0,"o":"m 558 771 l 558 601 l 731 601 l 731 385 l 558 385 l 558 0 l 276 0 l 276 385 l 128 385 l 128 601 l 276 601 l 276 771 l 7 771 l 7 1013 l 836 1013 l 836 771 "},"Ť":{"ha":843,"x_min":0,"x_max":0,"o":"m 338 1064 l 108 1299 l 335 1299 l 421 1196 l 507 1299 l 733 1299 l 506 1064 m 836 771 l 558 771 l 558 0 l 276 0 l 276 771 l 7 771 l 7 1013 l 836 1013 "},"Ţ":{"ha":843,"x_min":0,"x_max":0,"o":"m 514 -78 l 518 -78 b 663 -210 604 -78 663 -125 b 461 -362 663 -312 564 -362 b 326 -332 414 -362 367 -353 l 326 -211 b 426 -242 360 -233 394 -242 b 500 -185 476 -242 500 -218 b 436 -135 500 -154 475 -135 b 382 -147 418 -135 399 -139 l 382 -87 l 446 0 l 276 0 l 276 771 l 7 771 l 7 1013 l 836 1013 l 836 771 l 558 771 l 558 -22 "},"Ț":{"ha":843,"x_min":0,"x_max":0,"o":"m 836 771 l 558 771 l 558 0 l 276 0 l 276 771 l 7 771 l 7 1013 l 836 1013 m 315 -68 l 521 -68 l 521 -287 b 329 -449 521 -403 451 -449 l 329 -376 b 410 -307 390 -376 410 -349 l 410 -272 l 315 -272 "},"U":{"ha":1071,"x_min":0,"x_max":0,"o":"m 67 1013 l 347 1013 l 347 396 b 535 235 347 293 417 235 b 721 396 654 235 721 293 l 721 1013 l 1001 1013 l 1001 394 b 532 -14 1001 150 867 -14 b 67 394 253 -14 67 100 "},"Ú":{"ha":1071,"x_min":0,"x_max":0,"o":"m 851 1299 l 617 1064 l 450 1064 l 579 1299 m 67 1013 l 347 1013 l 347 396 b 535 235 347 293 417 235 b 721 396 654 235 721 293 l 721 1013 l 1001 1013 l 1001 394 b 532 -14 1001 150 867 -14 b 67 394 253 -14 67 100 "},"Û":{"ha":1071,"x_min":0,"x_max":0,"o":"m 450 1299 l 618 1299 l 846 1064 l 619 1064 l 533 1167 l 447 1064 l 221 1064 m 67 1013 l 347 1013 l 347 396 b 535 235 347 293 417 235 b 721 396 654 235 721 293 l 721 1013 l 1001 1013 l 1001 394 b 532 -14 1001 150 867 -14 b 67 394 253 -14 67 100 "},"Ü":{"ha":1071,"x_min":0,"x_max":0,"o":"m 267 1299 l 492 1299 l 492 1064 l 267 1064 m 574 1299 l 799 1299 l 799 1064 l 574 1064 m 67 1013 l 347 1013 l 347 396 b 535 235 347 293 417 235 b 721 396 654 235 721 293 l 721 1013 l 1001 1013 l 1001 394 b 532 -14 1001 150 867 -14 b 67 394 253 -14 67 100 "},"Ù":{"ha":1071,"x_min":0,"x_max":0,"o":"m 617 1064 l 450 1064 l 215 1299 l 488 1299 m 67 1013 l 347 1013 l 347 396 b 535 235 347 293 417 235 b 721 396 654 235 721 293 l 721 1013 l 1001 1013 l 1001 394 b 532 -14 1001 150 867 -14 b 67 394 253 -14 67 100 "},"Ű":{"ha":1071,"x_min":0,"x_max":0,"o":"m 651 1299 l 483 1064 l 325 1064 l 407 1299 m 1040 1299 l 765 1064 l 590 1064 l 768 1299 m 67 1013 l 347 1013 l 347 396 b 535 235 347 293 417 235 b 721 396 654 235 721 293 l 721 1013 l 1001 1013 l 1001 394 b 532 -14 1001 150 867 -14 b 67 394 253 -14 67 100 "},"Ū":{"ha":1071,"x_min":0,"x_max":0,"o":"m 292 1310 l 774 1310 l 774 1121 l 292 1121 m 67 1013 l 347 1013 l 347 396 b 535 235 347 293 417 235 b 721 396 654 235 721 293 l 721 1013 l 1001 1013 l 1001 394 b 532 -14 1001 150 867 -14 b 67 394 253 -14 67 100 "},"Ų":{"ha":1071,"x_min":0,"x_max":0,"o":"m 1001 1013 l 1001 394 b 660 -4 1001 183 901 33 b 539 -118 578 -28 539 -71 b 631 -189 539 -162 572 -189 b 717 -174 658 -189 690 -183 l 717 -306 b 589 -328 686 -319 636 -328 b 386 -151 467 -328 386 -257 b 450 -10 386 -97 410 -49 b 67 394 217 11 67 129 l 67 1013 l 347 1013 l 347 396 b 535 235 347 293 417 235 b 721 396 654 235 721 293 l 721 1013 "},"Ů":{"ha":1071,"x_min":0,"x_max":0,"o":"m 688 1213 b 533 1069 688 1128 624 1069 b 378 1213 443 1069 378 1128 b 533 1356 378 1299 443 1356 b 688 1213 624 1356 688 1299 m 581 1213 b 533 1260 581 1242 561 1260 b 486 1213 506 1260 486 1242 b 533 1167 486 1186 506 1167 b 581 1213 561 1167 581 1186 m 67 1013 l 347 1013 l 347 396 b 535 235 347 293 417 235 b 721 396 654 235 721 293 l 721 1013 l 1001 1013 l 1001 394 b 532 -14 1001 150 867 -14 b 67 394 253 -14 67 100 "},"V":{"ha":1096,"x_min":0,"x_max":0,"o":"m 3 1013 l 318 1013 l 542 288 l 554 288 l 779 1013 l 1093 1013 l 725 0 l 372 0 "},"W":{"ha":1478,"x_min":0,"x_max":0,"o":"m 318 1013 l 396 556 l 432 307 l 444 307 l 569 1013 l 913 1013 l 1042 304 l 1053 304 l 1085 551 l 1160 1013 l 1471 1013 l 1254 0 l 871 0 l 746 625 l 735 625 l 607 0 l 222 0 l 7 1013 "},"Ẃ":{"ha":1478,"x_min":0,"x_max":0,"o":"m 1082 1299 l 847 1064 l 681 1064 l 810 1299 m 318 1013 l 396 556 l 432 307 l 444 307 l 569 1013 l 913 1013 l 1042 304 l 1053 304 l 1085 551 l 1160 1013 l 1471 1013 l 1254 0 l 871 0 l 746 625 l 735 625 l 607 0 l 222 0 l 7 1013 "},"Ŵ":{"ha":1478,"x_min":0,"x_max":0,"o":"m 681 1299 l 849 1299 l 1076 1064 l 850 1064 l 764 1167 l 678 1064 l 451 1064 m 318 1013 l 396 556 l 432 307 l 444 307 l 569 1013 l 913 1013 l 1042 304 l 1053 304 l 1085 551 l 1160 1013 l 1471 1013 l 1254 0 l 871 0 l 746 625 l 735 625 l 607 0 l 222 0 l 7 1013 "},"Ẅ":{"ha":1478,"x_min":0,"x_max":0,"o":"m 497 1299 l 722 1299 l 722 1064 l 497 1064 m 804 1299 l 1029 1299 l 1029 1064 l 804 1064 m 318 1013 l 396 556 l 432 307 l 444 307 l 569 1013 l 913 1013 l 1042 304 l 1053 304 l 1085 551 l 1160 1013 l 1471 1013 l 1254 0 l 871 0 l 746 625 l 735 625 l 607 0 l 222 0 l 7 1013 "},"Ẁ":{"ha":1478,"x_min":0,"x_max":0,"o":"m 847 1064 l 681 1064 l 446 1299 l 718 1299 m 318 1013 l 396 556 l 432 307 l 444 307 l 569 1013 l 913 1013 l 1042 304 l 1053 304 l 1085 551 l 1160 1013 l 1471 1013 l 1254 0 l 871 0 l 746 625 l 735 625 l 607 0 l 222 0 l 7 1013 "},"X":{"ha":1072,"x_min":0,"x_max":0,"o":"m 313 503 l 36 1013 l 374 1013 l 474 811 l 540 679 l 551 679 l 618 811 l 718 1013 l 1056 1013 l 779 504 l 1058 0 l 721 0 l 642 153 l 551 329 l 540 329 l 443 150 l 363 0 l 28 0 "},"Y":{"ha":1071,"x_min":0,"x_max":0,"o":"m 321 1013 l 529 640 l 540 640 l 753 1013 l 1071 1013 l 676 374 l 676 0 l 394 0 l 394 374 l 0 1013 "},"Ý":{"ha":1071,"x_min":0,"x_max":0,"o":"m 853 1299 l 618 1064 l 451 1064 l 581 1299 m 321 1013 l 529 640 l 540 640 l 753 1013 l 1071 1013 l 676 374 l 676 0 l 394 0 l 394 374 l 0 1013 "},"Ŷ":{"ha":1071,"x_min":0,"x_max":0,"o":"m 451 1299 l 619 1299 l 847 1064 l 621 1064 l 535 1167 l 449 1064 l 222 1064 m 321 1013 l 529 640 l 540 640 l 753 1013 l 1071 1013 l 676 374 l 676 0 l 394 0 l 394 374 l 0 1013 "},"Ÿ":{"ha":1071,"x_min":0,"x_max":0,"o":"m 268 1299 l 493 1299 l 493 1064 l 268 1064 m 575 1299 l 800 1299 l 800 1064 l 575 1064 m 321 1013 l 529 640 l 540 640 l 753 1013 l 1071 1013 l 676 374 l 676 0 l 394 0 l 394 374 l 0 1013 "},"Ỳ":{"ha":1071,"x_min":0,"x_max":0,"o":"m 618 1064 l 451 1064 l 217 1299 l 489 1299 m 321 1013 l 529 640 l 540 640 l 753 1013 l 1071 1013 l 676 374 l 676 0 l 394 0 l 394 374 l 0 1013 "},"Z":{"ha":888,"x_min":0,"x_max":0,"o":"m 856 239 l 856 0 l 31 0 l 31 218 l 488 772 l 49 772 l 49 1013 l 850 1013 l 850 797 l 388 239 "},"Ź":{"ha":888,"x_min":0,"x_max":0,"o":"m 479 1064 l 313 1064 l 442 1299 l 714 1299 m 856 239 l 856 0 l 31 0 l 31 218 l 488 772 l 49 772 l 49 1013 l 850 1013 l 850 797 l 388 239 "},"Ž":{"ha":888,"x_min":0,"x_max":0,"o":"m 311 1064 l 82 1299 l 308 1299 l 394 1196 l 481 1299 l 707 1299 l 479 1064 m 856 239 l 856 0 l 31 0 l 31 218 l 488 772 l 49 772 l 49 1013 l 850 1013 l 850 797 l 388 239 "},"Ż":{"ha":888,"x_min":0,"x_max":0,"o":"m 528 1064 l 263 1064 l 263 1299 l 528 1299 m 856 239 l 856 0 l 31 0 l 31 218 l 488 772 l 49 772 l 49 1013 l 850 1013 l 850 797 l 388 239 "},"a":{"ha":844,"x_min":0,"x_max":0,"o":"m 14 211 b 317 456 14 368 128 442 l 500 469 l 500 500 b 407 567 500 547 463 567 b 307 490 343 567 307 536 l 60 490 b 418 769 56 658 199 769 b 765 522 642 769 765 692 l 765 221 b 800 179 765 193 778 179 b 822 182 807 179 818 181 l 822 3 b 693 -14 778 -7 732 -14 b 514 108 581 -14 524 35 l 503 108 b 268 -14 471 35 376 -14 b 14 211 115 -14 14 76 m 281 242 b 371 181 281 200 317 181 b 500 294 449 181 500 226 l 500 319 l 369 306 b 281 242 307 299 281 281 "},"á":{"ha":844,"x_min":0,"x_max":0,"o":"m 736 1042 l 501 807 l 335 807 l 464 1042 m 14 211 b 317 456 14 368 128 442 l 500 469 l 500 500 b 407 567 500 547 463 567 b 307 490 343 567 307 536 l 60 490 b 418 769 56 658 199 769 b 765 522 642 769 765 692 l 765 221 b 800 179 765 193 778 179 b 822 182 807 179 818 181 l 822 3 b 693 -14 778 -7 732 -14 b 514 108 581 -14 524 35 l 503 108 b 268 -14 471 35 376 -14 b 14 211 115 -14 14 76 m 281 242 b 371 181 281 200 317 181 b 500 294 449 181 500 226 l 500 319 l 369 306 b 281 242 307 299 281 281 "},"ă":{"ha":844,"x_min":0,"x_max":0,"o":"m 664 1042 b 418 807 672 897 569 807 b 175 1042 267 807 165 897 l 329 1042 b 418 949 329 972 368 949 b 510 1042 481 949 510 983 l 664 1042 m 14 211 b 317 456 14 368 128 442 l 500 469 l 500 500 b 407 567 500 547 463 567 b 307 490 343 567 307 536 l 60 490 b 418 769 56 658 199 769 b 765 522 642 769 765 692 l 765 221 b 800 179 765 193 778 179 b 822 182 807 179 818 181 l 822 3 b 693 -14 778 -7 732 -14 b 514 108 581 -14 524 35 l 503 108 b 268 -14 471 35 376 -14 b 14 211 115 -14 14 76 m 281 242 b 371 181 281 200 317 181 b 500 294 449 181 500 226 l 500 319 l 369 306 b 281 242 307 299 281 281 "},"â":{"ha":844,"x_min":0,"x_max":0,"o":"m 335 1042 l 503 1042 l 731 807 l 504 807 l 418 910 l 332 807 l 106 807 m 14 211 b 317 456 14 368 128 442 l 500 469 l 500 500 b 407 567 500 547 463 567 b 307 490 343 567 307 536 l 60 490 b 418 769 56 658 199 769 b 765 522 642 769 765 692 l 765 221 b 800 179 765 193 778 179 b 822 182 807 179 818 181 l 822 3 b 693 -14 778 -7 732 -14 b 514 108 581 -14 524 35 l 503 108 b 268 -14 471 35 376 -14 b 14 211 115 -14 14 76 m 281 242 b 371 181 281 200 317 181 b 500 294 449 181 500 226 l 500 319 l 369 306 b 281 242 307 299 281 281 "},"ä":{"ha":844,"x_min":0,"x_max":0,"o":"m 151 1042 l 376 1042 l 376 807 l 151 807 m 458 1042 l 683 1042 l 683 807 l 458 807 m 14 211 b 317 456 14 368 128 442 l 500 469 l 500 500 b 407 567 500 547 463 567 b 307 490 343 567 307 536 l 60 490 b 418 769 56 658 199 769 b 765 522 642 769 765 692 l 765 221 b 800 179 765 193 778 179 b 822 182 807 179 818 181 l 822 3 b 693 -14 778 -7 732 -14 b 514 108 581 -14 524 35 l 503 108 b 268 -14 471 35 376 -14 b 14 211 115 -14 14 76 m 281 242 b 371 181 281 200 317 181 b 500 294 449 181 500 226 l 500 319 l 369 306 b 281 242 307 299 281 281 "},"à":{"ha":844,"x_min":0,"x_max":0,"o":"m 501 807 l 335 807 l 100 1042 l 372 1042 m 14 211 b 317 456 14 368 128 442 l 500 469 l 500 500 b 407 567 500 547 463 567 b 307 490 343 567 307 536 l 60 490 b 418 769 56 658 199 769 b 765 522 642 769 765 692 l 765 221 b 800 179 765 193 778 179 b 822 182 807 179 818 181 l 822 3 b 693 -14 778 -7 732 -14 b 514 108 581 -14 524 35 l 503 108 b 268 -14 471 35 376 -14 b 14 211 115 -14 14 76 m 281 242 b 371 181 281 200 317 181 b 500 294 449 181 500 226 l 500 319 l 369 306 b 281 242 307 299 281 281 "},"ā":{"ha":844,"x_min":0,"x_max":0,"o":"m 176 1053 l 658 1053 l 658 864 l 176 864 m 14 211 b 317 456 14 368 128 442 l 500 469 l 500 500 b 407 567 500 547 463 567 b 307 490 343 567 307 536 l 60 490 b 418 769 56 658 199 769 b 765 522 642 769 765 692 l 765 221 b 800 179 765 193 778 179 b 822 182 807 179 818 181 l 822 3 b 693 -14 778 -7 732 -14 b 514 108 581 -14 524 35 l 503 108 b 268 -14 471 35 376 -14 b 14 211 115 -14 14 76 m 281 242 b 371 181 281 200 317 181 b 500 294 449 181 500 226 l 500 319 l 369 306 b 281 242 307 299 281 281 "},"ą":{"ha":844,"x_min":0,"x_max":0,"o":"m 775 -187 b 861 -172 803 -187 835 -182 l 861 -304 b 733 -326 831 -318 781 -326 b 531 -150 611 -326 531 -256 b 604 0 531 -92 557 -40 b 514 108 550 18 521 57 l 503 108 b 268 -14 471 35 376 -14 b 14 211 115 -14 14 76 b 317 456 14 368 128 442 l 500 469 l 500 500 b 407 567 500 547 463 567 b 307 490 343 567 307 536 l 60 490 b 418 769 56 658 199 769 b 765 522 642 769 765 692 l 765 221 b 800 179 765 193 778 179 b 822 182 807 179 818 181 l 822 3 l 821 3 l 822 1 b 683 -117 728 -21 683 -67 b 775 -187 683 -161 717 -187 m 500 319 l 369 306 b 281 242 307 299 281 281 b 371 181 281 200 317 181 b 500 294 449 181 500 226 "},"å":{"ha":844,"x_min":0,"x_max":0,"o":"m 572 956 b 418 813 572 871 508 813 b 263 956 328 813 263 871 b 418 1099 263 1042 328 1099 b 572 956 508 1099 572 1042 m 465 956 b 418 1003 465 985 446 1003 b 371 956 390 1003 371 985 b 418 910 371 929 390 910 b 465 956 446 910 465 929 m 14 211 b 317 456 14 368 128 442 l 500 469 l 500 500 b 407 567 500 547 463 567 b 307 490 343 567 307 536 l 60 490 b 418 769 56 658 199 769 b 765 522 642 769 765 692 l 765 221 b 800 179 765 193 778 179 b 822 182 807 179 818 181 l 822 3 b 693 -14 778 -7 732 -14 b 514 108 581 -14 524 35 l 503 108 b 268 -14 471 35 376 -14 b 14 211 115 -14 14 76 m 281 242 b 371 181 281 200 317 181 b 500 294 449 181 500 226 l 500 319 l 369 306 b 281 242 307 299 281 281 "},"ã":{"ha":844,"x_min":0,"x_max":0,"o":"m 658 963 b 500 828 633 869 572 826 b 340 876 429 828 400 876 b 257 828 308 876 281 861 l 175 901 b 339 1035 204 993 265 1035 b 501 988 415 1033 436 988 b 579 1036 536 988 560 1007 l 658 963 m 14 211 b 317 456 14 368 128 442 l 500 469 l 500 500 b 407 567 500 547 463 567 b 307 490 343 567 307 536 l 60 490 b 418 769 56 658 199 769 b 765 522 642 769 765 692 l 765 221 b 800 179 765 193 778 179 b 822 182 807 179 818 181 l 822 3 b 693 -14 778 -7 732 -14 b 514 108 581 -14 524 35 l 503 108 b 268 -14 471 35 376 -14 b 14 211 115 -14 14 76 m 281 242 b 371 181 281 200 317 181 b 500 294 449 181 500 226 l 500 319 l 369 306 b 281 242 307 299 281 281 "},"æ":{"ha":1250,"x_min":0,"x_max":0,"o":"m 14 213 b 278 444 14 346 106 425 l 461 465 l 461 490 b 372 569 461 544 428 569 b 274 490 308 569 275 544 l 22 490 b 372 769 22 663 160 769 b 622 683 489 769 581 735 b 867 769 672 739 761 769 b 1218 415 1086 769 1218 635 b 1208 315 1218 376 1214 336 l 724 315 b 865 183 724 221 783 183 b 990 246 929 183 972 206 l 1225 246 b 851 -14 1203 90 1050 -14 b 544 142 704 -14 593 49 l 538 142 b 265 -14 497 46 394 -14 b 14 213 114 -14 14 72 m 960 482 b 849 574 954 550 906 574 b 725 482 781 574 736 543 m 282 243 b 357 186 282 207 307 186 b 465 282 425 186 465 225 l 465 317 l 358 306 b 282 243 303 300 282 275 "},"b":{"ha":932,"x_min":0,"x_max":0,"o":"m 57 1042 l 322 1042 l 322 621 l 336 621 b 585 769 374 713 461 769 b 907 378 779 769 907 631 b 594 -14 907 135 789 -14 b 336 136 483 -14 381 36 l 322 136 l 286 0 l 57 0 m 322 363 b 478 199 322 251 386 199 b 638 378 583 199 638 271 b 478 557 638 500 571 557 b 322 392 375 557 322 490 l 322 363 "},"c":{"ha":822,"x_min":0,"x_max":0,"o":"m 801 289 b 426 -14 794 106 638 -14 b 25 379 186 -14 25 144 b 428 769 25 614 188 769 b 803 467 636 769 790 654 l 542 467 b 426 556 531 528 485 556 b 294 378 335 556 294 486 b 425 200 294 253 347 200 b 540 289 493 200 533 238 l 801 289 "},"ć":{"ha":822,"x_min":0,"x_max":0,"o":"m 746 1042 l 511 807 l 344 807 l 474 1042 m 801 289 b 426 -14 794 106 638 -14 b 25 379 186 -14 25 144 b 428 769 25 614 188 769 b 803 467 636 769 790 654 l 542 467 b 426 556 531 528 485 556 b 294 378 335 556 294 486 b 425 200 294 253 347 200 b 540 289 493 200 533 238 l 801 289 "},"č":{"ha":822,"x_min":0,"x_max":0,"o":"m 340 1042 l 426 939 l 513 1042 l 739 1042 l 511 807 l 343 807 l 114 1042 m 801 289 b 426 -14 794 106 638 -14 b 25 379 186 -14 25 144 b 428 769 25 614 188 769 b 803 467 636 769 790 654 l 542 467 b 426 556 531 528 485 556 b 294 378 335 556 294 486 b 425 200 294 253 347 200 b 540 289 493 200 533 238 l 801 289 "},"ç":{"ha":822,"x_min":0,"x_max":0,"o":"m 425 200 b 540 289 493 200 533 238 l 801 289 b 486 -11 794 124 667 10 l 450 -56 l 454 -56 b 599 -187 540 -56 599 -103 b 397 -340 599 -290 500 -340 b 263 -310 350 -340 303 -331 l 263 -189 b 363 -219 296 -211 331 -219 b 436 -162 413 -219 436 -196 b 372 -112 436 -132 411 -112 b 318 -125 354 -112 335 -117 l 318 -65 l 360 -10 b 25 379 157 18 25 167 b 428 769 25 614 188 769 b 803 467 636 769 790 654 l 542 467 b 426 556 531 528 485 556 b 294 378 335 556 294 486 b 425 200 294 253 347 200 "},"ċ":{"ha":822,"x_min":0,"x_max":0,"o":"m 294 1042 l 560 1042 l 560 807 l 294 807 m 801 289 b 426 -14 794 106 638 -14 b 25 379 186 -14 25 144 b 428 769 25 614 188 769 b 803 467 636 769 790 654 l 542 467 b 426 556 531 528 485 556 b 294 378 335 556 294 486 b 425 200 294 253 347 200 b 540 289 493 200 533 238 l 801 289 "},"d":{"ha":933,"x_min":0,"x_max":0,"o":"m 647 0 l 611 136 l 597 136 b 340 -14 551 36 447 -14 b 25 375 146 -14 25 135 b 340 769 25 626 151 769 b 597 613 476 769 560 703 l 611 613 l 611 1042 l 876 1042 l 876 0 m 611 392 b 451 557 611 504 546 557 b 296 378 347 557 296 485 b 449 199 296 257 357 199 b 611 363 557 199 611 264 "},"ð":{"ha":875,"x_min":0,"x_max":0,"o":"m 32 339 b 383 661 32 535 174 661 b 471 650 421 661 449 657 l 476 657 b 407 718 457 672 439 683 l 361 768 l 158 699 l 158 885 l 257 917 l 165 1050 l 482 1050 l 510 1008 l 711 1081 l 711 894 l 610 863 l 671 771 b 836 379 744 661 836 531 b 428 -12 836 138 664 -12 b 32 339 193 -12 32 138 m 303 343 b 435 201 303 260 353 201 b 565 346 515 201 565 260 b 435 489 565 429 513 489 b 303 343 351 489 303 428 "},"ď":{"ha":1157,"x_min":0,"x_max":0,"o":"m 607 1042 l 872 1042 l 872 0 l 643 0 l 607 136 l 593 136 b 336 -14 547 36 443 -14 b 21 375 142 -14 21 135 b 336 769 21 626 147 769 b 593 613 472 769 556 703 l 607 613 m 1151 1042 l 1151 881 b 936 699 1151 746 1065 699 l 936 765 b 1049 850 1022 765 1047 792 l 957 850 l 957 1042 m 607 392 b 447 557 607 504 542 557 b 292 378 343 557 292 485 b 444 199 292 257 353 199 b 607 363 553 199 607 264 "},"đ":{"ha":933,"x_min":0,"x_max":0,"o":"m 979 751 l 876 751 l 876 0 l 647 0 l 611 136 l 597 136 b 340 -14 551 36 447 -14 b 25 375 146 -14 25 135 b 340 769 25 626 151 769 b 597 613 476 769 560 703 l 611 613 l 611 751 l 471 751 l 471 914 l 611 914 l 611 1042 l 876 1042 l 876 914 l 979 914 m 611 392 b 451 557 611 504 546 557 b 296 378 347 557 296 485 b 449 199 296 257 357 199 b 611 363 557 199 611 264 "},"e":{"ha":833,"x_min":0,"x_max":0,"o":"m 428 -14 b 25 376 188 -14 25 142 b 424 769 25 615 186 769 b 803 425 651 769 803 632 b 792 315 803 385 799 343 l 289 315 b 422 183 285 231 339 183 b 547 246 489 183 535 213 l 808 246 b 428 -14 781 90 628 -14 m 538 483 b 414 574 536 538 489 574 b 292 483 343 574 294 538 "},"é":{"ha":833,"x_min":0,"x_max":0,"o":"m 742 1042 l 507 807 l 340 807 l 469 1042 m 428 -14 b 25 376 188 -14 25 142 b 424 769 25 615 186 769 b 803 425 651 769 803 632 b 792 315 803 385 799 343 l 289 315 b 422 183 285 231 339 183 b 547 246 489 183 535 213 l 808 246 b 428 -14 781 90 628 -14 m 538 483 b 414 574 536 538 489 574 b 292 483 343 574 294 538 "},"ě":{"ha":833,"x_min":0,"x_max":0,"o":"m 336 1042 l 422 939 l 508 1042 l 735 1042 l 507 807 l 339 807 l 110 1042 m 428 -14 b 25 376 188 -14 25 142 b 424 769 25 615 186 769 b 803 425 651 769 803 632 b 792 315 803 385 799 343 l 289 315 b 422 183 285 231 339 183 b 547 246 489 183 535 213 l 808 246 b 428 -14 781 90 628 -14 m 538 483 b 414 574 536 538 489 574 b 292 483 343 574 294 538 "},"ê":{"ha":833,"x_min":0,"x_max":0,"o":"m 340 1042 l 508 1042 l 736 807 l 510 807 l 424 910 l 338 807 l 111 807 m 428 -14 b 25 376 188 -14 25 142 b 424 769 25 615 186 769 b 803 425 651 769 803 632 b 792 315 803 385 799 343 l 289 315 b 422 183 285 231 339 183 b 547 246 489 183 535 213 l 808 246 b 428 -14 781 90 628 -14 m 538 483 b 414 574 536 538 489 574 b 292 483 343 574 294 538 "},"ë":{"ha":833,"x_min":0,"x_max":0,"o":"m 157 1042 l 382 1042 l 382 807 l 157 807 m 464 1042 l 689 1042 l 689 807 l 464 807 m 428 -14 b 25 376 188 -14 25 142 b 424 769 25 615 186 769 b 803 425 651 769 803 632 b 792 315 803 385 799 343 l 289 315 b 422 183 285 231 339 183 b 547 246 489 183 535 213 l 808 246 b 428 -14 781 90 628 -14 m 538 483 b 414 574 536 538 489 574 b 292 483 343 574 294 538 "},"ė":{"ha":833,"x_min":0,"x_max":0,"o":"m 290 1042 l 556 1042 l 556 807 l 290 807 m 428 -14 b 25 376 188 -14 25 142 b 424 769 25 615 186 769 b 803 425 651 769 803 632 b 792 315 803 385 799 343 l 289 315 b 422 183 285 231 339 183 b 547 246 489 183 535 213 l 808 246 b 428 -14 781 90 628 -14 m 538 483 b 414 574 536 538 489 574 b 292 483 343 574 294 538 "},"è":{"ha":833,"x_min":0,"x_max":0,"o":"m 507 807 l 340 807 l 106 1042 l 378 1042 m 428 -14 b 25 376 188 -14 25 142 b 424 769 25 615 186 769 b 803 425 651 769 803 632 b 792 315 803 385 799 343 l 289 315 b 422 183 285 231 339 183 b 547 246 489 183 535 213 l 808 246 b 428 -14 781 90 628 -14 m 538 483 b 414 574 536 538 489 574 b 292 483 343 574 294 538 "},"ē":{"ha":833,"x_min":0,"x_max":0,"o":"m 182 1053 l 664 1053 l 664 864 l 182 864 m 428 -14 b 25 376 188 -14 25 142 b 424 769 25 615 186 769 b 803 425 651 769 803 632 b 792 315 803 385 799 343 l 289 315 b 422 183 285 231 339 183 b 547 246 489 183 535 213 l 808 246 b 428 -14 781 90 628 -14 m 538 483 b 414 574 536 538 489 574 b 292 483 343 574 294 538 "},"ę":{"ha":833,"x_min":0,"x_max":0,"o":"m 511 -7 b 400 -118 436 -32 400 -74 b 492 -189 400 -162 433 -189 b 578 -174 519 -189 551 -183 l 578 -306 b 450 -328 547 -319 497 -328 b 247 -151 328 -328 247 -257 b 321 -3 247 -93 274 -42 b 25 376 140 38 25 179 b 424 769 25 615 186 769 b 803 425 651 769 803 632 b 792 315 803 385 799 343 l 289 315 b 422 183 285 231 339 183 b 547 246 489 183 535 213 l 808 246 b 511 -7 785 113 669 18 m 414 574 b 292 483 343 574 294 538 l 538 483 b 414 574 536 538 489 574 "},"f":{"ha":597,"x_min":0,"x_max":0,"o":"m 157 543 l 7 543 l 7 756 l 157 756 l 157 781 b 471 1056 157 968 283 1056 b 590 1042 510 1056 560 1050 l 590 835 b 529 842 564 840 544 842 b 422 765 457 842 422 811 l 422 756 l 590 756 l 590 543 l 422 543 l 422 0 l 157 0 "},"g":{"ha":817,"x_min":0,"x_max":0,"o":"m 365 -274 b 7 -100 100 -274 7 -203 b 129 43 7 -19 67 28 l 129 56 b 63 161 90 74 63 119 b 188 296 63 225 106 275 l 188 308 b 38 513 92 339 38 419 b 369 769 38 676 171 769 b 483 758 406 769 450 767 b 785 951 540 865 608 951 l 785 754 b 632 697 703 757 661 736 b 725 525 683 671 725 601 b 408 275 725 363 599 275 b 300 283 367 275 324 278 b 290 249 293 274 290 261 b 379 203 290 207 336 203 l 558 203 b 807 -25 731 203 807 111 b 365 -274 807 -204 631 -274 m 382 453 b 469 524 435 453 469 481 b 382 593 469 565 433 593 b 296 524 331 593 296 565 b 382 453 296 481 332 453 m 381 -90 b 543 -35 488 -90 543 -78 b 497 0 543 -11 525 0 l 310 0 b 254 -39 272 0 254 -17 b 381 -90 254 -74 292 -90 "},"ğ":{"ha":817,"x_min":0,"x_max":0,"o":"m 574 1056 b 328 821 582 911 479 821 b 85 1056 176 821 75 911 l 239 1056 b 328 963 239 986 278 963 b 419 1056 390 963 419 997 l 574 1056 m 365 -274 b 7 -100 100 -274 7 -203 b 129 43 7 -19 67 28 l 129 56 b 63 161 90 74 63 119 b 188 296 63 225 106 275 l 188 308 b 38 513 92 339 38 419 b 369 769 38 676 171 769 b 483 758 406 769 450 767 b 785 951 540 865 608 951 l 785 754 b 632 697 703 757 661 736 b 725 525 683 671 725 601 b 408 275 725 363 599 275 b 300 283 367 275 324 278 b 290 249 293 274 290 261 b 379 203 290 207 336 203 l 558 203 b 807 -25 731 203 807 111 b 365 -274 807 -204 631 -274 m 382 453 b 469 524 435 453 469 481 b 382 593 469 565 433 593 b 296 524 331 593 296 565 b 382 453 296 481 332 453 m 381 -90 b 543 -35 488 -90 543 -78 b 497 0 543 -11 525 0 l 310 0 b 254 -39 272 0 254 -17 b 381 -90 254 -74 292 -90 "},"ģ":{"ha":817,"x_min":0,"x_max":0,"o":"m 417 1164 b 335 1094 356 1164 335 1136 l 335 1046 l 431 1046 l 431 842 l 225 842 l 225 1075 b 417 1236 225 1190 294 1236 m 365 -274 b 7 -100 100 -274 7 -203 b 129 43 7 -19 67 28 l 129 56 b 63 161 90 74 63 119 b 188 296 63 225 106 275 l 188 308 b 38 513 92 339 38 419 b 369 769 38 676 171 769 b 483 758 406 769 450 767 b 785 951 540 865 608 951 l 785 754 b 632 697 703 757 661 736 b 725 525 683 671 725 601 b 408 275 725 363 599 275 b 300 283 367 275 324 278 b 290 249 293 274 290 261 b 379 203 290 207 336 203 l 558 203 b 807 -25 731 203 807 111 b 365 -274 807 -204 631 -274 m 382 453 b 469 524 435 453 469 481 b 382 593 469 565 433 593 b 296 524 331 593 296 565 b 382 453 296 481 332 453 m 381 -90 b 543 -35 488 -90 543 -78 b 497 0 543 -11 525 0 l 310 0 b 254 -39 272 0 254 -17 b 381 -90 254 -74 292 -90 "},"ġ":{"ha":817,"x_min":0,"x_max":0,"o":"m 194 1056 l 460 1056 l 460 821 l 194 821 m 365 -274 b 7 -100 100 -274 7 -203 b 129 43 7 -19 67 28 l 129 56 b 63 161 90 74 63 119 b 188 296 63 225 106 275 l 188 308 b 38 513 92 339 38 419 b 369 769 38 676 171 769 b 483 758 406 769 450 767 b 785 951 540 865 608 951 l 785 754 b 632 697 703 757 661 736 b 725 525 683 671 725 601 b 408 275 725 363 599 275 b 300 283 367 275 324 278 b 290 249 293 274 290 261 b 379 203 290 207 336 203 l 558 203 b 807 -25 731 203 807 111 b 365 -274 807 -204 631 -274 m 382 453 b 469 524 435 453 469 481 b 382 593 469 565 433 593 b 296 524 331 593 296 565 b 382 453 296 481 332 453 m 381 -90 b 543 -35 488 -90 543 -78 b 497 0 543 -11 525 0 l 310 0 b 254 -39 272 0 254 -17 b 381 -90 254 -74 292 -90 "},"h":{"ha":914,"x_min":0,"x_max":0,"o":"m 57 1042 l 322 1042 l 322 618 l 336 618 b 590 769 389 718 476 769 b 863 460 756 769 863 671 l 863 0 l 597 0 l 597 404 b 469 556 597 511 547 556 b 322 386 369 556 322 488 l 322 0 l 57 0 "},"ħ":{"ha":914,"x_min":0,"x_max":0,"o":"m 590 769 b 863 460 756 769 863 671 l 863 0 l 597 0 l 597 404 b 469 556 597 511 547 556 b 322 386 369 556 322 488 l 322 0 l 57 0 l 57 753 l -31 753 l -31 914 l 57 914 l 57 1042 l 322 1042 l 322 914 l 478 914 l 478 753 l 322 753 l 322 618 l 336 618 b 590 769 389 718 476 769 "},"i":{"ha":379,"x_min":0,"x_max":0,"o":"m 57 1042 l 322 1042 l 322 807 l 57 807 m 57 756 l 322 756 l 322 0 l 57 0 "},"ı":{"ha":379,"x_min":0,"x_max":0,"o":"m 57 756 l 322 756 l 322 0 l 57 0 "},"í":{"ha":379,"x_min":0,"x_max":0,"o":"m 508 1042 l 274 807 l 107 807 l 236 1042 m 57 756 l 322 756 l 322 0 l 57 0 "},"î":{"ha":379,"x_min":0,"x_max":0,"o":"m 107 1042 l 275 1042 l 503 807 l 276 807 l 190 910 l 104 807 l -122 807 m 57 756 l 322 756 l 322 0 l 57 0 "},"ï":{"ha":379,"x_min":0,"x_max":0,"o":"m -76 1042 l 149 1042 l 149 807 l -76 807 m 231 1042 l 456 1042 l 456 807 l 231 807 m 57 756 l 322 756 l 322 0 l 57 0 "},"ì":{"ha":379,"x_min":0,"x_max":0,"o":"m 274 807 l 107 807 l -128 1042 l 144 1042 m 57 756 l 322 756 l 322 0 l 57 0 "},"ī":{"ha":379,"x_min":0,"x_max":0,"o":"m -51 1053 l 431 1053 l 431 864 l -51 864 m 57 756 l 322 756 l 322 0 l 57 0 "},"į":{"ha":422,"x_min":0,"x_max":0,"o":"m 329 807 l 63 807 l 63 1042 l 329 1042 m 365 -161 l 365 -275 b 236 -300 335 -289 288 -300 b 35 -133 115 -300 35 -233 b 92 0 35 -78 56 -33 l 63 0 l 63 756 l 328 756 l 328 0 l 326 0 b 188 -97 233 -10 188 -44 b 282 -158 188 -139 225 -158 b 347 -149 296 -158 322 -156 "},"j":{"ha":365,"x_min":0,"x_max":0,"o":"m 42 1042 l 308 1042 l 308 814 l 42 814 m 4 -246 b -104 -236 -35 -246 -75 -242 l -104 -32 b -64 -33 -94 -33 -79 -33 b 42 83 21 -33 42 8 l 42 756 l 308 756 l 308 39 b 4 -246 308 -154 186 -246 "},"ȷ":{"ha":363,"x_min":0,"x_max":0,"o":"m 18 -258 b -104 -250 -15 -258 -83 -254 l -104 -61 b -67 -64 -92 -62 -78 -64 b 42 54 50 -64 42 -24 l 42 756 l 306 756 l 306 35 b 18 -258 306 -101 269 -258 "},"ĵ":{"ha":363,"x_min":0,"x_max":0,"o":"m 92 1042 l 260 1042 l 488 807 l 261 807 l 175 910 l 89 807 l -137 807 m 18 -258 b -104 -250 -15 -258 -83 -254 l -104 -61 b -67 -64 -92 -62 -78 -64 b 42 54 50 -64 42 -24 l 42 756 l 306 756 l 306 35 b 18 -258 306 -101 269 -258 "},"k":{"ha":889,"x_min":0,"x_max":0,"o":"m 57 1042 l 322 1042 l 322 504 l 542 756 l 882 756 l 597 458 l 883 0 l 571 0 l 400 286 l 322 199 l 322 0 l 57 0 "},"ķ":{"ha":889,"x_min":0,"x_max":0,"o":"m 57 1042 l 322 1042 l 322 504 l 542 756 l 882 756 l 597 458 l 883 0 l 571 0 l 400 286 l 322 199 l 322 0 l 57 0 m 371 -376 b 451 -307 432 -376 451 -349 l 451 -272 l 357 -272 l 357 -68 l 563 -68 l 563 -287 b 371 -449 563 -403 493 -449 "},"l":{"ha":379,"x_min":0,"x_max":0,"o":"m 57 1042 l 322 1042 l 322 0 l 57 0 "},"ĺ":{"ha":379,"x_min":0,"x_max":0,"o":"m 510 1332 l 275 1097 l 108 1097 l 238 1332 m 57 1042 l 322 1042 l 322 0 l 57 0 "},"ľ":{"ha":603,"x_min":0,"x_max":0,"o":"m 57 1042 l 322 1042 l 322 0 l 57 0 m 597 1042 l 597 881 b 382 699 597 746 511 699 l 382 765 b 494 850 468 765 493 792 l 403 850 l 403 1042 "},"ļ":{"ha":379,"x_min":0,"x_max":0,"o":"m 57 1042 l 322 1042 l 322 0 l 57 0 m 103 -376 b 183 -307 164 -376 183 -349 l 183 -272 l 89 -272 l 89 -68 l 294 -68 l 294 -287 b 103 -449 294 -403 225 -449 "},"ŀ":{"ha":715,"x_min":0,"x_max":0,"o":"m 57 1042 l 322 1042 l 322 0 l 57 0 m 422 529 b 547 658 422 600 479 658 b 674 529 617 658 674 600 b 547 403 674 460 617 403 b 422 529 479 403 422 458 "},"ł":{"ha":468,"x_min":0,"x_max":0,"o":"m 442 519 l 367 492 l 367 0 l 101 0 l 101 396 l 26 368 l 26 604 l 101 632 l 101 1042 l 367 1042 l 367 728 l 442 756 "},"m":{"ha":1347,"x_min":0,"x_max":0,"o":"m 57 756 l 289 756 l 321 618 l 336 618 b 564 769 381 721 467 769 b 779 621 667 769 742 718 l 797 621 b 1038 769 847 728 935 769 b 1296 446 1219 769 1296 633 l 1296 0 l 1031 0 l 1031 418 b 929 556 1031 511 994 556 b 808 433 847 556 808 503 l 808 0 l 542 0 l 542 425 b 439 556 542 514 506 556 b 322 440 364 556 322 508 l 322 0 l 57 0 "},"n":{"ha":914,"x_min":0,"x_max":0,"o":"m 57 756 l 290 756 l 322 618 l 336 618 b 590 769 389 718 476 769 b 863 460 756 769 863 671 l 863 0 l 597 0 l 597 404 b 469 556 597 511 547 556 b 322 386 369 556 322 488 l 322 0 l 57 0 "},"ń":{"ha":914,"x_min":0,"x_max":0,"o":"m 779 1042 l 544 807 l 378 807 l 507 1042 m 57 756 l 290 756 l 322 618 l 336 618 b 590 769 389 718 476 769 b 863 460 756 769 863 671 l 863 0 l 597 0 l 597 404 b 469 556 597 511 547 556 b 322 386 369 556 322 488 l 322 0 l 57 0 "},"ň":{"ha":914,"x_min":0,"x_max":0,"o":"m 374 1042 l 460 939 l 546 1042 l 772 1042 l 544 807 l 376 807 l 147 1042 m 57 756 l 290 756 l 322 618 l 336 618 b 590 769 389 718 476 769 b 863 460 756 769 863 671 l 863 0 l 597 0 l 597 404 b 469 556 597 511 547 556 b 322 386 369 556 322 488 l 322 0 l 57 0 "},"ņ":{"ha":914,"x_min":0,"x_max":0,"o":"m 57 756 l 290 756 l 322 618 l 336 618 b 590 769 389 718 476 769 b 863 460 756 769 863 671 l 863 0 l 597 0 l 597 404 b 469 556 597 511 547 556 b 322 386 369 556 322 488 l 322 0 l 57 0 m 368 -376 b 449 -307 429 -376 449 -349 l 449 -272 l 354 -272 l 354 -68 l 560 -68 l 560 -287 b 368 -449 560 -403 490 -449 "},"ŋ":{"ha":914,"x_min":0,"x_max":0,"o":"m 57 756 l 290 756 l 322 618 l 336 618 b 593 769 385 719 475 769 b 863 446 785 769 863 633 l 863 38 b 576 -247 863 -172 721 -247 b 453 -239 536 -247 474 -243 l 453 -64 l 465 -49 b 492 -50 474 -50 482 -50 b 597 78 583 -50 597 15 l 597 418 b 469 556 597 511 551 556 b 322 400 374 556 322 490 l 322 0 l 57 0 "},"ñ":{"ha":914,"x_min":0,"x_max":0,"o":"m 701 963 b 543 828 676 869 615 826 b 383 876 472 828 443 876 b 300 828 351 876 324 861 l 218 901 b 382 1035 247 993 308 1035 b 544 988 458 1033 479 988 b 622 1036 579 988 603 1007 l 701 963 m 57 756 l 290 756 l 322 618 l 336 618 b 590 769 389 718 476 769 b 863 460 756 769 863 671 l 863 0 l 597 0 l 597 404 b 469 556 597 511 547 556 b 322 386 369 556 322 488 l 322 0 l 57 0 "},"o":{"ha":857,"x_min":0,"x_max":0,"o":"m 25 379 b 428 769 25 610 186 769 b 832 378 671 769 832 610 b 428 -12 832 147 671 -12 b 25 379 186 -12 25 147 m 294 378 b 428 201 294 264 350 201 b 561 379 515 201 561 276 b 425 556 561 488 508 556 b 294 378 339 556 294 478 "},"ó":{"ha":857,"x_min":0,"x_max":0,"o":"m 746 1042 l 511 807 l 344 807 l 474 1042 m 25 379 b 428 769 25 610 186 769 b 832 378 671 769 832 610 b 428 -12 832 147 671 -12 b 25 379 186 -12 25 147 m 294 378 b 428 201 294 264 350 201 b 561 379 515 201 561 276 b 425 556 561 488 508 556 b 294 378 339 556 294 478 "},"ô":{"ha":857,"x_min":0,"x_max":0,"o":"m 344 1042 l 513 1042 l 740 807 l 514 807 l 428 910 l 342 807 l 115 807 m 25 379 b 428 769 25 610 186 769 b 832 378 671 769 832 610 b 428 -12 832 147 671 -12 b 25 379 186 -12 25 147 m 294 378 b 428 201 294 264 350 201 b 561 379 515 201 561 276 b 425 556 561 488 508 556 b 294 378 339 556 294 478 "},"ö":{"ha":857,"x_min":0,"x_max":0,"o":"m 161 1042 l 386 1042 l 386 807 l 161 807 m 468 1042 l 693 1042 l 693 807 l 468 807 m 25 379 b 428 769 25 610 186 769 b 832 378 671 769 832 610 b 428 -12 832 147 671 -12 b 25 379 186 -12 25 147 m 294 378 b 428 201 294 264 350 201 b 561 379 515 201 561 276 b 425 556 561 488 508 556 b 294 378 339 556 294 478 "},"ò":{"ha":857,"x_min":0,"x_max":0,"o":"m 511 807 l 344 807 l 110 1042 l 382 1042 m 25 379 b 428 769 25 610 186 769 b 832 378 671 769 832 610 b 428 -12 832 147 671 -12 b 25 379 186 -12 25 147 m 294 378 b 428 201 294 264 350 201 b 561 379 515 201 561 276 b 425 556 561 488 508 556 b 294 378 339 556 294 478 "},"ő":{"ha":857,"x_min":0,"x_max":0,"o":"m 546 1042 l 378 807 l 219 807 l 301 1042 m 935 1042 l 660 807 l 485 807 l 663 1042 m 25 379 b 428 769 25 610 186 769 b 832 378 671 769 832 610 b 428 -12 832 147 671 -12 b 25 379 186 -12 25 147 m 294 378 b 428 201 294 264 350 201 b 561 379 515 201 561 276 b 425 556 561 488 508 556 b 294 378 339 556 294 478 "},"ō":{"ha":857,"x_min":0,"x_max":0,"o":"m 186 1053 l 668 1053 l 668 864 l 186 864 m 25 379 b 428 769 25 610 186 769 b 832 378 671 769 832 610 b 428 -12 832 147 671 -12 b 25 379 186 -12 25 147 m 294 378 b 428 201 294 264 350 201 b 561 379 515 201 561 276 b 425 556 561 488 508 556 b 294 378 339 556 294 478 "},"ø":{"ha":871,"x_min":0,"x_max":0,"o":"m 790 567 b 832 378 817 513 832 449 b 428 -12 832 147 671 -12 b 125 107 301 -12 196 32 l 60 61 l 7 138 l 71 182 b 25 379 42 239 25 306 b 428 769 25 610 186 769 b 736 644 558 769 665 724 l 810 696 l 864 618 m 294 378 b 297 339 294 364 296 351 l 529 501 b 425 556 506 536 469 556 b 294 378 339 556 294 478 m 561 379 b 560 407 561 389 561 399 l 331 249 b 428 201 354 218 388 201 b 561 379 515 201 561 276 "},"ǿ":{"ha":871,"x_min":0,"x_max":0,"o":"m 511 807 l 344 807 l 474 1042 l 746 1042 m 790 567 b 832 378 817 513 832 449 b 428 -12 832 147 671 -12 b 125 107 301 -12 196 32 l 60 61 l 7 138 l 71 182 b 25 379 42 239 25 306 b 428 769 25 610 186 769 b 736 644 558 769 665 724 l 810 696 l 864 618 m 294 378 b 297 339 294 364 296 351 l 529 501 b 425 556 506 536 469 556 b 294 378 339 556 294 478 m 561 379 b 560 407 561 389 561 399 l 331 249 b 428 201 354 218 388 201 b 561 379 515 201 561 276 "},"õ":{"ha":857,"x_min":0,"x_max":0,"o":"m 668 963 b 510 828 643 869 582 826 b 350 876 439 828 410 876 b 267 828 318 876 290 861 l 185 901 b 349 1035 214 993 275 1035 b 511 988 425 1033 446 988 b 589 1036 546 988 569 1007 l 668 963 m 25 379 b 428 769 25 610 186 769 b 832 378 671 769 832 610 b 428 -12 832 147 671 -12 b 25 379 186 -12 25 147 m 294 378 b 428 201 294 264 350 201 b 561 379 515 201 561 276 b 425 556 561 488 508 556 b 294 378 339 556 294 478 "},"œ":{"ha":1371,"x_min":0,"x_max":0,"o":"m 1346 246 b 965 -14 1318 90 1165 -14 b 696 74 857 -14 765 18 b 428 -12 626 19 536 -12 b 25 379 186 -12 25 147 b 428 769 25 610 186 769 b 696 683 536 769 626 738 b 961 769 764 739 854 769 b 1340 425 1189 769 1340 632 b 1329 315 1340 385 1336 343 l 828 315 b 826 304 828 311 826 308 b 960 183 826 226 881 183 b 1085 246 1026 183 1072 213 m 951 574 b 829 483 881 574 832 538 l 1075 483 b 951 574 1074 538 1026 574 m 428 201 b 561 379 515 201 561 276 b 425 556 561 488 508 556 b 294 378 339 556 294 478 b 428 201 294 264 350 201 "},"p":{"ha":932,"x_min":0,"x_max":0,"o":"m 57 756 l 286 756 l 322 615 l 336 615 b 589 769 379 715 481 769 b 907 376 788 769 907 618 b 590 -14 907 126 779 -14 b 336 135 457 -14 369 50 l 322 135 l 322 -232 l 57 -232 m 322 365 b 478 199 322 268 379 199 b 638 379 585 199 638 274 b 481 557 638 496 574 557 b 322 389 385 557 322 489 "},"þ":{"ha":929,"x_min":0,"x_max":0,"o":"m 322 1013 l 322 617 l 336 617 b 589 769 379 715 481 769 b 904 372 786 769 904 618 b 590 -14 904 126 778 -14 b 336 133 458 -14 369 49 l 322 133 l 322 -232 l 57 -232 l 57 1013 m 322 363 b 478 199 322 267 379 199 b 638 375 585 199 638 271 b 481 557 638 499 574 557 b 322 392 385 557 322 492 "},"q":{"ha":933,"x_min":0,"x_max":0,"o":"m 876 -232 l 611 -232 l 611 135 l 597 135 b 342 -14 558 46 472 -14 b 25 378 153 -14 25 124 b 339 769 25 619 143 769 b 597 615 450 769 551 715 l 611 615 l 647 756 l 876 756 m 611 389 b 449 557 611 488 547 557 b 296 382 351 557 296 493 b 451 199 296 283 340 199 b 611 365 553 199 611 268 l 611 389 "},"r":{"ha":594,"x_min":0,"x_max":0,"o":"m 57 756 l 288 756 l 307 618 l 317 618 b 589 765 354 729 457 779 l 589 528 b 322 297 419 544 322 481 l 322 0 l 57 0 "},"ŕ":{"ha":594,"x_min":0,"x_max":0,"o":"m 643 1042 l 408 807 l 242 807 l 371 1042 m 57 756 l 288 756 l 307 618 l 317 618 b 589 765 354 729 457 779 l 589 528 b 322 297 419 544 322 481 l 322 0 l 57 0 "},"ř":{"ha":594,"x_min":0,"x_max":0,"o":"m 238 1042 l 324 939 l 410 1042 l 636 1042 l 408 807 l 240 807 l 11 1042 m 57 756 l 288 756 l 307 618 l 317 618 b 589 765 354 729 457 779 l 589 528 b 322 297 419 544 322 481 l 322 0 l 57 0 "},"ŗ":{"ha":594,"x_min":0,"x_max":0,"o":"m 57 756 l 288 756 l 307 618 l 317 618 b 589 765 354 729 457 779 l 589 528 b 322 297 419 544 322 481 l 322 0 l 57 0 m 115 -376 b 196 -307 176 -376 196 -349 l 196 -272 l 101 -272 l 101 -68 l 307 -68 l 307 -287 b 115 -449 307 -403 238 -449 "},"s":{"ha":775,"x_min":0,"x_max":0,"o":"m 288 242 b 392 169 289 190 331 169 b 479 218 450 169 479 189 b 407 268 479 258 442 263 l 278 288 b 38 515 104 314 38 400 b 379 769 38 679 174 769 b 724 528 593 769 718 672 l 463 528 b 375 586 463 567 426 586 b 303 539 329 586 303 568 b 393 488 303 499 351 493 l 521 469 b 749 246 685 446 749 358 b 389 -14 749 78 604 -14 b 26 242 154 -14 26 94 l 288 242 "},"ś":{"ha":775,"x_min":0,"x_max":0,"o":"m 697 1042 l 463 807 l 296 807 l 425 1042 m 288 242 b 392 169 289 190 331 169 b 479 218 450 169 479 189 b 407 268 479 258 442 263 l 278 288 b 38 515 104 314 38 400 b 379 769 38 679 174 769 b 724 528 593 769 718 672 l 463 528 b 375 586 463 567 426 586 b 303 539 329 586 303 568 b 393 488 303 499 351 493 l 521 469 b 749 246 685 446 749 358 b 389 -14 749 78 604 -14 b 26 242 154 -14 26 94 l 288 242 "},"š":{"ha":775,"x_min":0,"x_max":0,"o":"m 292 1042 l 378 939 l 464 1042 l 690 1042 l 463 807 l 294 807 l 65 1042 m 288 242 b 392 169 289 190 331 169 b 479 218 450 169 479 189 b 407 268 479 258 442 263 l 278 288 b 38 515 104 314 38 400 b 379 769 38 679 174 769 b 724 528 593 769 718 672 l 463 528 b 375 586 463 567 426 586 b 303 539 329 586 303 568 b 393 488 303 499 351 493 l 521 469 b 749 246 685 446 749 358 b 389 -14 749 78 604 -14 b 26 242 154 -14 26 94 l 288 242 "},"ş":{"ha":775,"x_min":0,"x_max":0,"o":"m 749 246 b 463 -10 749 97 636 8 l 422 -60 l 426 -60 b 571 -192 513 -60 571 -107 b 369 -344 571 -294 472 -344 b 235 -314 322 -344 275 -335 l 235 -193 b 335 -224 268 -215 303 -224 b 408 -167 385 -224 408 -200 b 344 -117 408 -136 383 -117 b 290 -129 326 -117 307 -121 l 290 -69 l 333 -11 b 26 242 133 4 26 107 l 288 242 b 392 169 289 190 331 169 b 479 218 450 169 479 189 b 407 268 479 258 442 263 l 278 288 b 38 515 104 314 38 400 b 379 769 38 679 174 769 b 724 528 593 769 718 672 l 463 528 b 375 586 463 567 426 586 b 303 539 329 586 303 568 b 393 488 303 499 351 493 l 521 469 b 749 246 685 446 749 358 "},"ș":{"ha":775,"x_min":0,"x_max":0,"o":"m 288 242 b 392 169 289 190 331 169 b 479 218 450 169 479 189 b 407 268 479 258 442 263 l 278 288 b 38 515 104 314 38 400 b 379 769 38 679 174 769 b 724 528 593 769 718 672 l 463 528 b 375 586 463 567 426 586 b 303 539 329 586 303 568 b 393 488 303 499 351 493 l 521 469 b 749 246 685 446 749 358 b 389 -14 749 78 604 -14 b 26 242 154 -14 26 94 l 288 242 m 335 -381 b 415 -311 396 -381 415 -353 l 415 -276 l 321 -276 l 321 -72 l 526 -72 l 526 -292 b 335 -453 526 -407 457 -453 "},"ß":{"ha":911,"x_min":0,"x_max":0,"o":"m 663 578 b 885 311 799 557 885 449 b 476 0 885 100 721 0 l 419 0 l 419 215 l 450 215 b 617 356 556 215 617 271 b 450 483 617 443 549 483 l 425 483 l 425 668 l 436 668 b 550 758 504 668 550 704 b 458 840 550 807 515 840 b 365 758 397 840 365 807 l 365 0 l 101 0 l 101 540 l 6 540 l 6 743 l 101 743 b 471 1054 108 957 254 1054 b 814 799 688 1054 814 947 b 663 589 814 694 753 619 l 663 578 "},"t":{"ha":575,"x_min":0,"x_max":0,"o":"m 129 756 l 129 942 l 394 986 l 394 756 l 561 756 l 561 543 l 394 543 l 394 285 b 482 196 394 222 415 196 b 561 203 500 196 542 199 l 561 0 b 399 -14 497 -11 456 -14 b 129 250 129 -14 129 165 l 129 543 l 6 543 l 6 756 "},"ŧ":{"ha":575,"x_min":0,"x_max":0,"o":"m 394 292 l 394 285 b 482 196 394 222 415 196 b 561 203 500 196 542 199 l 561 0 b 399 -14 497 -11 456 -14 b 129 250 129 -14 129 165 l 129 292 l 14 292 l 14 472 l 129 472 l 129 543 l 6 543 l 6 756 l 129 756 l 129 942 l 394 986 l 394 756 l 561 756 l 561 543 l 394 543 l 394 472 l 565 472 l 565 292 "},"ť":{"ha":682,"x_min":0,"x_max":0,"o":"m 692 1165 l 692 1004 b 476 822 692 869 606 822 l 476 889 b 589 974 563 889 588 915 l 497 974 l 497 1165 m 394 756 l 561 756 l 561 543 l 394 543 l 394 285 b 482 196 394 222 415 196 b 561 203 500 196 542 199 l 561 0 b 399 -14 497 -11 456 -14 b 129 250 129 -14 129 165 l 129 543 l 6 543 l 6 756 l 129 756 l 129 942 l 394 986 "},"ţ":{"ha":575,"x_min":0,"x_max":0,"o":"m 394 543 l 394 285 b 482 196 394 222 415 196 b 561 203 500 196 542 199 l 561 0 b 440 -14 514 -8 479 -12 l 411 -50 l 415 -50 b 560 -182 501 -50 560 -97 b 358 -335 560 -285 461 -335 b 224 -304 311 -335 264 -325 l 224 -183 b 324 -214 257 -206 292 -214 b 397 -157 374 -214 397 -190 b 333 -107 397 -126 372 -107 b 279 -119 315 -107 296 -111 l 279 -60 l 318 -7 b 129 250 129 25 129 175 l 129 543 l 6 543 l 6 756 l 129 756 l 129 942 l 394 986 l 394 756 l 561 756 l 561 543 "},"ț":{"ha":575,"x_min":0,"x_max":0,"o":"m 129 756 l 129 942 l 394 986 l 394 756 l 561 756 l 561 543 l 394 543 l 394 285 b 482 196 394 222 415 196 b 561 203 500 196 542 199 l 561 0 b 399 -14 497 -11 456 -14 b 129 250 129 -14 129 165 l 129 543 l 6 543 l 6 756 m 324 -371 b 404 -301 385 -371 404 -343 l 404 -267 l 310 -267 l 310 -62 l 515 -62 l 515 -282 b 324 -443 515 -397 446 -443 "},"u":{"ha":901,"x_min":0,"x_max":0,"o":"m 850 0 l 615 0 l 583 138 l 567 138 b 317 -14 521 40 442 -14 b 51 289 133 -14 51 111 l 51 756 l 318 756 l 318 332 b 440 200 318 243 363 200 b 585 356 531 200 585 265 l 585 756 l 850 756 "},"ú":{"ha":901,"x_min":0,"x_max":0,"o":"m 769 1042 l 535 807 l 368 807 l 497 1042 m 850 0 l 615 0 l 583 138 l 567 138 b 317 -14 521 40 442 -14 b 51 289 133 -14 51 111 l 51 756 l 318 756 l 318 332 b 440 200 318 243 363 200 b 585 356 531 200 585 265 l 585 756 l 850 756 "},"û":{"ha":901,"x_min":0,"x_max":0,"o":"m 368 1042 l 536 1042 l 764 807 l 538 807 l 451 910 l 365 807 l 139 807 m 850 0 l 615 0 l 583 138 l 567 138 b 317 -14 521 40 442 -14 b 51 289 133 -14 51 111 l 51 756 l 318 756 l 318 332 b 440 200 318 243 363 200 b 585 356 531 200 585 265 l 585 756 l 850 756 "},"ü":{"ha":901,"x_min":0,"x_max":0,"o":"m 185 1042 l 410 1042 l 410 807 l 185 807 m 492 1042 l 717 1042 l 717 807 l 492 807 m 850 0 l 615 0 l 583 138 l 567 138 b 317 -14 521 40 442 -14 b 51 289 133 -14 51 111 l 51 756 l 318 756 l 318 332 b 440 200 318 243 363 200 b 585 356 531 200 585 265 l 585 756 l 850 756 "},"ù":{"ha":901,"x_min":0,"x_max":0,"o":"m 535 807 l 368 807 l 133 1042 l 406 1042 m 850 0 l 615 0 l 583 138 l 567 138 b 317 -14 521 40 442 -14 b 51 289 133 -14 51 111 l 51 756 l 318 756 l 318 332 b 440 200 318 243 363 200 b 585 356 531 200 585 265 l 585 756 l 850 756 "},"ű":{"ha":901,"x_min":0,"x_max":0,"o":"m 569 1042 l 401 807 l 243 807 l 325 1042 m 958 1042 l 683 807 l 508 807 l 686 1042 m 850 0 l 615 0 l 583 138 l 567 138 b 317 -14 521 40 442 -14 b 51 289 133 -14 51 111 l 51 756 l 318 756 l 318 332 b 440 200 318 243 363 200 b 585 356 531 200 585 265 l 585 756 l 850 756 "},"ū":{"ha":901,"x_min":0,"x_max":0,"o":"m 210 1053 l 692 1053 l 692 864 l 210 864 m 850 0 l 615 0 l 583 138 l 567 138 b 317 -14 521 40 442 -14 b 51 289 133 -14 51 111 l 51 756 l 318 756 l 318 332 b 440 200 318 243 363 200 b 585 356 531 200 585 265 l 585 756 l 850 756 "},"ų":{"ha":901,"x_min":0,"x_max":0,"o":"m 801 -189 b 888 -174 829 -189 861 -183 l 888 -306 b 760 -328 857 -319 807 -328 b 557 -151 638 -328 557 -257 b 633 0 557 -92 585 -39 l 615 0 l 583 138 l 567 138 b 317 -14 521 40 442 -14 b 51 289 133 -14 51 111 l 51 756 l 318 756 l 318 332 b 440 200 318 243 363 200 b 585 356 531 200 585 265 l 585 756 l 850 756 l 850 0 l 849 0 b 710 -118 754 -22 710 -68 b 801 -189 710 -162 743 -189 "},"ů":{"ha":901,"x_min":0,"x_max":0,"o":"m 606 956 b 451 813 606 871 542 813 b 296 956 361 813 296 871 b 451 1099 296 1042 361 1099 b 606 956 542 1099 606 1042 m 499 956 b 451 1003 499 985 479 1003 b 404 956 424 1003 404 985 b 451 910 404 929 424 910 b 499 956 479 910 499 929 m 850 0 l 615 0 l 583 138 l 567 138 b 317 -14 521 40 442 -14 b 51 289 133 -14 51 111 l 51 756 l 318 756 l 318 332 b 440 200 318 243 363 200 b 585 356 531 200 585 265 l 585 756 l 850 756 "},"v":{"ha":831,"x_min":0,"x_max":0,"o":"m 275 756 l 415 249 l 424 249 l 571 756 l 839 756 l 574 0 l 254 0 l -11 756 "},"w":{"ha":1188,"x_min":0,"x_max":0,"o":"m 263 756 l 358 265 l 369 265 l 454 756 l 742 756 l 822 261 l 829 261 l 931 756 l 1183 756 l 990 0 l 669 0 l 593 417 l 585 417 l 510 0 l 196 0 l 4 756 "},"ẃ":{"ha":1188,"x_min":0,"x_max":0,"o":"m 913 1042 l 678 807 l 511 807 l 640 1042 m 263 756 l 358 265 l 369 265 l 454 756 l 742 756 l 822 261 l 829 261 l 931 756 l 1183 756 l 990 0 l 669 0 l 593 417 l 585 417 l 510 0 l 196 0 l 4 756 "},"ŵ":{"ha":1188,"x_min":0,"x_max":0,"o":"m 511 1042 l 679 1042 l 907 807 l 681 807 l 594 910 l 508 807 l 282 807 m 263 756 l 358 265 l 369 265 l 454 756 l 742 756 l 822 261 l 829 261 l 931 756 l 1183 756 l 990 0 l 669 0 l 593 417 l 585 417 l 510 0 l 196 0 l 4 756 "},"ẅ":{"ha":1188,"x_min":0,"x_max":0,"o":"m 328 1042 l 553 1042 l 553 807 l 328 807 m 635 1042 l 860 1042 l 860 807 l 635 807 m 263 756 l 358 265 l 369 265 l 454 756 l 742 756 l 822 261 l 829 261 l 931 756 l 1183 756 l 990 0 l 669 0 l 593 417 l 585 417 l 510 0 l 196 0 l 4 756 "},"ẁ":{"ha":1188,"x_min":0,"x_max":0,"o":"m 678 807 l 511 807 l 276 1042 l 549 1042 m 263 756 l 358 265 l 369 265 l 454 756 l 742 756 l 822 261 l 829 261 l 931 756 l 1183 756 l 990 0 l 669 0 l 593 417 l 585 417 l 510 0 l 196 0 l 4 756 "},"x":{"ha":840,"x_min":0,"x_max":0,"o":"m 251 375 l -3 756 l 286 756 l 421 540 l 433 540 l 569 756 l 843 756 l 592 375 l 847 0 l 557 0 l 424 207 l 411 207 l 274 0 l -7 0 "},"y":{"ha":813,"x_min":0,"x_max":0,"o":"m 279 756 l 413 313 l 424 313 l 560 756 l 821 756 l 550 6 b 179 -253 489 -160 376 -253 b 39 -233 122 -253 72 -244 l 39 -25 b 129 -40 68 -36 99 -40 b 271 35 215 -40 258 -10 l 279 63 l -11 756 "},"ý":{"ha":813,"x_min":0,"x_max":0,"o":"m 724 1042 l 489 807 l 322 807 l 451 1042 m 279 756 l 413 313 l 424 313 l 560 756 l 821 756 l 550 6 b 179 -253 489 -160 376 -253 b 39 -233 122 -253 72 -244 l 39 -25 b 129 -40 68 -36 99 -40 b 271 35 215 -40 258 -10 l 279 63 l -11 756 "},"ŷ":{"ha":813,"x_min":0,"x_max":0,"o":"m 322 1042 l 490 1042 l 718 807 l 492 807 l 406 910 l 319 807 l 93 807 m 279 756 l 413 313 l 424 313 l 560 756 l 821 756 l 550 6 b 179 -253 489 -160 376 -253 b 39 -233 122 -253 72 -244 l 39 -25 b 129 -40 68 -36 99 -40 b 271 35 215 -40 258 -10 l 279 63 l -11 756 "},"ÿ":{"ha":813,"x_min":0,"x_max":0,"o":"m 139 1042 l 364 1042 l 364 807 l 139 807 m 446 1042 l 671 1042 l 671 807 l 446 807 m 279 756 l 413 313 l 424 313 l 560 756 l 821 756 l 550 6 b 179 -253 489 -160 376 -253 b 39 -233 122 -253 72 -244 l 39 -25 b 129 -40 68 -36 99 -40 b 271 35 215 -40 258 -10 l 279 63 l -11 756 "},"ỳ":{"ha":813,"x_min":0,"x_max":0,"o":"m 489 807 l 322 807 l 88 1042 l 360 1042 m 279 756 l 413 313 l 424 313 l 560 756 l 821 756 l 550 6 b 179 -253 489 -160 376 -253 b 39 -233 122 -253 72 -244 l 39 -25 b 129 -40 68 -36 99 -40 b 271 35 215 -40 258 -10 l 279 63 l -11 756 "},"z":{"ha":710,"x_min":0,"x_max":0,"o":"m 675 213 l 675 0 l 39 0 l 39 189 l 339 543 l 35 543 l 35 756 l 667 756 l 667 571 l 365 213 "},"ź":{"ha":710,"x_min":0,"x_max":0,"o":"m 435 807 l 268 807 l 397 1042 l 669 1042 m 675 213 l 675 0 l 39 0 l 39 189 l 339 543 l 35 543 l 35 756 l 667 756 l 667 571 l 365 213 "},"ž":{"ha":710,"x_min":0,"x_max":0,"o":"m 267 807 l 38 1042 l 264 1042 l 350 939 l 436 1042 l 663 1042 l 435 807 m 675 213 l 675 0 l 39 0 l 39 189 l 339 543 l 35 543 l 35 756 l 667 756 l 667 571 l 365 213 "},"ż":{"ha":710,"x_min":0,"x_max":0,"o":"m 483 807 l 218 807 l 218 1042 l 483 1042 m 675 213 l 675 0 l 39 0 l 39 189 l 339 543 l 35 543 l 35 756 l 667 756 l 667 571 l 365 213 "},"ﬁ":{"ha":988,"x_min":0,"x_max":0,"o":"m 7 756 l 157 756 l 157 781 b 447 1056 157 957 274 1056 b 590 1042 510 1056 560 1050 l 590 849 b 529 856 564 854 544 856 b 422 765 457 856 422 825 l 422 756 l 931 756 l 931 0 l 665 0 l 665 543 l 422 543 l 422 0 l 157 0 l 157 543 l 7 543 m 665 1042 l 931 1042 l 931 807 l 665 807 "},"ª":{"ha":629,"x_min":0,"x_max":0,"o":"m 11 603 b 238 785 11 719 97 774 l 376 796 l 376 819 b 303 874 376 858 346 874 b 224 813 253 874 224 849 l 46 813 b 311 1019 42 938 150 1019 b 568 835 476 1019 568 961 l 568 606 b 594 574 568 586 578 574 b 613 576 600 574 608 575 l 613 446 b 518 435 578 439 546 435 b 386 526 432 435 393 474 l 379 526 b 201 433 354 471 282 433 b 11 603 88 433 11 501 m 204 624 b 275 575 204 592 232 575 b 376 665 336 575 376 613 l 376 686 l 275 675 b 204 624 225 669 204 654 "},"º":{"ha":640,"x_min":0,"x_max":0,"o":"m 19 728 b 319 1019 19 900 140 1019 b 621 726 500 1019 621 900 b 319 435 621 554 500 435 b 19 728 140 435 19 554 m 214 726 b 319 590 214 639 258 590 b 425 728 388 590 425 647 b 318 865 425 811 383 865 b 214 726 250 865 214 804 "},"μ":{"ha":874,"x_min":0,"x_max":0,"o":"m 60 756 l 324 756 l 324 285 b 432 185 324 224 368 185 b 551 290 508 185 551 229 l 551 756 l 817 756 l 817 0 l 564 0 l 568 72 l 553 72 b 410 -14 540 13 485 -14 b 310 18 369 -14 328 -3 l 296 18 l 296 -240 l 57 -240 "},"π":{"ha":918,"x_min":0,"x_max":0,"o":"m 903 11 b 775 -8 865 1 810 -8 b 533 226 561 -8 533 115 l 533 582 l 388 582 l 388 0 l 129 0 l 129 582 l 15 582 l 15 756 l 904 756 l 904 582 l 792 582 l 792 243 b 861 179 792 196 821 179 b 903 183 871 179 890 179 l 903 11 "},"ω":{"ha":1093,"x_min":0,"x_max":0,"o":"m 589 386 b 775 601 701 407 775 494 b 546 803 775 722 682 803 b 315 599 408 803 315 721 b 501 386 315 493 389 407 l 501 0 l 92 0 l 92 210 l 292 210 l 292 240 b 43 601 142 299 43 444 b 546 1026 43 857 226 1026 b 1049 601 846 1026 1049 874 b 799 240 1049 444 949 299 l 799 210 l 997 210 l 997 0 l 589 0 "},"➀":{"ha":1261,"x_min":0,"x_max":0,"o":"m 632 -12 b 67 521 313 -12 67 219 b 632 1054 67 818 313 1054 b 1192 521 946 1054 1192 818 b 632 -12 1192 219 946 -12 m 632 54 b 1122 521 907 54 1122 261 b 632 988 1122 782 907 988 b 136 521 353 988 136 782 b 632 54 136 261 353 54 m 738 214 l 738 801 l 615 801 l 615 800 b 482 682 615 739 571 682 l 433 682 l 433 581 l 604 581 l 604 214 "},"➁":{"ha":1263,"x_min":0,"x_max":0,"o":"m 632 1056 b 1193 522 947 1056 1193 822 b 632 -12 1193 221 947 -12 b 67 522 313 -12 67 221 b 632 1056 67 822 313 1056 m 632 54 b 1124 522 908 54 1124 261 b 632 990 1124 783 908 990 b 135 522 351 990 135 783 b 632 54 135 261 351 54 m 843 629 b 593 322 843 467 656 414 l 669 326 l 838 326 l 838 214 l 428 214 l 428 233 b 708 628 428 469 708 500 b 629 699 708 674 675 699 b 550 613 578 699 547 664 l 417 619 b 640 811 419 740 518 811 b 843 629 765 811 843 735 "},"➂":{"ha":1263,"x_min":0,"x_max":0,"o":"m 632 -12 b 67 519 315 -12 67 218 b 632 1056 67 819 315 1056 b 1193 519 944 1056 1193 819 b 632 -12 1193 218 944 -12 m 632 54 b 1124 519 908 54 1124 261 b 632 989 1124 782 908 989 b 135 519 351 989 135 782 b 632 54 135 261 351 54 m 632 206 b 419 392 507 206 418 274 l 551 392 b 628 317 551 350 581 317 b 710 388 676 317 710 347 b 625 457 710 429 672 457 l 568 457 l 568 568 l 608 568 b 694 638 665 568 694 599 b 624 699 694 678 663 699 b 547 624 572 699 549 667 l 415 624 b 628 810 414 731 489 810 b 831 647 750 810 831 743 b 747 524 831 603 806 549 l 747 518 b 844 379 811 494 844 436 b 632 206 844 275 756 206 "},"➃":{"ha":1267,"x_min":0,"x_max":0,"o":"m 67 522 b 632 1056 67 822 314 1056 b 1197 522 949 1056 1197 822 b 632 -12 1197 221 949 -12 b 67 522 314 -12 67 221 m 136 522 b 632 54 136 261 353 54 b 1125 522 911 54 1125 261 b 632 990 1125 783 911 990 b 136 522 353 990 136 783 m 385 471 l 617 801 l 786 801 l 786 479 l 851 479 l 851 368 l 786 368 l 786 214 l 657 214 l 657 368 l 385 368 m 657 479 l 657 664 l 531 479 "},"➄":{"ha":1261,"x_min":0,"x_max":0,"o":"m 632 -12 b 67 519 314 -12 67 218 b 632 1056 67 819 314 1056 b 1192 519 944 1056 1192 819 b 632 -12 1192 218 944 -12 m 632 54 b 1122 519 908 54 1122 261 b 632 990 1122 783 908 990 b 135 519 351 990 135 783 b 632 54 135 261 351 54 m 636 207 b 417 397 511 207 415 282 l 549 397 b 638 318 550 353 583 318 b 729 407 689 318 729 356 b 636 503 729 463 689 503 b 554 454 601 503 565 486 l 429 454 l 429 801 l 822 801 l 822 692 l 557 692 l 557 631 l 554 583 l 560 581 b 664 613 581 601 629 613 b 861 413 781 613 861 528 b 636 207 861 289 772 207 "},"➅":{"ha":1301,"x_min":0,"x_max":0,"o":"m 67 501 b 650 1056 67 813 324 1056 b 1232 501 975 1056 1232 813 b 650 -51 1232 188 972 -51 b 67 501 324 -51 67 189 m 139 501 b 650 18 139 233 360 18 b 1160 501 936 18 1160 233 b 650 989 1160 772 936 989 b 139 501 360 989 139 772 m 410 503 b 653 810 410 694 497 810 b 863 650 765 810 850 746 l 729 650 b 649 700 719 686 681 700 b 546 550 575 700 546 650 l 550 550 b 682 610 571 583 624 610 b 872 411 793 610 872 526 b 647 206 872 290 778 206 b 410 503 496 206 410 314 m 558 407 b 650 317 558 354 594 317 b 740 408 703 317 740 353 b 650 503 740 465 703 503 b 558 407 594 503 558 461 "},"➆":{"ha":1267,"x_min":0,"x_max":0,"o":"m 632 -12 b 67 519 315 -12 67 221 b 632 1056 67 819 315 1056 b 1197 519 949 1056 1197 819 b 632 -12 1197 218 947 -12 m 632 54 b 1125 519 911 54 1125 263 b 632 990 1125 782 911 990 b 136 519 353 990 136 782 b 632 54 136 263 353 54 m 490 214 b 694 692 515 382 592 564 l 529 692 l 529 597 l 431 597 l 431 801 l 857 801 l 857 713 b 629 214 746 575 661 399 l 490 214 "},"➇":{"ha":1263,"x_min":0,"x_max":0,"o":"m 632 -12 b 67 519 315 -12 67 221 b 632 1056 67 819 315 1056 b 1193 519 944 1056 1193 819 b 632 -12 1193 218 943 -12 m 632 54 b 1122 519 907 54 1122 263 b 632 990 1122 782 907 990 b 136 519 353 990 136 782 b 632 54 136 263 353 54 m 629 206 b 406 372 490 206 406 272 b 494 504 406 428 439 481 l 494 511 b 406 643 439 535 406 586 b 629 810 406 750 501 810 b 856 643 771 810 856 740 b 765 511 856 589 822 535 l 765 504 b 856 371 825 481 856 422 b 629 206 856 264 761 206 m 629 558 b 719 628 685 558 719 589 b 629 699 719 671 682 699 b 540 628 574 699 540 668 b 629 558 540 586 578 558 m 629 317 b 719 386 685 317 719 346 b 629 456 719 429 679 456 b 540 386 574 456 540 426 b 629 317 540 342 579 317 "},"➈":{"ha":1267,"x_min":0,"x_max":0,"o":"m 632 -12 b 67 522 317 -12 67 218 b 632 1056 67 821 317 1056 b 1197 522 947 1056 1197 821 b 632 -12 1197 217 946 -12 m 632 54 b 1125 522 911 54 1125 261 b 632 989 1125 783 911 989 b 136 522 353 989 136 783 b 632 54 136 261 353 54 m 633 206 b 424 364 522 206 436 268 l 557 364 b 638 314 568 325 607 314 b 740 464 711 314 740 364 l 736 464 b 604 407 711 425 656 407 b 414 603 492 407 414 488 b 639 810 414 724 506 810 b 874 513 790 810 874 700 b 633 206 874 321 789 206 m 639 511 b 726 607 693 511 726 553 b 639 700 726 660 692 700 b 546 604 581 700 546 658 b 639 511 546 550 581 511 "},"❶":{"ha":1261,"x_min":0,"x_max":0,"o":"m 632 -12 b 67 521 313 -12 67 219 b 632 1054 67 818 313 1054 b 1192 521 946 1054 1192 818 b 632 -12 1192 219 946 -12 m 738 214 l 738 801 l 615 801 l 615 800 b 482 682 615 742 571 682 l 433 682 l 433 581 l 604 581 l 604 214 "},"❷":{"ha":1263,"x_min":0,"x_max":0,"o":"m 632 -12 b 67 522 313 -12 67 221 b 632 1056 67 822 313 1056 b 1193 522 947 1056 1193 822 b 632 -12 1193 221 947 -12 m 838 214 l 838 326 l 669 326 l 593 322 b 843 629 656 414 843 467 b 640 811 843 735 765 811 b 417 619 518 811 419 740 l 550 613 b 629 699 547 664 578 699 b 708 628 675 699 708 674 b 428 233 708 500 428 469 l 428 214 "},"❸":{"ha":1263,"x_min":0,"x_max":0,"o":"m 632 -12 b 67 519 315 -12 67 218 b 632 1056 67 819 315 1056 b 1193 519 944 1056 1193 819 b 632 -12 1193 218 944 -12 m 632 206 b 844 379 756 206 844 275 b 747 518 844 436 811 494 l 747 524 b 831 647 806 549 831 603 b 628 810 831 743 750 810 b 415 624 489 810 414 731 l 547 624 b 624 699 549 667 572 699 b 694 638 663 699 694 678 b 608 568 694 599 665 568 l 568 568 l 568 457 l 625 457 b 710 388 672 457 710 429 b 628 317 710 347 676 317 b 551 392 581 317 551 350 l 419 392 b 632 206 418 274 507 206 "},"❹":{"ha":1267,"x_min":0,"x_max":0,"o":"m 632 -12 b 67 522 314 -12 67 221 b 632 1056 67 822 314 1056 b 1197 522 949 1056 1197 822 b 632 -12 1197 221 949 -12 m 786 214 l 786 368 l 851 368 l 851 479 l 786 479 l 786 801 l 617 801 l 385 471 l 385 368 l 657 368 l 657 214 m 657 664 l 657 479 l 531 479 "},"❺":{"ha":1261,"x_min":0,"x_max":0,"o":"m 632 -12 b 67 519 314 -12 67 218 b 632 1056 67 819 314 1056 b 1192 519 944 1056 1192 819 b 632 -12 1192 218 944 -12 m 636 207 b 861 413 772 207 861 289 b 664 613 861 528 781 613 b 560 581 629 613 581 601 l 554 583 l 557 631 l 557 692 l 822 692 l 822 801 l 429 801 l 429 454 l 554 454 b 636 503 565 486 601 503 b 729 407 689 503 729 463 b 638 318 729 356 689 318 b 549 397 583 318 550 353 l 417 397 b 636 207 415 282 511 207 "},"❻":{"ha":1301,"x_min":0,"x_max":0,"o":"m 650 -51 b 67 501 324 -51 67 189 b 650 1056 67 813 324 1056 b 1232 501 975 1056 1232 813 b 650 -51 1232 188 972 -51 m 647 206 b 872 411 778 206 872 290 b 682 610 872 526 793 610 b 550 550 624 610 571 583 l 546 550 b 649 700 546 650 575 700 b 729 650 681 700 719 686 l 863 650 b 653 810 850 746 765 810 b 410 503 497 810 410 694 b 647 206 410 314 496 206 m 650 317 b 558 407 594 317 558 354 b 650 503 558 461 594 503 b 740 408 703 503 740 465 b 650 317 740 353 703 317 "},"❼":{"ha":1267,"x_min":0,"x_max":0,"o":"m 632 -12 b 67 519 315 -12 67 221 b 632 1056 67 819 315 1056 b 1197 519 949 1056 1197 819 b 632 -12 1197 218 947 -12 m 629 214 b 857 713 663 400 744 574 l 857 801 l 431 801 l 431 597 l 529 597 l 529 692 l 694 692 b 490 214 592 563 514 382 "},"❽":{"ha":1263,"x_min":0,"x_max":0,"o":"m 632 -12 b 67 519 315 -12 67 221 b 632 1056 67 819 315 1056 b 1193 519 944 1056 1193 819 b 632 -12 1193 218 943 -12 m 629 206 b 856 371 761 206 856 264 b 765 504 856 422 825 481 l 765 511 b 856 643 822 535 856 589 b 629 810 856 740 771 810 b 406 643 501 810 406 750 b 494 511 406 586 439 535 l 494 504 b 406 372 439 481 406 428 b 629 206 406 272 490 206 m 629 558 b 540 628 578 558 540 586 b 629 699 540 668 574 699 b 719 628 682 699 719 671 b 629 558 719 589 685 558 m 629 317 b 540 386 579 317 540 342 b 629 456 540 426 574 456 b 719 386 679 456 719 429 b 629 317 719 346 685 317 "},"❾":{"ha":1267,"x_min":0,"x_max":0,"o":"m 632 -12 b 67 522 317 -12 67 218 b 632 1056 67 821 317 1056 b 1197 522 947 1056 1197 821 b 632 -12 1197 217 946 -12 m 633 206 b 874 513 789 206 874 321 b 639 810 874 700 790 810 b 414 603 506 810 414 724 b 604 407 414 488 492 407 b 736 464 656 407 711 425 l 740 464 b 638 314 740 364 711 314 b 557 364 607 314 568 325 l 424 364 b 633 206 436 268 522 206 m 639 511 b 546 604 581 511 546 550 b 639 700 546 658 581 700 b 726 607 692 700 726 660 b 639 511 726 553 693 511 "},"₀":{"ha":697,"x_min":0,"x_max":0,"o":"m 347 -146 b 32 256 151 -146 32 10 b 351 651 32 511 163 651 b 664 253 546 651 664 497 b 347 -146 664 -4 535 -146 m 347 21 b 464 247 443 21 464 117 b 350 488 464 446 415 488 b 232 263 253 488 232 390 b 347 21 232 67 281 21 "},"₁":{"ha":501,"x_min":0,"x_max":0,"o":"m 21 503 l 56 503 b 247 642 167 503 239 563 l 426 642 l 426 -139 l 235 -139 l 235 357 l 21 357 "},"₂":{"ha":644,"x_min":0,"x_max":0,"o":"m 619 29 l 619 -139 l 25 -139 l 25 -112 b 414 397 25 178 414 243 b 321 488 414 454 376 488 b 218 379 257 488 214 449 l 32 379 b 328 651 25 546 147 651 b 613 411 490 651 613 564 b 268 17 613 204 357 125 b 419 29 324 28 378 29 "},"₃":{"ha":675,"x_min":0,"x_max":0,"o":"m 332 -150 b 28 104 144 -150 31 -49 l 218 104 b 333 14 218 47 267 14 b 447 106 403 14 447 50 b 346 193 447 163 407 193 l 246 193 l 246 324 l 329 324 b 436 407 401 324 436 360 b 333 489 436 460 394 489 b 226 403 272 489 229 458 l 32 403 b 343 651 38 554 160 651 b 632 438 511 651 632 569 b 521 268 632 356 585 293 l 521 261 b 643 88 604 238 643 167 b 332 -150 643 -56 514 -150 "},"₄":{"ha":696,"x_min":0,"x_max":0,"o":"m 676 218 l 676 63 l 589 63 l 589 -139 l 397 -139 l 397 63 l 26 63 l 26 206 l 325 642 l 589 642 l 589 218 m 397 218 l 397 474 l 221 218 "},"₅":{"ha":674,"x_min":0,"x_max":0,"o":"m 372 390 b 643 126 539 390 643 278 b 333 -150 643 -39 524 -150 b 28 108 147 -150 28 -44 l 221 108 b 335 17 222 54 265 17 b 450 121 403 17 450 61 b 331 231 450 182 404 231 b 225 168 278 231 238 204 l 43 168 l 65 642 l 585 642 l 585 475 l 233 475 l 228 360 l 236 357 b 372 390 263 376 321 390 "},"₆":{"ha":686,"x_min":0,"x_max":0,"o":"m 353 -149 b 32 249 142 -149 32 -7 b 361 651 32 521 157 651 b 643 443 521 651 622 571 l 453 443 b 357 493 442 476 401 493 b 228 324 269 493 221 431 l 236 324 b 400 392 263 361 318 392 b 658 131 553 392 658 286 b 353 -149 658 -36 539 -149 m 357 17 b 468 126 424 17 468 61 b 357 238 468 192 424 238 b 246 125 288 238 246 190 b 357 17 246 58 290 17 "},"₇":{"ha":664,"x_min":0,"x_max":0,"o":"m 17 642 l 647 642 l 647 503 b 363 -139 481 315 363 167 l 157 -139 b 419 475 157 100 256 300 l 169 475 l 169 353 l 17 353 "},"₈":{"ha":674,"x_min":0,"x_max":0,"o":"m 29 69 b 144 247 29 151 71 215 l 144 257 b 29 433 71 289 29 354 b 338 651 29 564 153 651 b 644 435 521 651 644 564 b 529 257 644 356 603 289 l 529 247 b 644 69 603 215 644 150 b 336 -150 644 -61 521 -150 b 29 69 154 -150 29 -61 m 226 407 b 336 329 226 358 271 329 b 447 407 407 329 447 361 b 336 488 447 458 401 488 b 226 407 267 488 226 456 m 226 94 b 336 15 226 43 272 15 b 447 94 406 15 447 47 b 336 175 447 144 403 175 b 226 94 268 175 226 143 "},"₉":{"ha":682,"x_min":0,"x_max":0,"o":"m 318 -149 b 40 60 164 -149 60 -65 l 231 60 b 329 10 242 26 282 10 b 454 179 419 10 461 76 l 446 179 b 285 113 417 138 356 113 b 24 374 129 113 24 217 b 326 651 24 540 144 651 b 650 244 540 651 650 501 b 318 -149 650 -7 544 -149 m 325 267 b 438 378 394 267 438 313 b 325 486 438 446 392 486 b 214 376 258 486 214 442 b 325 267 214 311 260 267 "},"⁰":{"ha":697,"x_min":0,"x_max":0,"o":"m 347 364 b 32 765 151 364 32 519 b 351 1161 32 1021 163 1161 b 664 763 546 1161 664 1007 b 347 364 664 506 535 364 m 347 531 b 464 757 443 531 464 626 b 350 997 464 956 415 997 b 232 772 253 997 232 900 b 347 531 232 576 281 531 "},"¹":{"ha":501,"x_min":0,"x_max":0,"o":"m 21 1013 l 56 1013 b 247 1151 167 1013 239 1072 l 426 1151 l 426 371 l 235 371 l 235 867 l 21 867 "},"²":{"ha":644,"x_min":0,"x_max":0,"o":"m 619 539 l 619 371 l 25 371 l 25 397 b 414 907 25 688 414 753 b 321 997 414 964 376 997 b 218 889 257 997 214 958 l 32 889 b 328 1161 25 1056 147 1161 b 613 921 490 1161 613 1074 b 268 526 613 714 357 635 b 419 539 324 538 378 539 "},"³":{"ha":675,"x_min":0,"x_max":0,"o":"m 332 358 b 28 613 144 358 31 460 l 218 613 b 333 522 218 556 267 522 b 447 614 403 522 447 558 b 346 701 447 671 407 701 l 246 701 l 246 832 l 329 832 b 436 915 401 832 436 868 b 333 997 436 968 394 997 b 226 911 272 997 229 967 l 32 911 b 343 1160 38 1063 160 1160 b 632 946 511 1160 632 1078 b 521 776 632 864 585 801 l 521 769 b 643 596 604 746 643 675 b 332 358 643 453 514 358 "},"⁴":{"ha":696,"x_min":0,"x_max":0,"o":"m 676 728 l 676 572 l 589 572 l 589 371 l 397 371 l 397 572 l 26 572 l 26 715 l 325 1151 l 589 1151 l 589 728 m 397 728 l 397 983 l 221 728 "},"⁵":{"ha":674,"x_min":0,"x_max":0,"o":"m 372 900 b 643 636 539 900 643 788 b 333 360 643 471 524 360 b 28 618 147 360 28 465 l 221 618 b 335 526 222 564 265 526 b 450 631 403 526 450 571 b 331 740 450 692 404 740 b 225 678 278 740 238 714 l 43 678 l 65 1151 l 585 1151 l 585 985 l 233 985 l 228 869 l 236 867 b 372 900 263 886 321 900 "},"⁶":{"ha":686,"x_min":0,"x_max":0,"o":"m 353 361 b 32 758 142 361 32 503 b 361 1161 32 1031 157 1161 b 643 953 521 1161 622 1081 l 453 953 b 357 1003 442 986 401 1003 b 228 833 269 1003 221 940 l 236 833 b 400 901 263 871 318 901 b 658 640 553 901 658 796 b 353 361 658 474 539 361 m 357 526 b 468 636 424 526 468 571 b 357 747 468 701 424 747 b 246 635 288 747 246 700 b 357 526 246 568 290 526 "},"⁷":{"ha":664,"x_min":0,"x_max":0,"o":"m 17 1151 l 647 1151 l 647 1013 b 363 371 481 825 363 676 l 157 371 b 419 985 157 610 256 810 l 169 985 l 169 863 l 17 863 "},"⁸":{"ha":674,"x_min":0,"x_max":0,"o":"m 29 579 b 144 757 29 661 71 725 l 144 767 b 29 943 71 799 29 864 b 338 1161 29 1074 153 1161 b 644 944 521 1161 644 1074 b 529 767 644 865 603 799 l 529 757 b 644 579 603 725 644 660 b 336 360 644 449 521 360 b 29 579 154 360 29 449 m 226 917 b 336 839 226 868 271 839 b 447 917 407 839 447 871 b 336 997 447 968 401 997 b 226 917 267 997 226 965 m 226 604 b 336 525 226 553 272 525 b 447 604 406 525 447 557 b 336 685 447 654 403 685 b 226 604 268 685 226 653 "},"⁹":{"ha":682,"x_min":0,"x_max":0,"o":"m 318 361 b 40 569 164 361 60 444 l 231 569 b 329 519 242 536 282 519 b 454 689 419 519 461 586 l 446 689 b 285 622 417 647 356 622 b 24 883 129 622 24 726 b 326 1161 24 1050 144 1161 b 650 754 540 1161 650 1011 b 318 361 650 503 544 361 m 325 776 b 438 888 394 776 438 822 b 325 996 438 956 392 996 b 214 886 258 996 214 951 b 325 776 214 821 260 776 "},"⁄":{"ha":488,"x_min":0,"x_max":0,"o":"m 444 1067 l 644 1067 l 39 -64 l -160 -64 "},"½":{"ha":1461,"x_min":0,"x_max":0,"o":"m 1079 1067 l 474 -64 l 275 -64 l 879 1067 m 207 356 l 207 767 l 25 767 l 25 894 l 90 894 b 217 1008 175 894 217 938 l 217 1013 l 371 1013 l 371 356 m 1238 139 l 1419 139 l 1419 0 l 957 0 l 957 22 b 1263 468 957 293 1263 329 b 1185 539 1263 514 1231 539 b 1107 447 1132 539 1104 503 l 943 456 b 1196 675 947 588 1047 675 b 1428 467 1344 675 1428 589 b 1163 135 1428 292 1238 231 "},"¼":{"ha":1411,"x_min":0,"x_max":0,"o":"m 1079 1067 l 474 -64 l 275 -64 l 879 1067 m 207 356 l 207 767 l 25 767 l 25 894 l 90 894 b 217 1008 175 894 217 938 l 217 1013 l 371 1013 l 371 356 m 1418 294 l 1418 154 l 1351 154 l 1351 0 l 1190 0 l 1190 154 l 889 154 l 889 283 l 1108 667 l 1351 667 l 1351 294 m 1190 294 l 1190 507 l 1069 294 "},"¾":{"ha":1507,"x_min":0,"x_max":0,"o":"m 1175 1067 l 569 -64 l 371 -64 l 975 1067 m 501 540 b 261 344 501 424 401 344 b 19 551 115 344 18 428 l 182 551 b 258 483 183 515 214 483 b 335 551 304 483 335 513 b 253 617 335 592 300 617 l 189 617 l 189 760 l 233 760 b 319 826 292 760 319 789 b 251 882 319 865 288 882 b 178 814 206 882 176 854 l 14 814 b 257 1021 13 936 100 1021 b 486 843 400 1021 486 946 b 393 704 486 799 471 738 l 393 697 b 501 540 465 669 501 614 m 1514 294 l 1514 154 l 1447 154 l 1447 0 l 1286 0 l 1286 154 l 985 154 l 985 283 l 1204 667 l 1447 667 l 1447 294 m 1286 294 l 1286 507 l 1165 294 "},"⅛":{"ha":1474,"x_min":0,"x_max":0,"o":"m 879 1067 l 1079 1067 l 474 -64 l 275 -64 m 25 894 l 90 894 b 217 1008 175 894 217 938 l 217 1013 l 371 1013 l 371 356 l 207 356 l 207 767 l 25 767 m 943 181 b 1043 329 943 251 981 304 l 1043 338 b 943 488 978 363 943 422 b 1201 675 943 610 1049 675 b 1454 488 1361 675 1454 599 b 1357 338 1454 425 1422 364 l 1357 329 b 1454 179 1422 303 1454 250 b 1197 -10 1454 58 1351 -10 b 943 181 1038 -10 943 67 m 1111 468 b 1199 400 1111 425 1149 400 b 1288 468 1253 400 1288 429 b 1199 536 1288 510 1250 536 b 1111 468 1144 536 1111 507 m 1111 197 b 1199 128 1111 157 1146 128 b 1288 197 1253 128 1288 158 b 1199 268 1288 240 1251 268 b 1111 197 1147 268 1111 239 "},"⅜":{"ha":1569,"x_min":0,"x_max":0,"o":"m 975 1067 l 1175 1067 l 569 -64 l 371 -64 m 261 344 b 19 551 115 344 18 428 l 182 551 b 258 483 183 515 214 483 b 335 551 304 483 335 513 b 253 617 335 592 300 617 l 189 617 l 189 760 l 233 760 b 319 826 292 760 319 789 b 251 882 319 865 288 882 b 178 814 206 882 176 854 l 14 814 b 257 1021 13 936 100 1021 b 486 843 400 1021 486 946 b 393 704 486 799 471 738 l 393 697 b 501 540 465 669 501 614 b 261 344 501 424 401 344 m 1039 181 b 1139 329 1039 251 1076 304 l 1139 338 b 1039 488 1074 363 1039 422 b 1297 675 1039 610 1144 675 b 1550 488 1457 675 1550 599 b 1453 338 1550 425 1518 364 l 1453 329 b 1550 179 1518 303 1550 250 b 1293 -10 1550 58 1447 -10 b 1039 181 1133 -10 1039 67 m 1207 468 b 1294 400 1207 425 1244 400 b 1383 468 1349 400 1383 429 b 1294 536 1383 510 1346 536 b 1207 468 1240 536 1207 507 m 1207 197 b 1294 128 1207 157 1242 128 b 1383 197 1349 128 1383 158 b 1294 268 1383 240 1347 268 b 1207 197 1243 268 1207 239 "},"⅝":{"ha":1604,"x_min":0,"x_max":0,"o":"m 1010 1067 l 1210 1067 l 604 -64 l 406 -64 m 193 561 b 283 482 193 514 233 482 b 372 574 335 482 372 522 b 279 667 372 628 332 667 b 196 614 233 667 206 640 l 42 614 l 42 1013 l 492 1013 l 492 874 l 201 874 l 201 821 l 197 775 l 203 771 b 314 801 225 790 275 801 b 538 578 450 801 538 704 b 281 344 538 439 435 344 b 28 561 131 344 29 432 m 1074 181 b 1174 329 1074 251 1111 304 l 1174 338 b 1074 488 1108 363 1074 422 b 1332 675 1074 610 1179 675 b 1585 488 1492 675 1585 599 b 1488 338 1585 425 1553 364 l 1488 329 b 1585 179 1553 303 1585 250 b 1328 -10 1585 58 1482 -10 b 1074 181 1168 -10 1074 67 m 1242 468 b 1329 400 1242 425 1279 400 b 1418 468 1383 400 1418 429 b 1329 536 1418 510 1381 536 b 1242 468 1275 536 1242 507 m 1242 197 b 1329 128 1242 157 1276 128 b 1418 197 1383 128 1418 158 b 1329 268 1418 240 1382 268 b 1242 197 1278 268 1242 239 "},"⅞":{"ha":1465,"x_min":0,"x_max":0,"o":"m 1071 1067 l 465 -64 l 267 -64 l 871 1067 m 496 897 b 235 356 357 753 267 546 l 74 356 b 296 874 94 518 174 724 l 132 874 l 132 772 l 8 772 l 8 1013 l 496 1013 m 1349 329 b 1446 179 1414 303 1446 250 b 1189 -10 1446 58 1343 -10 b 935 181 1029 -10 935 67 b 1035 329 935 251 972 304 l 1035 338 b 935 488 969 363 935 422 b 1193 675 935 610 1040 675 b 1446 488 1353 675 1446 599 b 1349 338 1446 425 1414 364 l 1349 329 m 1190 400 b 1279 468 1244 400 1279 429 b 1190 536 1279 510 1242 536 b 1103 468 1136 536 1103 507 b 1190 400 1103 425 1140 400 m 1190 128 b 1279 197 1244 128 1279 158 b 1190 268 1279 240 1243 268 b 1103 197 1139 268 1103 239 b 1190 128 1103 157 1138 128 "},".":{"ha":294,"x_min":0,"x_max":0,"o":"m 28 240 l 267 240 l 267 0 l 28 0 "},",":{"ha":304,"x_min":0,"x_max":0,"o":"m 11 -117 b 153 -4 115 -117 153 -72 l 153 0 l 38 0 l 38 240 l 276 240 l 276 10 b 11 -204 276 -128 171 -204 "},":":{"ha":374,"x_min":0,"x_max":0,"o":"m 65 756 l 304 756 l 304 515 l 65 515 m 65 240 l 304 240 l 304 0 l 65 0 "},";":{"ha":303,"x_min":0,"x_max":0,"o":"m 36 756 l 275 756 l 275 515 l 36 515 m 11 -122 b 151 -12 124 -122 151 -82 l 151 0 l 36 0 l 36 240 l 275 240 l 275 22 b 11 -204 275 -144 172 -204 "},"…":{"ha":1163,"x_min":0,"x_max":0,"o":"m 69 260 l 308 260 l 308 0 l 69 0 m 463 260 l 700 260 l 700 0 l 463 0 m 853 260 l 1093 260 l 1093 0 l 853 0 "},"!":{"ha":417,"x_min":0,"x_max":0,"o":"m 72 839 l 72 1013 l 342 1013 l 342 839 l 276 328 l 140 328 m 67 247 l 347 247 l 347 0 l 67 0 "},"¡":{"ha":417,"x_min":0,"x_max":0,"o":"m 347 756 l 347 507 l 67 507 l 67 756 m 276 428 l 342 -117 l 342 -257 l 72 -257 l 72 -117 l 140 428 "},"?":{"ha":856,"x_min":0,"x_max":0,"o":"m 29 703 b 435 1025 36 901 203 1025 b 822 718 668 1025 822 915 b 625 447 822 564 711 486 l 496 389 l 496 307 l 257 307 l 257 479 l 438 556 b 557 688 528 593 557 638 b 418 800 557 763 500 800 b 282 703 342 800 292 767 l 29 703 m 250 238 l 504 238 l 504 0 l 250 0 "},"¿":{"ha":856,"x_min":0,"x_max":0,"o":"m 606 775 l 351 775 l 351 1013 l 606 1013 m 826 310 b 421 -12 819 111 653 -12 b 33 294 188 -12 33 97 b 231 565 33 449 144 526 l 360 624 l 360 706 l 599 706 l 599 533 l 418 457 b 299 325 328 419 299 375 b 438 213 299 250 356 213 b 574 310 514 213 564 246 l 826 310 "},"·":{"ha":475,"x_min":0,"x_max":0,"o":"m 69 393 b 238 565 69 489 146 565 b 406 393 329 565 406 488 b 238 225 406 301 329 225 b 69 393 146 225 69 300 "},"•":{"ha":546,"x_min":0,"x_max":0,"o":"m 46 385 b 275 615 46 518 140 615 b 501 385 407 615 501 517 b 275 160 501 251 407 160 b 46 385 140 160 46 250 "},"*":{"ha":501,"x_min":0,"x_max":0,"o":"m 192 794 l 35 860 l 86 947 l 221 849 l 200 1013 l 303 1013 l 282 849 l 415 947 l 468 860 l 311 794 l 468 731 l 415 642 l 282 743 l 303 579 l 200 579 l 221 743 l 86 642 l 35 731 "},"#":{"ha":992,"x_min":0,"x_max":0,"o":"m 768 647 l 768 400 l 936 400 l 936 289 l 768 289 l 768 0 l 647 0 l 647 289 l 346 289 l 346 0 l 222 0 l 222 289 l 53 289 l 53 400 l 222 400 l 222 647 l 53 647 l 53 757 l 222 757 l 222 1042 l 346 1042 l 346 757 l 647 757 l 647 1042 l 768 1042 l 768 757 l 936 757 l 936 647 m 647 647 l 346 647 l 346 400 l 647 400 "},"/":{"ha":551,"x_min":0,"x_max":0,"o":"m 403 1042 l 538 1042 l 147 0 l 14 0 "},"\\":{"ha":551,"x_min":0,"x_max":0,"o":"m 404 0 l 14 1042 l 149 1042 l 538 0 "},"(":{"ha":519,"x_min":0,"x_max":0,"o":"m 54 446 b 379 1076 54 704 185 956 l 525 1076 b 183 446 325 956 183 703 b 525 -183 183 192 325 -64 l 379 -183 b 54 446 185 -64 54 188 "},")":{"ha":501,"x_min":0,"x_max":0,"o":"m 465 446 b 140 -183 465 183 335 -64 l -6 -183 b 336 446 194 -64 336 190 b -6 1076 336 703 194 956 l 140 1076 b 465 446 335 956 465 706 "},"{":{"ha":590,"x_min":0,"x_max":0,"o":"m 43 546 l 72 546 b 178 651 144 546 178 590 l 178 944 b 314 1076 178 1021 222 1076 l 569 1076 l 569 885 l 413 885 l 413 619 b 297 456 413 528 371 469 l 297 451 b 413 285 375 431 413 369 l 413 3 l 569 3 l 569 -183 l 314 -183 b 178 -51 228 -183 178 -135 l 178 250 b 72 353 178 325 129 353 l 43 353 "},"}":{"ha":590,"x_min":0,"x_max":0,"o":"m 518 353 b 413 250 461 353 413 325 l 413 -51 b 276 -183 413 -135 363 -183 l 21 -183 l 21 3 l 178 3 l 178 285 b 293 451 178 369 215 431 l 293 456 b 178 619 219 469 178 528 l 178 885 l 21 885 l 21 1076 l 276 1076 b 413 944 368 1076 413 1021 l 413 651 b 518 546 413 590 446 546 l 547 546 l 547 353 "},"[":{"ha":454,"x_min":0,"x_max":0,"o":"m 75 1076 l 433 1076 l 433 885 l 310 885 l 310 3 l 433 3 l 433 -183 l 75 -183 "},"]":{"ha":454,"x_min":0,"x_max":0,"o":"m 21 3 l 144 3 l 144 885 l 21 885 l 21 1076 l 379 1076 l 379 -183 l 21 -183 "},"【":{"ha":613,"x_min":0,"x_max":0,"o":"m 626 1076 b 300 446 431 947 300 694 b 626 -183 300 196 431 -56 l 118 -183 l 118 1076 "},"】":{"ha":613,"x_min":0,"x_max":0,"o":"m 494 -183 l -14 -183 b 313 446 182 -56 313 196 b -14 1076 313 694 182 947 l 494 1076 "},"-":{"ha":660,"x_min":0,"x_max":0,"o":"m 60 486 l 600 486 l 600 347 l 60 347 "},"–":{"ha":917,"x_min":0,"x_max":0,"o":"m 60 486 l 857 486 l 857 347 l 60 347 "},"—":{"ha":1203,"x_min":0,"x_max":0,"o":"m 60 486 l 1143 486 l 1143 347 l 60 347 "},"_":{"ha":503,"x_min":0,"x_max":0,"o":"m 0 0 l 503 0 l 503 -183 l 0 -183 "},"‚":{"ha":304,"x_min":0,"x_max":0,"o":"m 11 -117 b 153 -4 115 -117 153 -72 l 153 0 l 38 0 l 38 240 l 276 240 l 276 10 b 11 -204 276 -128 171 -204 "},"„":{"ha":619,"x_min":0,"x_max":0,"o":"m 11 -117 b 153 -4 115 -117 153 -72 l 153 0 l 38 0 l 38 240 l 276 240 l 276 10 b 11 -204 276 -128 171 -204 m 326 -117 b 468 -4 431 -117 468 -72 l 468 0 l 353 0 l 353 240 l 592 240 l 592 10 b 326 -204 592 -128 486 -204 "},"“":{"ha":622,"x_min":0,"x_max":0,"o":"m 306 939 b 164 826 201 939 164 894 l 164 822 l 279 822 l 279 582 l 40 582 l 40 813 b 306 1026 40 950 146 1026 m 611 939 b 469 826 507 939 469 894 l 469 822 l 585 822 l 585 582 l 346 582 l 346 813 b 611 1026 346 950 451 1026 "},"”":{"ha":610,"x_min":0,"x_max":0,"o":"m 11 669 b 153 782 115 669 153 714 l 153 786 l 38 786 l 38 1026 l 276 1026 l 276 796 b 11 582 276 658 171 582 m 317 669 b 458 782 421 669 458 714 l 458 786 l 343 786 l 343 1026 l 582 1026 l 582 796 b 317 582 582 658 476 582 "},"‘":{"ha":304,"x_min":0,"x_max":0,"o":"m 293 940 b 151 828 189 940 151 896 l 151 824 l 267 824 l 267 583 l 28 583 l 28 814 b 293 1028 28 951 133 1028 "},"’":{"ha":304,"x_min":0,"x_max":0,"o":"m 11 656 b 153 768 115 656 153 700 l 153 772 l 38 772 l 38 1013 l 276 1013 l 276 782 b 11 568 276 644 171 568 "},"«":{"ha":819,"x_min":0,"x_max":0,"o":"m 208 683 l 432 683 l 276 381 l 432 75 l 208 75 l 35 381 m 571 683 l 797 683 l 639 381 l 797 75 l 571 75 l 399 381 "},"»":{"ha":819,"x_min":0,"x_max":0,"o":"m 250 75 l 25 75 l 183 381 l 25 683 l 250 683 l 422 381 m 614 75 l 388 75 l 546 381 l 388 683 l 614 683 l 786 381 "},"‹":{"ha":447,"x_min":0,"x_max":0,"o":"m 194 683 l 418 683 l 258 381 l 418 75 l 194 75 l 21 381 "},"›":{"ha":446,"x_min":0,"x_max":0,"o":"m 254 75 l 29 75 l 188 381 l 29 683 l 254 683 l 425 381 "},"\"":{"ha":644,"x_min":0,"x_max":0,"o":"m 56 561 l 56 1042 l 265 1042 l 265 561 m 378 561 l 378 1042 l 589 1042 l 589 561 "},"'":{"ha":321,"x_min":0,"x_max":0,"o":"m 56 561 l 56 1042 l 265 1042 l 265 561 "}," ":{"ha":222,"x_min":0,"x_max":0,"o":""},"€":{"ha":1111,"x_min":0,"x_max":0,"o":"m 611 232 b 756 311 686 232 732 261 l 1049 311 b 611 -12 1013 111 847 -12 b 163 313 379 -12 222 113 l 63 313 l 63 474 l 136 474 l 136 507 b 136 539 136 518 136 528 l 63 539 l 63 697 l 161 697 b 613 1025 222 908 389 1025 b 1049 703 850 1025 1013 897 l 756 703 b 611 782 732 760 676 782 b 460 697 540 782 490 750 l 711 697 l 690 539 l 421 539 b 419 507 419 528 419 518 b 421 474 419 496 419 485 l 681 474 l 656 313 l 463 313 b 611 232 497 257 549 232 "},"₿":{"ha":881,"x_min":0,"x_max":0,"o":"m 818 328 b 558 69 818 219 750 90 l 558 -11 l 399 -11 l 399 67 l 324 67 l 324 -11 l 164 -11 l 164 67 l 63 67 l 63 981 l 164 981 l 164 1056 l 324 1056 l 324 981 l 399 981 l 399 1056 l 558 1056 l 558 975 b 792 729 706 951 792 860 b 688 540 792 646 753 579 b 818 328 771 504 818 425 m 331 626 l 417 626 b 513 717 468 626 513 658 b 417 789 513 764 469 789 l 331 789 m 331 258 l 419 258 b 536 353 451 258 536 264 b 419 439 536 428 457 439 l 331 439 "},"¢":{"ha":851,"x_min":0,"x_max":0,"o":"m 428 358 b 525 429 479 358 518 386 l 785 429 b 507 154 774 283 665 179 l 507 42 l 346 42 l 346 156 b 63 506 174 186 63 308 b 346 857 63 697 171 826 l 346 971 l 507 971 l 507 858 b 789 582 668 833 776 729 l 528 582 b 426 656 521 626 479 656 b 319 506 347 656 319 592 b 428 358 319 393 364 358 "},"¤":{"ha":932,"x_min":0,"x_max":0,"o":"m 181 288 b 181 656 89 403 92 539 l 63 760 l 185 883 l 293 763 b 646 768 406 821 531 829 l 750 883 l 869 758 l 763 661 b 760 282 840 554 856 411 l 869 181 l 753 61 l 647 179 b 294 185 525 114 400 124 l 183 61 l 64 183 m 343 471 b 468 351 343 404 399 351 b 594 472 536 351 594 401 b 468 593 594 546 535 593 b 343 471 397 593 343 538 "},"$":{"ha":897,"x_min":0,"x_max":0,"o":"m 842 360 b 510 71 842 200 711 89 l 510 -12 l 376 -12 l 376 72 b 57 369 171 93 57 207 l 321 369 b 397 278 321 321 344 289 l 397 418 l 311 436 b 56 693 135 474 56 569 b 376 986 56 867 183 968 l 376 1069 l 510 1069 l 510 986 b 813 714 697 965 813 860 l 554 714 b 489 789 554 751 532 778 l 489 656 l 597 632 b 842 360 760 596 842 511 m 338 735 b 397 676 338 700 365 686 l 397 792 b 338 735 356 783 338 764 m 489 275 b 557 336 540 283 557 307 b 489 399 557 381 519 392 l 489 275 "},"ƒ":{"ha":1013,"x_min":0,"x_max":0,"o":"m 63 14 l 318 14 l 378 444 l 199 444 l 199 654 l 407 654 l 426 792 b 678 1013 443 910 489 1013 l 950 1013 l 950 801 l 692 801 l 672 654 l 854 654 l 854 444 l 642 444 l 586 24 b 335 -197 574 -81 536 -197 l 63 -197 "},"₲":{"ha":1011,"x_min":0,"x_max":0,"o":"m 949 585 l 949 517 b 578 92 949 253 797 115 l 578 -11 l 417 -11 l 417 96 b 63 515 199 128 63 278 b 417 953 63 756 200 915 l 417 1056 l 578 1056 l 578 958 b 935 660 778 940 910 825 l 646 660 b 511 728 632 701 583 728 b 347 526 399 728 347 651 b 517 317 347 386 411 317 b 676 397 607 317 661 350 l 479 397 l 479 585 "},"₺":{"ha":1074,"x_min":0,"x_max":0,"o":"m 1011 494 b 388 1 954 197 731 4 l 174 0 l 174 325 l 63 285 l 63 482 l 174 524 l 174 614 l 63 574 l 63 769 l 174 814 l 174 1013 l 438 1013 l 438 917 l 607 979 l 607 782 l 438 717 l 438 626 l 607 690 l 607 493 l 438 429 l 438 256 b 736 494 585 258 694 357 l 1011 494 "},"₼":{"ha":1196,"x_min":0,"x_max":0,"o":"m 63 429 b 461 910 63 751 221 882 l 461 1013 l 732 1013 l 732 910 b 1133 429 1024 875 1133 696 l 1133 0 l 867 0 l 867 429 b 732 651 867 581 813 635 l 732 0 l 461 0 l 461 651 b 329 429 357 635 329 547 l 329 0 l 63 0 "},"₦":{"ha":1236,"x_min":0,"x_max":0,"o":"m 1174 428 l 1044 428 l 1044 0 l 736 0 l 542 428 l 440 428 l 443 356 l 443 0 l 179 0 l 179 428 l 63 428 l 63 583 l 179 583 l 179 1013 l 489 1013 l 681 583 l 783 583 l 781 660 l 781 1013 l 1044 1013 l 1044 583 l 1174 583 m 471 583 l 443 644 l 432 644 l 435 583 m 790 428 l 751 428 l 781 361 l 793 361 "},"₽":{"ha":1044,"x_min":0,"x_max":0,"o":"m 440 321 l 440 274 l 650 274 l 650 115 l 440 115 l 440 0 l 176 0 l 176 115 l 63 115 l 63 274 l 176 274 l 176 322 l 63 322 l 63 499 l 176 499 l 176 1013 l 592 1013 b 982 665 821 1013 982 868 b 594 321 982 467 825 321 m 701 663 b 544 778 701 746 638 778 l 440 778 l 440 543 l 544 543 b 701 663 651 543 701 596 "},"₹":{"ha":878,"x_min":0,"x_max":0,"o":"m 63 485 l 258 485 b 404 564 347 485 392 517 l 63 564 l 63 725 l 397 725 b 258 797 383 771 338 797 l 63 797 l 63 1013 l 815 1013 l 815 851 l 635 851 b 707 725 672 819 697 775 l 815 725 l 815 564 l 703 564 b 494 356 689 467 606 383 l 494 344 b 642 196 575 324 594 281 l 751 0 l 458 0 l 338 204 b 190 293 307 256 289 293 l 63 293 "},"₪":{"ha":1081,"x_min":0,"x_max":0,"o":"m 274 804 l 274 0 l 63 0 l 63 1013 l 572 1013 b 756 828 668 1013 756 972 l 756 264 l 565 264 l 565 804 m 1018 1013 l 1018 0 l 508 0 b 325 185 413 0 325 40 l 325 750 l 514 750 l 514 210 l 807 210 l 807 1013 "},"£":{"ha":997,"x_min":0,"x_max":0,"o":"m 935 332 l 935 0 l 63 0 l 63 225 l 158 225 l 158 406 l 63 406 l 63 615 l 158 615 l 158 694 b 532 1025 158 899 308 1025 b 890 729 736 1025 881 907 l 618 729 b 528 790 608 774 571 790 b 432 694 472 790 432 764 l 432 615 l 751 615 l 751 406 l 432 406 l 432 225 l 710 225 l 710 332 "},"₸":{"ha":950,"x_min":0,"x_max":0,"o":"m 888 1013 l 888 804 l 63 804 l 63 1013 m 63 731 l 888 731 l 888 503 l 603 503 l 603 0 l 340 0 l 340 503 l 63 503 "},"₩":{"ha":1457,"x_min":0,"x_max":0,"o":"m 1394 428 l 1254 428 l 1171 0 l 779 0 l 749 428 l 696 428 l 671 0 l 283 0 l 200 428 l 63 428 l 63 583 l 171 583 l 88 1013 l 379 1013 l 439 583 l 513 583 l 551 1013 l 883 1013 l 929 583 l 1007 583 l 1064 1013 l 1368 1013 l 1285 583 l 1394 583 m 738 583 l 725 757 l 714 757 l 704 583 m 497 428 l 457 428 l 475 274 l 483 274 m 989 428 l 946 428 l 963 271 l 974 271 "},"¥":{"ha":1117,"x_min":0,"x_max":0,"o":"m 824 576 l 904 576 l 904 365 l 699 365 l 699 311 l 904 311 l 904 101 l 699 101 l 699 0 l 419 0 l 419 101 l 214 101 l 214 311 l 419 311 l 419 365 l 214 365 l 214 576 l 294 576 l 35 1013 l 365 1013 l 493 744 l 550 604 l 563 604 l 624 746 l 754 1013 l 1082 1013 "},"+":{"ha":878,"x_min":0,"x_max":0,"o":"m 557 111 l 321 111 l 321 363 l 69 363 l 69 565 l 321 565 l 321 817 l 557 817 l 557 565 l 808 565 l 808 363 l 557 363 "},"−":{"ha":740,"x_min":0,"x_max":0,"o":"m 671 565 l 671 363 l 69 363 l 69 565 "},"×":{"ha":789,"x_min":0,"x_max":0,"o":"m 217 139 l 69 286 l 247 464 l 69 642 l 217 789 l 394 611 l 572 789 l 719 642 l 542 464 l 719 286 l 572 139 l 394 317 "},"÷":{"ha":824,"x_min":0,"x_max":0,"o":"m 292 869 l 532 869 l 532 649 l 292 649 m 754 565 l 754 363 l 69 363 l 69 565 m 292 279 l 532 279 l 532 60 l 292 60 "},"=":{"ha":699,"x_min":0,"x_max":0,"o":"m 69 746 l 629 746 l 629 543 l 69 543 m 69 385 l 629 385 l 629 182 l 69 182 "},"≠":{"ha":754,"x_min":0,"x_max":0,"o":"m 488 522 l 431 406 l 685 406 l 685 224 l 340 224 l 269 81 l 106 81 l 176 224 l 69 224 l 69 406 l 267 406 l 325 522 l 69 522 l 69 704 l 415 704 l 486 847 l 649 847 l 578 704 l 685 704 l 685 522 "},">":{"ha":725,"x_min":0,"x_max":0,"o":"m 35 314 l 399 460 l 399 474 l 35 622 l 35 847 l 663 565 l 663 363 l 35 81 "},"<":{"ha":725,"x_min":0,"x_max":0,"o":"m 63 363 l 63 565 l 690 847 l 690 622 l 326 474 l 326 460 l 690 314 l 690 81 "},"≥":{"ha":761,"x_min":0,"x_max":0,"o":"m 63 492 l 432 565 l 432 578 l 63 651 l 63 886 l 699 689 l 699 454 l 63 256 m 63 203 l 699 203 l 699 0 l 63 0 "},"≤":{"ha":761,"x_min":0,"x_max":0,"o":"m 63 454 l 63 689 l 699 886 l 699 651 l 329 578 l 329 565 l 699 492 l 699 256 m 63 0 l 63 203 l 699 203 l 699 0 "},"±":{"ha":878,"x_min":0,"x_max":0,"o":"m 557 285 l 321 285 l 321 467 l 69 467 l 69 669 l 321 669 l 321 851 l 557 851 l 557 669 l 808 669 l 808 467 l 557 467 m 85 203 l 794 203 l 794 0 l 85 0 "},"≈":{"ha":744,"x_min":0,"x_max":0,"o":"m 72 488 b 246 764 54 664 119 764 b 475 683 353 764 393 683 b 553 769 524 683 551 718 l 672 769 b 496 490 690 592 624 490 b 260 575 365 490 329 575 b 192 488 218 575 193 539 l 72 488 m 72 150 b 246 425 54 326 119 425 b 475 346 353 425 393 346 b 553 432 524 346 551 381 l 672 432 b 496 153 690 254 624 153 b 260 238 365 153 329 238 b 192 150 218 238 193 201 l 72 150 "},"~":{"ha":744,"x_min":0,"x_max":0,"o":"m 72 324 b 246 600 54 500 119 600 b 475 519 353 600 393 519 b 553 606 524 519 551 554 l 672 606 b 496 326 690 428 624 326 b 260 411 365 326 329 411 b 192 324 218 411 193 375 l 72 324 "},"¬":{"ha":799,"x_min":0,"x_max":0,"o":"m 529 363 l 69 363 l 69 565 l 729 565 l 729 160 l 529 160 "},"^":{"ha":906,"x_min":0,"x_max":0,"o":"m 454 814 l 318 650 l 69 650 l 364 1013 l 543 1013 l 836 650 l 588 650 "},"∅":{"ha":1086,"x_min":0,"x_max":0,"o":"m 567 1025 b 1107 507 913 1025 1107 818 b 567 -14 1107 174 890 -14 b 28 507 222 -14 28 194 b 567 1025 28 839 243 1025 m 567 774 b 325 507 410 774 325 664 b 333 421 325 475 328 447 l 672 754 b 567 774 642 767 606 774 m 567 238 b 811 507 726 238 811 349 b 803 585 811 535 808 561 l 467 256 b 567 238 496 243 531 238 "},"∞":{"ha":1257,"x_min":0,"x_max":0,"o":"m 367 163 b 69 469 201 163 69 286 b 368 783 69 650 199 783 b 626 628 482 783 575 713 b 888 783 682 713 771 783 b 1188 469 1056 783 1188 650 b 889 163 1188 288 1054 163 b 626 313 769 163 683 224 b 367 163 574 224 481 163 m 382 375 b 522 471 442 375 488 422 b 382 564 489 518 443 564 b 290 471 325 564 290 522 b 382 375 290 419 324 375 m 872 375 b 964 471 929 375 964 419 b 872 564 964 522 929 564 b 735 471 814 564 765 518 b 872 375 767 424 813 375 "},"∫":{"ha":856,"x_min":0,"x_max":0,"o":"m 757 1046 l 757 835 l 563 835 l 563 24 b 342 -196 563 -64 550 -196 l 101 -196 l 101 14 l 297 14 l 297 825 b 518 1046 297 897 297 1046 "},"∏":{"ha":1181,"x_min":0,"x_max":0,"o":"m 1139 783 l 963 783 l 963 -83 l 696 -83 l 696 783 l 483 783 l 483 -83 l 215 -83 l 215 783 l 42 783 l 42 1013 l 1139 1013 "},"∑":{"ha":854,"x_min":0,"x_max":0,"o":"m 69 151 l 340 468 l 340 481 l 69 776 l 69 1013 l 785 1013 l 785 776 l 532 776 l 390 792 l 390 779 l 674 469 l 381 150 l 381 138 l 532 153 l 785 153 l 785 -83 l 69 -83 "},"√":{"ha":1161,"x_min":0,"x_max":0,"o":"m 1113 1042 l 701 -83 l 411 -83 l 192 469 l 26 469 l 26 683 l 382 683 l 551 206 l 563 206 l 847 1042 "},"%":{"ha":1278,"x_min":0,"x_max":0,"o":"m 53 772 b 319 1025 53 918 161 1025 b 588 769 479 1025 588 918 b 319 515 588 624 476 515 b 53 772 167 515 53 621 m 919 1013 l 1038 1013 l 360 0 l 243 0 m 217 774 b 319 663 217 710 257 663 b 424 774 382 663 424 710 b 319 878 424 835 381 878 b 217 774 260 878 217 835 m 686 243 b 954 497 686 388 794 497 b 1219 240 1113 497 1219 388 b 954 -14 1219 94 1110 -14 b 686 243 800 -14 686 92 m 849 244 b 954 133 849 181 892 133 b 1058 244 1015 133 1058 181 b 954 350 1058 307 1014 350 b 849 244 893 350 849 307 "},"‰":{"ha":1881,"x_min":0,"x_max":0,"o":"m 53 772 b 319 1025 53 918 161 1025 b 588 769 479 1025 588 918 b 319 515 588 624 476 515 b 53 772 167 515 53 621 m 919 1013 l 1038 1013 l 360 0 l 243 0 m 217 774 b 319 663 217 710 257 663 b 424 774 382 663 424 710 b 319 878 424 835 381 878 b 217 774 260 878 217 835 m 686 243 b 954 497 686 388 794 497 b 1219 240 1113 497 1219 388 b 954 -14 1219 94 1110 -14 b 686 243 800 -14 686 92 m 1290 243 b 1558 497 1290 388 1399 497 b 1824 240 1715 497 1824 388 b 1558 -14 1824 94 1715 -14 b 1290 243 1404 -14 1290 92 m 849 244 b 954 133 849 181 892 133 b 1058 244 1015 133 1058 181 b 954 350 1058 307 1014 350 b 849 244 893 350 849 307 m 1453 244 b 1558 133 1453 182 1494 133 b 1663 244 1619 133 1663 181 b 1558 350 1663 307 1618 350 b 1453 244 1496 350 1453 307 "},"↑":{"ha":949,"x_min":0,"x_max":0,"o":"m 111 142 l 396 142 l 396 625 l 111 425 l 111 589 l 476 851 l 838 589 l 838 425 l 553 625 l 553 142 l 838 142 l 838 -4 l 111 -4 "},"↗":{"ha":939,"x_min":0,"x_max":0,"o":"m 69 106 l 569 608 l 153 608 l 153 756 l 828 756 l 828 65 l 674 65 l 674 488 l 183 -14 "},"→":{"ha":1099,"x_min":0,"x_max":0,"o":"m 111 529 l 783 529 l 551 836 l 726 836 l 1015 458 l 726 69 l 551 69 l 783 382 l 111 382 "},"↘":{"ha":985,"x_min":0,"x_max":0,"o":"m 199 147 l 615 147 l 56 711 l 169 831 l 719 268 l 719 690 l 874 690 l 872 0 l 199 0 "},"↓":{"ha":949,"x_min":0,"x_max":0,"o":"m 838 796 l 838 650 l 553 650 l 553 167 l 838 367 l 838 203 l 476 -60 l 111 203 l 111 367 l 396 167 l 396 650 l 111 650 l 111 796 "},"↙":{"ha":999,"x_min":0,"x_max":0,"o":"m 111 690 l 265 690 l 265 268 l 815 831 l 929 711 l 369 147 l 786 147 l 786 0 l 113 0 "},"←":{"ha":1099,"x_min":0,"x_max":0,"o":"m 315 382 l 547 69 l 372 69 l 83 458 l 372 836 l 547 836 l 315 529 l 988 529 l 988 382 "},"↖":{"ha":939,"x_min":0,"x_max":0,"o":"m 786 756 l 786 608 l 369 608 l 869 106 l 756 -14 l 265 488 l 265 65 l 111 65 l 111 756 "},"↔":{"ha":1633,"x_min":0,"x_max":0,"o":"m 367 828 l 535 828 l 354 532 l 1276 532 l 1100 828 l 1268 828 l 1508 458 l 1268 82 l 1100 82 l 1276 379 l 354 379 l 535 82 l 367 82 l 125 458 "},"↕":{"ha":842,"x_min":0,"x_max":0,"o":"m 111 172 l 342 26 l 342 804 l 111 660 l 111 818 l 421 1026 l 731 818 l 731 660 l 500 804 l 500 26 l 731 172 l 731 13 l 421 -196 l 111 13 "},"↩":{"ha":1143,"x_min":0,"x_max":0,"o":"m 1074 721 b 690 383 1074 528 946 383 l 329 383 l 329 211 l 56 458 l 329 710 l 329 535 l 690 535 b 913 721 818 535 913 600 b 704 906 913 829 832 906 l 686 906 l 686 1054 l 704 1054 b 1074 721 921 1054 1074 911 "},"↪":{"ha":1143,"x_min":0,"x_max":0,"o":"m 69 721 b 440 1054 69 911 225 1054 l 458 1054 l 458 906 l 440 906 b 233 721 310 906 233 825 b 454 535 233 599 325 535 l 819 535 l 819 710 l 1088 458 l 819 211 l 819 383 l 454 383 b 69 721 196 383 69 525 "},"↲":{"ha":1057,"x_min":0,"x_max":0,"o":"m 946 1069 l 946 383 l 342 383 l 342 211 l 69 458 l 342 710 l 342 535 l 790 535 l 790 1069 "},"↳":{"ha":1057,"x_min":0,"x_max":0,"o":"m 719 211 l 719 383 l 111 383 l 111 1069 l 268 1069 l 268 535 l 719 535 l 719 710 l 988 458 "},"↺":{"ha":1150,"x_min":0,"x_max":0,"o":"m 575 -17 b 83 444 300 -17 83 178 b 321 864 83 588 153 753 l 393 781 b 200 444 276 707 200 594 b 581 93 200 249 363 93 b 947 435 792 93 947 247 b 669 831 947 554 910 640 l 665 828 l 672 735 l 672 556 l 565 556 l 565 1013 l 1028 1013 l 1028 901 l 840 901 l 751 908 l 747 904 b 1064 435 992 714 1064 613 b 575 -17 1064 183 850 -17 "},"↻":{"ha":1150,"x_min":0,"x_max":0,"o":"m 569 -17 b 83 435 296 -17 83 181 b 400 904 83 606 151 717 l 394 908 l 303 901 l 118 901 l 118 1013 l 585 1013 l 585 556 l 472 556 l 472 735 l 481 828 l 475 831 b 200 435 238 643 200 556 b 568 93 200 247 354 93 b 947 444 781 93 947 242 b 757 781 947 576 878 706 l 826 864 b 1064 444 994 751 1064 581 b 569 -17 1064 183 847 -17 "},"●":{"ha":1244,"x_min":0,"x_max":0,"o":"m 625 -14 b 89 508 318 -14 89 211 b 625 1025 89 803 318 1025 b 1154 508 926 1025 1154 803 b 625 -14 1154 211 926 -14 "},"○":{"ha":1101,"x_min":0,"x_max":0,"o":"m 550 -14 b 14 507 246 -14 14 199 b 550 1025 14 811 246 1025 b 1088 507 856 1025 1088 811 b 550 -14 1088 199 856 -14 m 550 88 b 976 507 790 88 976 261 b 550 924 976 751 790 924 b 124 507 313 924 124 751 b 550 88 124 261 313 88 "},"◊":{"ha":1872,"x_min":0,"x_max":0,"o":"m 857 421 b 610 718 703 421 610 542 b 903 1026 610 932 747 1026 b 1158 843 1040 1026 1139 953 l 1026 843 b 901 914 1007 888 963 914 b 746 722 797 914 746 839 b 896 532 746 594 804 532 b 1032 633 971 532 1021 569 l 893 633 l 893 749 l 1169 749 l 1169 429 l 1075 429 l 1061 525 l 1032 525 b 857 421 1013 457 943 421 m 1283 894 b 1217 961 1246 894 1217 922 b 1283 1026 1217 999 1246 1026 b 1347 961 1322 1026 1347 999 b 1283 894 1347 921 1322 894 m 1451 894 b 1386 961 1414 894 1386 922 b 1451 1026 1386 999 1415 1026 b 1519 961 1493 1026 1519 999 b 1451 894 1519 922 1493 894 m 56 1018 l 286 1018 b 571 725 458 1018 571 925 b 286 429 571 526 458 429 l 56 429 m 1593 993 l 1560 993 l 1560 1018 l 1661 1018 l 1661 993 l 1622 993 l 1622 892 l 1593 892 m 1678 1018 l 1731 1018 l 1746 915 l 1765 1018 l 1817 1018 l 1817 892 l 1783 892 l 1783 1000 l 1768 892 l 1724 892 l 1706 1000 l 1706 892 l 1678 892 m 168 496 b 264 539 194 522 219 539 l 286 539 b 438 722 300 539 438 539 b 286 910 438 900 310 910 l 264 910 b 168 953 211 910 190 932 l 146 929 b 188 836 167 906 188 888 l 188 613 b 146 517 188 557 165 540 l 168 496 m 1239 826 l 1358 826 l 1364 779 l 1386 779 b 1504 840 1400 819 1449 840 l 1504 722 b 1365 603 1400 732 1365 676 l 1365 429 l 1239 429 "},"■":{"ha":1285,"x_min":0,"x_max":0,"o":"m 1167 1013 l 1167 1 l 118 1 l 118 1013 "},"□":{"ha":1153,"x_min":0,"x_max":0,"o":"m 1101 1013 l 1101 0 l 51 0 l 51 1013 m 160 104 l 996 104 l 996 910 l 160 910 "},"▲":{"ha":1272,"x_min":0,"x_max":0,"o":"m 1233 0 l 635 1024 l 39 0 "},"△":{"ha":1254,"x_min":0,"x_max":0,"o":"m 626 1025 l 1210 0 l 47 0 m 1018 114 l 629 797 l 240 114 "},"☞":{"ha":1628,"x_min":0,"x_max":0,"o":"m 1528 685 b 1369 667 1547 639 1429 618 b 1240 672 1336 640 1278 650 b 1118 669 1197 644 1146 653 b 915 661 1058 636 958 643 b 888 618 914 640 903 618 b 842 643 865 618 851 632 b 807 576 833 607 825 576 b 729 607 790 576 754 607 b 726 586 717 607 711 586 b 749 576 733 586 743 578 b 956 464 847 553 842 464 b 1150 417 1021 482 1101 467 b 1051 406 1118 442 1060 428 b 940 418 1022 435 965 418 b 911 428 931 418 915 424 b 865 432 897 418 883 417 b 725 458 807 414 778 417 b 588 432 679 442 633 432 b 450 526 486 432 450 490 l 450 539 b 425 539 450 560 425 560 l 426 215 b 451 215 426 201 449 199 l 467 300 b 615 229 508 264 558 229 b 754 281 661 229 722 251 b 842 251 778 251 793 236 b 883 229 858 231 867 231 b 951 261 906 228 931 243 b 1060 311 1004 246 1022 264 l 1101 304 b 1192 354 1151 296 1185 319 b 1150 458 1200 396 1181 435 b 1129 515 1157 481 1142 490 l 1093 586 l 1128 604 b 1247 621 1174 601 1210 604 b 1375 617 1306 596 1346 601 b 1572 668 1440 586 1572 596 b 1533 726 1572 696 1563 722 l 935 804 b 843 796 896 810 871 807 b 471 669 738 751 606 700 b 443 704 460 689 453 704 b 431 690 438 704 431 701 b 429 600 429 654 429 617 b 453 596 429 586 446 583 l 469 626 b 833 747 614 664 708 696 b 949 760 874 764 903 765 l 1411 704 b 1528 685 1428 654 1501 650 m 69 142 b 131 96 69 108 93 92 l 257 110 l 315 92 b 353 132 346 92 353 107 l 353 165 l 419 181 b 419 201 435 182 435 201 l 353 201 b 315 236 331 201 315 213 l 315 656 b 346 689 315 674 319 689 l 411 689 b 413 708 429 689 431 708 l 117 708 b 69 658 78 708 71 681 m 1513 696 b 1443 701 1496 676 1450 681 m 933 514 b 979 607 954 556 971 588 b 996 601 983 618 1000 613 b 949 506 988 576 972 542 b 933 514 942 496 928 504 m 1003 571 b 1057 588 1028 581 1040 585 b 1060 571 1067 592 1072 574 b 1004 554 1051 568 1022 557 b 1003 571 996 553 990 569 m 868 583 b 907 540 881 568 896 553 b 897 526 917 533 907 521 b 854 571 881 538 861 560 b 868 583 846 588 861 590 m 1060 368 b 1101 407 1060 389 1072 407 b 1165 368 1140 407 1165 396 b 1111 328 1165 338 1147 328 b 1060 368 1083 328 1060 343 m 896 354 b 899 393 899 374 899 389 b 915 392 899 399 915 401 b 911 351 915 383 915 360 b 896 354 907 342 894 346 m 939 393 b 956 392 939 399 956 400 b 953 351 956 383 954 360 b 936 354 950 343 936 346 m 647 326 b 717 304 663 313 689 306 b 717 283 731 303 728 283 b 633 313 679 283 643 292 b 647 326 631 319 635 332 m 1011 322 b 1011 301 1022 322 1022 301 b 971 303 988 301 983 303 b 907 297 935 303 929 297 b 851 307 889 297 874 307 b 803 294 829 307 815 297 b 799 313 793 294 790 307 b 843 328 815 324 832 328 b 911 317 874 328 889 317 b 956 321 929 317 940 321 b 1011 322 965 321 978 322 m 340 272 b 371 229 340 243 353 229 b 401 272 389 229 401 243 b 371 318 401 301 389 318 b 340 272 353 318 340 301 "},"☮":{"ha":1167,"x_min":0,"x_max":0,"o":"m 582 1024 b 1119 504 888 1024 1119 815 b 582 -19 1119 192 889 -19 b 47 504 276 -19 47 192 b 582 1024 47 814 276 1024 m 1038 504 b 621 951 1038 760 857 935 l 621 536 l 999 313 b 1038 504 1024 369 1038 433 m 542 951 b 128 504 307 933 128 760 b 167 313 128 433 142 369 l 542 536 l 542 951 m 203 244 b 542 56 276 136 399 67 l 542 444 l 203 244 m 621 56 b 963 244 765 67 888 135 l 621 444 l 621 56 "},"☹":{"ha":1176,"x_min":0,"x_max":0,"o":"m 47 507 b 588 1025 47 810 289 1025 b 1129 507 886 1025 1129 810 b 588 -14 1129 200 886 -14 b 47 507 289 -14 47 200 m 128 507 b 589 58 128 247 339 58 b 1049 507 842 58 1049 251 b 589 953 1049 765 838 953 b 128 507 339 953 128 765 m 325 636 b 403 729 325 697 356 729 b 479 636 454 729 479 689 b 403 543 479 572 447 543 b 325 636 350 543 325 583 m 700 636 b 779 729 700 697 733 729 b 858 636 831 729 858 690 b 779 543 858 574 825 543 b 700 636 726 543 700 583 m 274 242 b 589 438 321 360 439 438 b 904 242 739 438 857 360 l 846 214 b 589 365 810 311 706 365 b 332 214 472 365 368 311 l 274 242 "},"☺":{"ha":1176,"x_min":0,"x_max":0,"o":"m 47 507 b 588 1025 47 810 289 1025 b 1129 507 886 1025 1129 810 b 588 -14 1129 200 886 -14 b 47 507 289 -14 47 200 m 128 507 b 589 58 128 247 339 58 b 1049 507 842 58 1049 251 b 589 953 1049 765 838 953 b 128 507 339 953 128 765 m 325 636 b 403 729 325 697 356 729 b 479 636 454 729 479 689 b 403 543 479 572 447 543 b 325 636 350 543 325 583 m 700 636 b 779 729 700 697 733 729 b 858 636 831 729 858 690 b 779 543 858 574 825 543 b 700 636 726 543 700 583 m 938 438 b 588 172 911 276 767 172 b 239 438 403 172 265 282 l 321 438 b 589 244 340 315 457 244 b 858 438 731 244 839 324 l 938 438 "},"✈":{"ha":1475,"x_min":0,"x_max":0,"o":"m 161 550 l 221 560 l 181 743 l 256 743 l 358 583 l 717 601 l 571 1013 l 703 1013 l 758 921 l 815 921 b 858 879 839 921 858 901 b 815 836 858 858 839 836 l 808 836 l 828 806 l 881 806 b 924 765 904 806 924 786 b 881 721 924 739 904 721 l 918 656 b 990 619 935 631 949 621 l 1076 619 b 1314 508 1229 619 1314 556 b 1076 393 1314 454 1229 393 l 990 393 b 918 358 951 392 935 385 l 881 292 b 924 247 904 292 924 274 b 881 207 924 226 904 207 l 826 207 l 808 176 l 815 176 b 858 133 839 176 858 154 b 815 92 858 111 839 92 l 758 92 l 703 0 l 571 0 l 717 411 l 358 433 l 256 271 l 181 271 l 221 456 l 161 463 "},"✓":{"ha":976,"x_min":0,"x_max":0,"o":"m 858 599 l 365 149 l 118 428 l 229 531 l 375 371 l 756 719 "},"✔":{"ha":1108,"x_min":0,"x_max":0,"o":"m 1018 596 l 422 69 l 90 442 l 306 633 l 442 472 l 817 822 "},"@":{"ha":1301,"x_min":0,"x_max":0,"o":"m 61 440 b 669 1025 61 786 307 1025 b 1247 499 1011 1025 1247 804 b 954 139 1247 278 1126 139 b 785 239 878 139 808 175 l 772 239 b 610 147 742 175 683 147 b 381 425 458 147 381 269 b 631 717 381 592 476 717 b 776 654 699 717 749 690 l 788 654 l 806 700 l 901 700 l 876 371 b 947 274 872 319 881 274 b 1101 499 1050 274 1101 363 b 674 893 1101 758 917 893 b 215 447 375 893 215 697 b 692 -8 215 151 432 -8 b 1036 65 776 -8 910 7 l 1036 -71 b 685 -140 918 -126 778 -140 b 61 440 325 -140 61 83 m 522 424 b 624 279 522 318 571 279 b 751 450 686 279 751 329 b 646 593 751 557 697 593 b 522 424 582 593 522 542 "},"&":{"ha":1185,"x_min":0,"x_max":0,"o":"m 90 260 b 288 529 90 386 169 486 l 288 540 b 161 772 197 628 161 692 b 494 1026 161 925 293 1026 b 811 776 681 1026 811 939 b 626 525 811 664 747 593 l 626 515 l 761 376 b 826 561 792 439 814 499 l 1111 561 l 1111 392 l 997 392 b 913 229 976 328 943 269 l 1135 0 l 824 0 l 747 75 b 442 -14 669 15 556 -14 b 90 260 218 -14 90 101 m 406 767 b 478 664 406 725 444 688 l 486 664 b 565 767 529 688 565 722 b 488 842 565 811 538 842 b 406 767 439 842 406 813 m 356 289 b 479 190 356 236 393 190 b 596 229 531 190 565 207 l 431 396 b 356 289 379 372 356 331 "},"¶":{"ha":1046,"x_min":0,"x_max":0,"o":"m 963 1013 l 963 854 l 869 854 l 869 -6 b 611 -246 869 -171 769 -246 l 208 -246 l 208 -101 l 404 -101 l 404 436 b 83 715 200 436 83 557 b 422 1013 83 906 222 1013 m 597 -101 b 696 -18 661 -101 696 -78 l 696 854 l 575 854 l 575 -101 l 597 -101 "},"§":{"ha":826,"x_min":0,"x_max":0,"o":"m 49 451 b 215 632 49 554 121 617 l 215 644 b 99 800 140 671 99 726 b 431 1025 99 928 221 1025 b 749 803 618 1025 744 936 l 499 803 b 428 849 494 836 465 849 b 372 811 386 849 372 828 b 440 764 372 781 407 775 l 567 722 b 776 514 647 696 776 657 b 656 340 776 431 732 372 l 656 326 b 763 158 722 304 763 233 b 417 -75 763 17 624 -75 b 79 140 217 -75 92 8 l 342 140 b 411 97 347 108 374 97 b 485 147 460 97 485 118 b 413 200 485 176 457 186 l 222 260 b 49 451 172 275 49 319 m 310 511 b 376 450 310 474 353 458 l 461 421 b 519 403 481 414 493 411 b 535 447 529 414 535 433 b 456 518 535 493 492 506 l 397 538 b 333 560 376 544 356 551 b 310 511 315 546 310 525 "},"©":{"ha":1400,"x_min":0,"x_max":0,"o":"m 703 -118 b 83 472 383 -118 83 118 b 703 1060 83 824 382 1060 b 1317 475 1022 1060 1317 825 b 703 -118 1317 128 1028 -118 m 703 -60 b 1253 475 1000 -60 1253 153 b 703 1003 1253 789 1000 1003 b 149 472 404 1003 149 790 b 703 -60 149 156 404 -60 m 713 143 b 363 472 507 143 363 292 b 713 799 363 657 511 799 b 1038 542 886 799 1036 690 l 874 542 b 713 654 865 614 794 654 b 528 469 593 654 528 569 b 711 288 528 371 590 288 b 874 399 790 288 865 324 l 1038 399 b 713 143 1028 242 882 143 "},"®":{"ha":869,"x_min":0,"x_max":0,"o":"m 433 288 b 43 657 215 288 43 438 b 433 1025 43 878 215 1025 b 825 657 651 1025 825 878 b 433 288 825 438 651 288 m 432 346 b 764 658 615 346 764 471 b 433 972 764 846 615 972 b 103 657 253 972 103 846 b 432 346 103 469 253 346 m 285 829 l 475 829 b 588 735 547 829 588 792 b 525 649 588 694 567 661 l 525 647 b 583 579 564 643 583 618 l 583 549 b 589 507 583 535 583 519 l 496 507 b 489 547 490 515 489 528 l 489 571 b 446 610 489 590 483 610 l 378 610 l 378 507 l 285 507 m 446 679 b 490 717 476 679 490 694 b 444 754 490 742 471 754 l 378 754 l 378 679 "},"℗":{"ha":1392,"x_min":0,"x_max":0,"o":"m 697 -107 b 83 476 382 -107 83 128 b 697 1060 83 825 379 1060 b 1308 481 1014 1060 1308 826 b 697 -107 1308 136 1019 -107 m 697 -50 b 1243 482 993 -50 1243 165 b 697 1003 1243 790 993 1003 b 147 476 403 1003 147 790 b 697 -50 147 165 403 -50 m 482 769 l 813 769 b 1033 572 947 769 1033 689 b 813 375 1033 457 947 375 l 633 375 l 633 172 l 482 172 m 788 490 b 881 572 847 490 881 526 b 788 649 881 618 839 649 l 631 649 l 631 490 "},"™":{"ha":918,"x_min":0,"x_max":0,"o":"m 7 1022 l 357 1022 l 357 922 l 236 922 l 236 588 l 124 588 l 124 922 l 7 922 m 900 1022 l 900 588 l 792 588 l 792 747 l 797 865 l 793 865 l 660 594 l 528 865 l 521 865 l 529 747 l 529 588 l 419 588 l 419 1022 l 560 1022 l 658 810 l 663 810 l 763 1022 "},"℅":{"ha":1468,"x_min":0,"x_max":0,"o":"m 628 678 b 360 485 617 567 515 485 b 83 754 197 485 83 583 b 371 1026 83 919 199 1026 b 631 828 511 1026 615 947 l 446 828 b 365 879 438 865 397 879 b 267 754 296 879 267 832 b 365 629 267 663 308 629 b 446 678 406 629 439 649 l 628 678 m 992 1013 l 1142 1013 l 464 0 l 314 0 m 825 261 b 1106 532 825 422 939 532 b 1385 261 1275 532 1385 421 b 1106 -8 1385 101 1272 -8 b 825 261 938 -8 825 101 m 1007 261 b 1106 136 1007 183 1049 136 b 1203 263 1168 136 1203 192 b 1104 386 1203 336 1164 386 b 1007 261 1040 386 1007 329 "},"°":{"ha":596,"x_min":0,"x_max":0,"o":"m 540 789 b 296 560 540 658 436 560 b 56 789 156 560 56 658 b 296 1019 56 925 156 1019 b 540 789 435 1019 540 926 m 365 789 b 296 854 365 831 335 854 b 231 789 260 854 231 831 b 296 725 231 754 260 725 b 365 789 335 725 365 754 "},"′":{"ha":321,"x_min":0,"x_max":0,"o":"m 56 561 l 56 1042 l 265 1042 l 265 561 "},"|":{"ha":385,"x_min":0,"x_max":0,"o":"m 81 1046 l 299 1046 l 299 -82 l 81 -82 "},"¦":{"ha":385,"x_min":0,"x_max":0,"o":"m 81 1046 l 299 1046 l 299 513 l 81 513 m 81 421 l 299 421 l 299 -93 l 81 -93 "},"†":{"ha":708,"x_min":0,"x_max":0,"o":"m 646 549 l 646 396 l 440 396 l 440 214 l 268 214 l 268 396 l 63 396 l 63 549 l 268 549 l 268 1008 l 440 1008 l 440 549 "},"‡":{"ha":708,"x_min":0,"x_max":0,"o":"m 646 549 l 646 396 l 440 396 l 440 214 l 268 214 l 268 396 l 63 396 l 63 549 l 268 549 l 268 681 l 63 681 l 63 831 l 268 831 l 268 1008 l 440 1008 l 440 831 l 644 831 l 644 681 l 440 681 l 440 549 "},"℮":{"ha":1199,"x_min":0,"x_max":0,"o":"m 1103 319 b 604 -12 1050 122 857 -12 b 83 499 288 -12 83 197 b 615 1013 83 801 292 1013 b 1114 554 904 1013 1100 846 b 1115 469 1115 525 1115 492 l 240 469 l 240 213 b 607 40 310 101 453 40 b 1036 319 814 40 986 153 l 1103 319 m 240 519 l 960 519 l 960 804 b 597 954 868 914 751 957 b 240 779 442 951 321 889 "},"№":{"ha":1892,"x_min":0,"x_max":0,"o":"m 1111 674 b 1485 1019 1111 867 1265 1019 b 1857 674 1701 1019 1857 867 b 1485 328 1857 485 1703 328 b 1111 674 1264 328 1111 485 m 75 1013 l 396 1013 l 778 406 l 789 406 l 774 686 l 774 1013 l 1053 1013 l 1053 0 l 732 0 l 353 599 l 342 599 l 357 328 l 357 0 l 75 0 m 1381 672 b 1485 540 1381 585 1422 540 b 1588 672 1565 540 1588 613 b 1485 807 1588 767 1543 807 b 1381 672 1403 807 1381 731 m 1781 210 l 1781 1 l 1189 1 l 1189 210 "},"":{"ha":1040,"x_min":0,"x_max":0,"o":"m 679 879 b 519 796 617 806 519 796 b 561 951 519 811 504 879 b 733 1047 640 1051 733 1047 b 679 879 733 1047 747 960 m 361 0 b 83 476 231 0 83 265 b 342 793 83 679 217 793 b 525 746 422 793 471 746 b 724 796 581 746 625 796 b 929 690 865 796 929 690 b 813 493 929 690 813 629 b 957 279 813 338 957 279 b 718 1 957 279 871 1 b 542 42 658 1 608 42 b 361 0 472 42 413 0 "},"̈":{"ha":0,"x_min":0,"x_max":0,"o":"m -594 1228 l -369 1228 l -369 993 l -594 993 m -287 1228 l -62 1228 l -62 993 l -287 993 "},"̇":{"ha":0,"x_min":0,"x_max":0,"o":"m -308 1228 l -43 1228 l -43 993 l -308 993 "},"̀":{"ha":0,"x_min":0,"x_max":0,"o":"m -62 993 l -229 993 l -464 1228 l -192 1228 "},"́":{"ha":0,"x_min":0,"x_max":0,"o":"m -21 1228 l -256 993 l -422 993 l -293 1228 "},"̋":{"ha":0,"x_min":0,"x_max":0,"o":"m -467 1228 l -635 993 l -793 993 l -711 1228 m -78 1228 l -353 993 l -528 993 l -350 1228 "},"̂":{"ha":0,"x_min":0,"x_max":0,"o":"m -443 1228 l -275 1228 l -47 993 l -274 993 l -360 1096 l -446 993 l -672 993 "},"̌":{"ha":0,"x_min":0,"x_max":0,"o":"m -446 1228 l -360 1125 l -274 1228 l -47 1228 l -275 993 l -443 993 l -672 1228 "},"̆":{"ha":0,"x_min":0,"x_max":0,"o":"m -76 1228 b -322 993 -68 1083 -171 993 b -565 1228 -474 993 -575 1083 l -411 1228 b -322 1135 -411 1158 -372 1135 b -231 1228 -260 1135 -231 1169 l -76 1228 "},"̊":{"ha":0,"x_min":0,"x_max":0,"o":"m -62 1142 b -217 999 -62 1057 -126 999 b -372 1142 -307 999 -372 1057 b -217 1285 -372 1228 -307 1285 b -62 1142 -126 1285 -62 1228 m -169 1142 b -217 1189 -169 1171 -189 1189 b -264 1142 -244 1189 -264 1171 b -217 1096 -264 1115 -244 1096 b -169 1142 -189 1096 -169 1115 "},"̃":{"ha":0,"x_min":0,"x_max":0,"o":"m -97 1149 b -256 1014 -122 1056 -183 1013 b -415 1063 -326 1014 -356 1063 b -499 1014 -447 1063 -475 1047 l -581 1088 b -417 1221 -551 1179 -490 1221 b -254 1174 -340 1219 -319 1174 b -176 1222 -219 1174 -196 1193 l -97 1149 "},"̄":{"ha":0,"x_min":0,"x_max":0,"o":"m -589 1239 l -107 1239 l -107 1050 l -589 1050 "},"̒":{"ha":0,"x_min":0,"x_max":0,"o":"m -76 1338 b -158 1268 -137 1338 -158 1310 l -158 1219 l -62 1219 l -62 1015 l -268 1015 l -268 1249 b -76 1410 -268 1364 -199 1410 "},"̦":{"ha":0,"x_min":0,"x_max":0,"o":"m -254 -344 b -174 -275 -193 -344 -174 -317 l -174 -240 l -268 -240 l -268 -36 l -62 -36 l -62 -256 b -254 -417 -62 -371 -132 -417 "},"̧":{"ha":0,"x_min":0,"x_max":0,"o":"m -207 -56 b -62 -187 -121 -56 -62 -103 b -264 -340 -62 -290 -161 -340 b -399 -310 -311 -340 -358 -331 l -399 -189 b -299 -219 -365 -211 -331 -219 b -225 -162 -249 -219 -225 -196 b -289 -112 -225 -132 -250 -112 b -343 -125 -307 -112 -326 -117 l -343 -65 l -274 29 l -167 29 l -167 0 l -211 -56 l -207 -56 "},"̨":{"ha":0,"x_min":0,"x_max":0,"o":"m -62 -306 b -190 -328 -93 -319 -143 -328 b -393 -151 -312 -328 -393 -257 b -154 68 -393 -42 -297 46 l -101 0 b -240 -118 -196 -22 -240 -68 b -149 -189 -240 -162 -207 -189 b -62 -174 -121 -189 -89 -183 "},"̵":{"ha":0,"x_min":0,"x_max":0,"o":"m -704 607 l -62 607 l -62 407 l -704 407 "},"̷":{"ha":0,"x_min":0,"x_max":0,"o":"m -108 1042 l 26 1042 l -364 0 l -497 0 "},"̸":{"ha":0,"x_min":0,"x_max":0,"o":"m -108 1042 l 26 1042 l -364 0 l -497 0 "},"¨":{"ha":643,"x_min":0,"x_max":0,"o":"m 49 1228 l 274 1228 l 274 993 l 49 993 m 356 1228 l 581 1228 l 581 993 l 356 993 "},"˙":{"ha":351,"x_min":0,"x_max":0,"o":"m 43 1228 l 308 1228 l 308 993 l 43 993 "},"`":{"ha":485,"x_min":0,"x_max":0,"o":"m 422 993 l 256 993 l 21 1228 l 293 1228 "},"´":{"ha":540,"x_min":0,"x_max":0,"o":"m 519 1228 l 285 993 l 118 993 l 247 1228 "},"˝":{"ha":931,"x_min":0,"x_max":0,"o":"m 464 1228 l 296 993 l 138 993 l 219 1228 m 853 1228 l 578 993 l 403 993 l 581 1228 "},"ˆ":{"ha":706,"x_min":0,"x_max":0,"o":"m 263 1228 l 431 1228 l 658 993 l 432 993 l 346 1096 l 260 993 l 33 993 "},"ˇ":{"ha":706,"x_min":0,"x_max":0,"o":"m 260 1228 l 346 1125 l 432 1228 l 658 1228 l 431 993 l 263 993 l 33 1228 "},"˘":{"ha":625,"x_min":0,"x_max":0,"o":"m 549 1228 b 303 993 557 1083 454 993 b 60 1228 151 993 50 1083 l 214 1228 b 303 1135 214 1158 253 1135 b 394 1228 365 1135 394 1169 l 549 1228 "},"˚":{"ha":435,"x_min":0,"x_max":0,"o":"m 372 1142 b 218 999 372 1057 308 999 b 63 1142 128 999 63 1057 b 218 1285 63 1228 128 1285 b 372 1142 308 1285 372 1228 m 265 1142 b 218 1189 265 1171 246 1189 b 171 1142 190 1189 171 1171 b 218 1096 171 1115 190 1096 b 265 1142 246 1096 265 1115 "},"˜":{"ha":661,"x_min":0,"x_max":0,"o":"m 564 1149 b 406 1014 539 1056 478 1013 b 246 1063 335 1014 306 1063 b 163 1014 214 1063 186 1047 l 81 1088 b 244 1221 110 1179 171 1221 b 407 1174 321 1219 342 1174 b 485 1222 442 1174 465 1193 l 564 1149 "},"¯":{"ha":679,"x_min":0,"x_max":0,"o":"m 90 1239 l 572 1239 l 572 1050 l 90 1050 "},"¸":{"ha":461,"x_min":0,"x_max":0,"o":"m 254 -56 b 399 -187 340 -56 399 -103 b 197 -340 399 -290 300 -340 b 63 -310 150 -340 103 -331 l 63 -189 b 163 -219 96 -211 131 -219 b 236 -162 213 -219 236 -196 b 172 -112 236 -132 211 -112 b 118 -125 154 -112 135 -117 l 118 -65 l 188 29 l 294 29 l 294 0 l 250 -56 l 254 -56 "},"˛":{"ha":456,"x_min":0,"x_max":0,"o":"m 393 -306 b 265 -328 363 -319 313 -328 b 63 -151 143 -328 63 -257 b 301 68 63 -42 158 46 l 354 0 b 215 -118 260 -22 215 -68 b 307 -189 215 -162 249 -189 b 393 -174 335 -189 367 -183 "},"":{"ha":1451,"x_min":0,"x_max":0,"o":"m 57 -22 l 57 1013 l 599 1013 l 476 860 l 206 860 l 206 578 l 397 578 b 925 1024 436 838 656 1024 b 1368 790 1099 1024 1269 939 l 1243 700 b 922 874 1174 811 1042 874 b 549 507 708 874 549 699 b 922 138 549 317 708 138 b 1240 311 1042 138 1168 194 l 1368 221 b 925 -14 1265 68 1096 -14 b 397 429 660 -14 436 174 l 206 429 l 206 86 m 763 507 b 921 346 763 422 831 346 b 1069 439 978 346 1038 381 l 1193 347 b 924 199 1133 250 1032 199 b 608 507 753 199 608 338 b 924 813 608 671 751 813 b 1193 663 1029 813 1135 758 l 1069 571 b 921 663 1040 626 982 663 b 763 507 832 663 763 592 "},"":{"ha":1665,"x_min":0,"x_max":0,"o":"m 114 501 b 642 1019 114 810 329 1019 b 697 1017 663 1019 688 1018 l 697 850 b 643 854 674 853 656 854 b 283 501 428 854 283 710 b 643 150 283 294 428 150 b 697 154 664 150 682 150 l 697 -14 b 642 -17 683 -15 664 -17 b 114 501 329 -17 114 192 m 1025 508 b 1544 1019 1025 817 1228 1019 b 1608 1017 1571 1019 1596 1018 l 1608 850 b 1550 854 1585 853 1565 854 b 1203 588 1389 854 1246 772 l 1497 588 l 1497 429 l 1203 429 b 1550 163 1246 243 1389 163 b 1608 167 1572 163 1594 163 l 1608 -1 b 1544 -4 1594 -3 1571 -4 b 1025 508 1228 -4 1025 199 "}}}
